STARTFONT 2.3
FONT -FontForge-Rajdhani-Book-R-Normal--9-90-72-72-P-55-ISO10646-1
SIZE 9 72 72  4
FONTBOUNDINGBOX 23 12 -4 -3
COMMENT "Generated by fontforge, http://fontforge.sourceforge.net"
COMMENT "Copyright (c) 2014 Indian Type Foundry (info@indiantypefoundry.com)"
STARTPROPERTIES 41
FOUNDRY "FontForge"
FAMILY_NAME "Rajdhani"
WEIGHT_NAME "Book"
SLANT "R"
SETWIDTH_NAME "Normal"
ADD_STYLE_NAME ""
PIXEL_SIZE 9
POINT_SIZE 90
RESOLUTION_X 72
RESOLUTION_Y 72
SPACING "P"
AVERAGE_WIDTH 55
CHARSET_REGISTRY "ISO10646"
CHARSET_ENCODING "1"
FONTNAME_REGISTRY ""
CHARSET_COLLECTIONS "ISO8859-2 ISO8859-9 ISO8859-4 ISO10646-1"
BITS_PER_PIXEL 4
FONT_NAME "Rajdhani-Regular"
FACE_NAME "Rajdhani Regular"
COPYRIGHT "Copyright (c) 2014 Indian Type Foundry (info@indiantypefoundry.com)"
FONT_VERSION "1.201;PS 1.0;hotconv 1.0.78;makeotf.lib2.5.61930; ttfautohint (v1.1) -l 7 -r 28 -G 50 -x 13 -D latn -f deva -w G"
FONT_ASCENT 7
FONT_DESCENT 2
UNDERLINE_POSITION -1
UNDERLINE_THICKNESS 1
X_HEIGHT 4
CAP_HEIGHT 5
DEFAULT_CHAR 3
RAW_ASCENT 800
RAW_DESCENT 200
NORM_SPACE 2
RELATIVE_WEIGHT 40
RELATIVE_SETWIDTH 50
SUPERSCRIPT_X 0
SUPERSCRIPT_Y 3
SUPERSCRIPT_SIZE 5
SUBSCRIPT_X 0
SUBSCRIPT_Y 0
SUBSCRIPT_SIZE 5
AVG_LOWERCASE_WIDTH 41
AVG_UPPERCASE_WIDTH 46
ENDPROPERTIES
CHARS 1043
STARTCHAR NULL.dup1
ENCODING 0
SWIDTH 0 0
DWIDTH 0 0
BBX 1 1 0 0
BITMAP
00
ENDCHAR
STARTCHAR CR
ENCODING 13
SWIDTH 0 0
DWIDTH 0 0
BBX 1 1 0 0
BITMAP
00
ENDCHAR
STARTCHAR space
ENCODING 32
SWIDTH 267 0
DWIDTH 2 0
BBX 1 1 0 0
BITMAP
00
ENDCHAR
STARTCHAR exclam
ENCODING 33
SWIDTH 237 0
DWIDTH 2 0
BBX 2 6 0 0
BITMAP
35
35
24
24
13
25
ENDCHAR
STARTCHAR quotedbl
ENCODING 34
SWIDTH 330 0
DWIDTH 3 0
BBX 3 2 0 4
BITMAP
6160
4040
ENDCHAR
STARTCHAR numbersign
ENCODING 35
SWIDTH 677 0
DWIDTH 6 0
BBX 6 6 0 0
BITMAP
006060
06A7A4
015060
051330
3A7A70
060600
ENDCHAR
STARTCHAR dollar
ENCODING 36
SWIDTH 504 0
DWIDTH 5 0
BBX 4 8 0 -1
BITMAP
0060
2977
5203
1775
0007
5107
2877
0060
ENDCHAR
STARTCHAR percent
ENCODING 37
SWIDTH 717 0
DWIDTH 6 0
BBX 6 6 0 0
BITMAP
566050
606510
364600
003466
006426
015277
ENDCHAR
STARTCHAR ampersand
ENCODING 38
SWIDTH 597 0
DWIDTH 5 0
BBX 5 6 0 0
BITMAP
077800
070400
181000
526750
520600
287850
ENDCHAR
STARTCHAR quotesingle
ENCODING 39
SWIDTH 186 0
DWIDTH 2 0
BBX 1 2 0 4
BITMAP
50
40
ENDCHAR
STARTCHAR parenleft
ENCODING 40
SWIDTH 283 0
DWIDTH 3 0
BBX 2 8 0 -2
BITMAP
36
60
60
60
60
60
61
16
ENDCHAR
STARTCHAR parenright
ENCODING 41
SWIDTH 283 0
DWIDTH 3 0
BBX 2 8 0 -2
BITMAP
36
06
06
06
06
06
07
34
ENDCHAR
STARTCHAR asterisk
ENCODING 42
SWIDTH 406 0
DWIDTH 4 0
BBX 3 3 0 3
BITMAP
1410
1650
0220
ENDCHAR
STARTCHAR plus
ENCODING 43
SWIDTH 523 0
DWIDTH 5 0
BBX 4 4 0 1
BITMAP
0060
27A7
0060
0050
ENDCHAR
STARTCHAR comma
ENCODING 44
SWIDTH 191 0
DWIDTH 2 0
BBX 2 2 0 -1
BITMAP
61
50
ENDCHAR
STARTCHAR hyphen
ENCODING 45
SWIDTH 312 0
DWIDTH 3 0
BBX 3 1 0 3
BITMAP
4730
ENDCHAR
STARTCHAR period
ENCODING 46
SWIDTH 191 0
DWIDTH 2 0
BBX 2 2 0 0
BITMAP
21
62
ENDCHAR
STARTCHAR slash
ENCODING 47
SWIDTH 396 0
DWIDTH 4 0
BBX 3 6 0 0
BITMAP
0070
0070
0430
0700
0700
4200
ENDCHAR
STARTCHAR zero
ENCODING 48
SWIDTH 514 0
DWIDTH 5 0
BBX 4 6 0 0
BITMAP
2878
6107
6106
6106
6107
2878
ENDCHAR
STARTCHAR one
ENCODING 49
SWIDTH 317 0
DWIDTH 3 0
BBX 3 6 0 0
BITMAP
3A10
1510
0510
0510
0510
0510
ENDCHAR
STARTCHAR two
ENCODING 50
SWIDTH 478 0
DWIDTH 4 0
BBX 4 6 0 0
BITMAP
3876
6007
0026
0450
4400
7775
ENDCHAR
STARTCHAR three
ENCODING 51
SWIDTH 496 0
DWIDTH 4 0
BBX 4 6 0 0
BITMAP
3877
3007
0076
1007
6007
2766
ENDCHAR
STARTCHAR four
ENCODING 52
SWIDTH 520 0
DWIDTH 5 0
BBX 5 6 0 0
BITMAP
005800
016700
061700
250700
677A20
000600
ENDCHAR
STARTCHAR five
ENCODING 53
SWIDTH 482 0
DWIDTH 4 0
BBX 4 6 0 0
BITMAP
6775
6100
6664
1007
5107
3877
ENDCHAR
STARTCHAR six
ENCODING 54
SWIDTH 497 0
DWIDTH 4 0
BBX 4 6 0 0
BITMAP
3874
7000
7775
7007
7007
3877
ENDCHAR
STARTCHAR seven
ENCODING 55
SWIDTH 380 0
DWIDTH 3 0
BBX 4 6 0 0
BITMAP
67A2
0070
0170
0520
0700
1600
ENDCHAR
STARTCHAR eight
ENCODING 56
SWIDTH 519 0
DWIDTH 5 0
BBX 5 6 0 0
BITMAP
387900
610610
197900
510600
610610
287700
ENDCHAR
STARTCHAR nine
ENCODING 57
SWIDTH 497 0
DWIDTH 4 0
BBX 4 6 0 0
BITMAP
3877
7007
7107
287A
0007
1777
ENDCHAR
STARTCHAR colon
ENCODING 58
SWIDTH 191 0
DWIDTH 2 0
BBX 2 5 0 0
BITMAP
62
21
00
21
62
ENDCHAR
STARTCHAR semicolon
ENCODING 59
SWIDTH 191 0
DWIDTH 2 0
BBX 2 6 0 -1
BITMAP
62
21
00
31
61
20
ENDCHAR
STARTCHAR less
ENCODING 60
SWIDTH 513 0
DWIDTH 5 0
BBX 4 4 0 1
BITMAP
0003
1663
2651
0016
ENDCHAR
STARTCHAR equal
ENCODING 61
SWIDTH 531 0
DWIDTH 5 0
BBX 4 3 0 2
BITMAP
2666
0000
2666
ENDCHAR
STARTCHAR greater
ENCODING 62
SWIDTH 531 0
DWIDTH 5 0
BBX 4 4 0 1
BITMAP
2200
0465
0266
2500
ENDCHAR
STARTCHAR question
ENCODING 63
SWIDTH 473 0
DWIDTH 4 0
BBX 4 6 0 0
BITMAP
2975
4107
0052
0060
0020
0160
ENDCHAR
STARTCHAR at
ENCODING 64
SWIDTH 753 0
DWIDTH 7 0
BBX 7 7 0 -1
BITMAP
02555400
06466500
32606410
41606410
32608500
06467500
02654000
ENDCHAR
STARTCHAR A
ENCODING 65
SWIDTH 533 0
DWIDTH 5 0
BBX 5 6 0 0
BITMAP
01B000
067200
081700
080800
597B20
700260
ENDCHAR
STARTCHAR B
ENCODING 66
SWIDTH 546 0
DWIDTH 5 0
BBX 5 6 0 0
BITMAP
387910
430430
486A00
430330
430340
386810
ENDCHAR
STARTCHAR C
ENCODING 67
SWIDTH 542 0
DWIDTH 5 0
BBX 5 6 0 0
BITMAP
297920
520240
520000
520000
520240
297920
ENDCHAR
STARTCHAR D
ENCODING 68
SWIDTH 557 0
DWIDTH 5 0
BBX 5 6 0 0
BITMAP
397920
430250
430250
430250
430250
387920
ENDCHAR
STARTCHAR E
ENCODING 69
SWIDTH 481 0
DWIDTH 4 0
BBX 4 6 0 0
BITMAP
3975
4300
4973
4300
4300
3875
ENDCHAR
STARTCHAR F
ENCODING 70
SWIDTH 459 0
DWIDTH 4 0
BBX 4 6 0 0
BITMAP
3975
4300
4973
4300
4300
3300
ENDCHAR
STARTCHAR G
ENCODING 71
SWIDTH 539 0
DWIDTH 5 0
BBX 5 6 0 0
BITMAP
297910
520210
523820
520430
520520
297800
ENDCHAR
STARTCHAR H
ENCODING 72
SWIDTH 570 0
DWIDTH 5 0
BBX 5 6 0 0
BITMAP
330150
430150
497750
430150
430150
330150
ENDCHAR
STARTCHAR I
ENCODING 73
SWIDTH 230 0
DWIDTH 2 0
BBX 2 6 0 0
BITMAP
34
34
34
34
34
34
ENDCHAR
STARTCHAR J
ENCODING 74
SWIDTH 499 0
DWIDTH 4 0
BBX 4 6 0 0
BITMAP
0006
0007
0007
1007
7007
5776
ENDCHAR
STARTCHAR K
ENCODING 75
SWIDTH 530 0
DWIDTH 5 0
BBX 5 6 0 0
BITMAP
330710
434400
458000
497100
431700
330440
ENDCHAR
STARTCHAR L
ENCODING 76
SWIDTH 451 0
DWIDTH 4 0
BBX 4 6 0 0
BITMAP
3300
4300
4300
4300
4300
3975
ENDCHAR
STARTCHAR M
ENCODING 77
SWIDTH 696 0
DWIDTH 6 0
BBX 6 6 0 0
BITMAP
390057
491077
446247
437707
432507
330007
ENDCHAR
STARTCHAR N
ENCODING 78
SWIDTH 579 0
DWIDTH 5 0
BBX 5 6 0 0
BITMAP
370070
4A1070
447070
435270
430770
330470
ENDCHAR
STARTCHAR O
ENCODING 79
SWIDTH 553 0
DWIDTH 5 0
BBX 5 6 0 0
BITMAP
297910
520240
520240
520240
520240
297910
ENDCHAR
STARTCHAR P
ENCODING 80
SWIDTH 524 0
DWIDTH 5 0
BBX 5 6 0 0
BITMAP
397900
430430
430520
497700
430000
330000
ENDCHAR
STARTCHAR Q
ENCODING 81
SWIDTH 556 0
DWIDTH 5 0
BBX 5 7 0 -1
BITMAP
197910
520250
520250
520250
520250
197920
001600
ENDCHAR
STARTCHAR R
ENCODING 82
SWIDTH 534 0
DWIDTH 5 0
BBX 5 6 0 0
BITMAP
397900
430520
430520
487800
430700
330620
ENDCHAR
STARTCHAR S
ENCODING 83
SWIDTH 562 0
DWIDTH 5 0
BBX 5 6 0 0
BITMAP
197910
430230
183000
003820
320250
197920
ENDCHAR
STARTCHAR T
ENCODING 84
SWIDTH 420 0
DWIDTH 4 0
BBX 4 6 0 0
BITMAP
6A84
0520
0520
0520
0520
0520
ENDCHAR
STARTCHAR U
ENCODING 85
SWIDTH 552 0
DWIDTH 5 0
BBX 5 6 0 0
BITMAP
420340
430340
430340
430340
430340
197910
ENDCHAR
STARTCHAR V
ENCODING 86
SWIDTH 500 0
DWIDTH 5 0
BBX 5 6 0 0
BITMAP
700520
520700
160700
073400
067000
039000
ENDCHAR
STARTCHAR W
ENCODING 87
SWIDTH 794 0
DWIDTH 7 0
BBX 7 6 0 0
BITMAP
700B0070
61183070
34526250
07606520
07606700
07503900
ENDCHAR
STARTCHAR X
ENCODING 88
SWIDTH 504 0
DWIDTH 5 0
BBX 5 6 0 0
BITMAP
520700
072500
049000
059000
171600
610610
ENDCHAR
STARTCHAR Y
ENCODING 89
SWIDTH 493 0
DWIDTH 4 0
BBX 5 6 0 0
BITMAP
700710
261700
076100
028000
007000
006000
ENDCHAR
STARTCHAR Z
ENCODING 90
SWIDTH 482 0
DWIDTH 4 0
BBX 4 6 0 0
BITMAP
477A
0044
0080
0620
1700
8877
ENDCHAR
STARTCHAR bracketleft
ENCODING 91
SWIDTH 287 0
DWIDTH 3 0
BBX 2 8 0 -2
BITMAP
66
60
60
60
60
60
60
46
ENDCHAR
STARTCHAR backslash
ENCODING 92
SWIDTH 396 0
DWIDTH 4 0
BBX 3 6 0 0
BITMAP
4200
0700
0700
0430
0070
0070
ENDCHAR
STARTCHAR bracketright
ENCODING 93
SWIDTH 287 0
DWIDTH 3 0
BBX 2 8 0 -2
BITMAP
39
06
06
06
06
06
06
27
ENDCHAR
STARTCHAR asciicircum
ENCODING 94
SWIDTH 465 0
DWIDTH 4 0
BBX 4 3 0 3
BITMAP
0670
1643
3003
ENDCHAR
STARTCHAR underscore
ENCODING 95
SWIDTH 372 0
DWIDTH 3 0
BBX 4 1 0 -1
BITMAP
5552
ENDCHAR
STARTCHAR grave
ENCODING 96
SWIDTH 269 0
DWIDTH 2 0
BBX 2 2 0 5
BITMAP
26
03
ENDCHAR
STARTCHAR a
ENCODING 97
SWIDTH 502 0
DWIDTH 5 0
BBX 4 5 0 0
BITMAP
2879
6107
6007
6107
287A
ENDCHAR
STARTCHAR b
ENCODING 98
SWIDTH 504 0
DWIDTH 5 0
BBX 4 7 0 0
BITMAP
5200
5200
5877
5207
5207
5207
5877
ENDCHAR
STARTCHAR c
ENCODING 99
SWIDTH 394 0
DWIDTH 4 0
BBX 4 5 0 0
BITMAP
2871
6100
6000
6100
2871
ENDCHAR
STARTCHAR d
ENCODING 100
SWIDTH 504 0
DWIDTH 5 0
BBX 4 7 0 0
BITMAP
0007
0007
287A
6107
6007
6107
287A
ENDCHAR
STARTCHAR e
ENCODING 101
SWIDTH 492 0
DWIDTH 4 0
BBX 4 5 0 0
BITMAP
2877
6107
6667
6100
2875
ENDCHAR
STARTCHAR f
ENCODING 102
SWIDTH 303 0
DWIDTH 3 0
BBX 3 7 0 0
BITMAP
0740
0700
4B40
0700
0700
0700
0700
ENDCHAR
STARTCHAR g
ENCODING 103
SWIDTH 506 0
DWIDTH 5 0
BBX 4 6 0 -1
BITMAP
297A
5207
6107
5208
1779
1777
ENDCHAR
STARTCHAR h
ENCODING 104
SWIDTH 507 0
DWIDTH 5 0
BBX 4 7 0 0
BITMAP
5200
5200
5877
5207
5207
5207
5207
ENDCHAR
STARTCHAR i
ENCODING 105
SWIDTH 210 0
DWIDTH 2 0
BBX 2 7 0 0
BITMAP
42
10
42
43
43
43
42
ENDCHAR
STARTCHAR j
ENCODING 106
SWIDTH 210 0
DWIDTH 2 0
BBX 3 8 -1 -1
BITMAP
0420
0100
0420
0430
0430
0430
0520
3900
ENDCHAR
STARTCHAR k
ENCODING 107
SWIDTH 431 0
DWIDTH 4 0
BBX 4 7 0 0
BITMAP
5200
5200
5235
5280
5450
5270
5216
ENDCHAR
STARTCHAR l
ENCODING 108
SWIDTH 210 0
DWIDTH 2 0
BBX 2 7 0 0
BITMAP
42
43
43
43
43
43
42
ENDCHAR
STARTCHAR m
ENCODING 109
SWIDTH 769 0
DWIDTH 7 0
BBX 7 5 0 0
BITMAP
58787910
52080340
52070340
52070340
52070240
ENDCHAR
STARTCHAR n
ENCODING 110
SWIDTH 507 0
DWIDTH 5 0
BBX 4 5 0 0
BITMAP
5877
5207
5207
5207
5207
ENDCHAR
STARTCHAR o
ENCODING 111
SWIDTH 496 0
DWIDTH 4 0
BBX 4 5 0 0
BITMAP
2877
6107
6007
6107
2877
ENDCHAR
STARTCHAR p
ENCODING 112
SWIDTH 504 0
DWIDTH 5 0
BBX 4 6 0 -1
BITMAP
5877
5207
5207
5207
5877
5200
ENDCHAR
STARTCHAR q
ENCODING 113
SWIDTH 502 0
DWIDTH 5 0
BBX 4 6 0 -1
BITMAP
2879
6107
6007
6107
287A
0007
ENDCHAR
STARTCHAR r
ENCODING 114
SWIDTH 313 0
DWIDTH 3 0
BBX 3 5 0 0
BITMAP
5840
5300
5200
5200
5200
ENDCHAR
STARTCHAR s
ENCODING 115
SWIDTH 431 0
DWIDTH 4 0
BBX 4 5 0 0
BITMAP
5771
6200
0671
0025
3683
ENDCHAR
STARTCHAR t
ENCODING 116
SWIDTH 347 0
DWIDTH 3 0
BBX 3 6 0 0
BITMAP
1600
6A40
1600
1600
1600
0850
ENDCHAR
STARTCHAR u
ENCODING 117
SWIDTH 507 0
DWIDTH 5 0
BBX 4 5 0 0
BITMAP
6107
6107
6107
5207
287A
ENDCHAR
STARTCHAR v
ENCODING 118
SWIDTH 416 0
DWIDTH 4 0
BBX 4 5 0 0
BITMAP
7016
6142
2570
0770
0750
ENDCHAR
STARTCHAR w
ENCODING 119
SWIDTH 683 0
DWIDTH 6 0
BBX 6 5 0 0
BITMAP
704607
616607
346625
075481
0920B0
ENDCHAR
STARTCHAR x
ENCODING 120
SWIDTH 413 0
DWIDTH 4 0
BBX 4 5 0 0
BITMAP
6153
1770
0840
1670
7144
ENDCHAR
STARTCHAR y
ENCODING 121
SWIDTH 459 0
DWIDTH 4 0
BBX 4 6 0 -1
BITMAP
7007
4316
0761
0770
0360
4810
ENDCHAR
STARTCHAR z
ENCODING 122
SWIDTH 405 0
DWIDTH 4 0
BBX 4 5 0 0
BITMAP
47A3
0080
0620
1700
8772
ENDCHAR
STARTCHAR braceleft
ENCODING 123
SWIDTH 298 0
DWIDTH 3 0
BBX 3 8 0 -2
BITMAP
0810
0600
1600
7200
1500
0600
0600
0510
ENDCHAR
STARTCHAR bar
ENCODING 124
SWIDTH 207 0
DWIDTH 2 0
BBX 2 6 0 0
BITMAP
42
42
42
42
42
42
ENDCHAR
STARTCHAR braceright
ENCODING 125
SWIDTH 298 0
DWIDTH 3 0
BBX 3 8 0 -2
BITMAP
5400
0600
0600
0810
0600
0600
0600
4200
ENDCHAR
STARTCHAR asciitilde
ENCODING 126
SWIDTH 523 0
DWIDTH 5 0
BBX 4 1 0 3
BITMAP
2655
ENDCHAR
STARTCHAR uni00A0
ENCODING 160
SWIDTH 267 0
DWIDTH 2 0
BBX 1 1 0 0
BITMAP
00
ENDCHAR
STARTCHAR exclamdown
ENCODING 161
SWIDTH 237 0
DWIDTH 2 0
BBX 2 6 0 0
BITMAP
25
13
24
24
35
35
ENDCHAR
STARTCHAR cent
ENCODING 162
SWIDTH 414 0
DWIDTH 4 0
BBX 4 7 0 -1
BITMAP
0060
2873
6100
6000
6100
2872
0050
ENDCHAR
STARTCHAR sterling
ENCODING 163
SWIDTH 528 0
DWIDTH 5 0
BBX 5 6 0 0
BITMAP
087800
070510
070000
4A6000
070000
596610
ENDCHAR
STARTCHAR yen
ENCODING 165
SWIDTH 499 0
DWIDTH 4 0
BBX 5 6 0 0
BITMAP
610610
161500
498610
018000
46A610
007000
ENDCHAR
STARTCHAR brokenbar
ENCODING 166
SWIDTH 201 0
DWIDTH 2 0
BBX 2 6 0 0
BITMAP
41
41
31
31
41
41
ENDCHAR
STARTCHAR section
ENCODING 167
SWIDTH 454 0
DWIDTH 4 0
BBX 4 6 0 0
BITMAP
4872
7300
6473
2647
0028
2774
ENDCHAR
STARTCHAR dieresis
ENCODING 168
SWIDTH 345 0
DWIDTH 3 0
BBX 3 2 0 5
BITMAP
6060
1020
ENDCHAR
STARTCHAR copyright
ENCODING 169
SWIDTH 723 0
DWIDTH 7 0
BBX 6 6 0 0
BITMAP
276666
507646
505025
506045
505626
276666
ENDCHAR
STARTCHAR guillemotleft
ENCODING 171
SWIDTH 431 0
DWIDTH 4 0
BBX 4 4 0 0
BITMAP
0532
4460
1661
0101
ENDCHAR
STARTCHAR registered
ENCODING 174
SWIDTH 439 0
DWIDTH 4 0
BBX 4 4 0 3
BITMAP
2452
4544
4444
1551
ENDCHAR
STARTCHAR macron
ENCODING 175
SWIDTH 358 0
DWIDTH 3 0
BBX 3 1 0 5
BITMAP
2630
ENDCHAR
STARTCHAR degree
ENCODING 176
SWIDTH 298 0
DWIDTH 3 0
BBX 2 2 0 5
BITMAP
47
25
ENDCHAR
STARTCHAR plusminus
ENCODING 177
SWIDTH 523 0
DWIDTH 5 0
BBX 4 4 0 1
BITMAP
0060
26A6
0050
2777
ENDCHAR
STARTCHAR acute
ENCODING 180
SWIDTH 269 0
DWIDTH 2 0
BBX 2 2 0 5
BITMAP
17
21
ENDCHAR
STARTCHAR paragraph
ENCODING 182
SWIDTH 513 0
DWIDTH 5 0
BBX 4 6 0 0
BITMAP
5E69
8E06
5E06
0606
0606
0606
ENDCHAR
STARTCHAR periodcentered
ENCODING 183
SWIDTH 207 0
DWIDTH 2 0
BBX 2 2 0 2
BITMAP
53
11
ENDCHAR
STARTCHAR cedilla
ENCODING 184
SWIDTH 257 0
DWIDTH 2 0
BBX 2 3 0 -2
BITMAP
02
35
24
ENDCHAR
STARTCHAR guillemotright
ENCODING 187
SWIDTH 431 0
DWIDTH 4 0
BBX 4 4 0 0
BITMAP
3340
0743
2560
1000
ENDCHAR
STARTCHAR questiondown
ENCODING 191
SWIDTH 473 0
DWIDTH 4 0
BBX 4 6 0 0
BITMAP
0350
0120
0340
1700
5206
2875
ENDCHAR
STARTCHAR Agrave
ENCODING 192
SWIDTH 532 0
DWIDTH 5 0
BBX 5 8 0 0
BITMAP
043000
000000
01B000
067200
081700
080800
597B20
700260
ENDCHAR
STARTCHAR Aacute
ENCODING 193
SWIDTH 532 0
DWIDTH 5 0
BBX 5 8 0 0
BITMAP
005200
000000
01B000
067200
081700
080800
597B20
700260
ENDCHAR
STARTCHAR Acircumflex
ENCODING 194
SWIDTH 532 0
DWIDTH 5 0
BBX 5 8 0 0
BITMAP
037100
000000
01B000
067200
081700
080800
597B20
700260
ENDCHAR
STARTCHAR Atilde
ENCODING 195
SWIDTH 532 0
DWIDTH 5 0
BBX 5 8 0 0
BITMAP
022100
000000
01B000
067200
081700
080800
597B20
700260
ENDCHAR
STARTCHAR Adieresis
ENCODING 196
SWIDTH 532 0
DWIDTH 5 0
BBX 5 8 0 0
BITMAP
071500
010100
01B000
067200
081700
080800
597B20
700260
ENDCHAR
STARTCHAR Aring
ENCODING 197
SWIDTH 532 0
DWIDTH 5 0
BBX 5 9 0 0
BITMAP
025000
043100
003000
01B000
067200
081700
080800
597B20
700260
ENDCHAR
STARTCHAR AE
ENCODING 198
SWIDTH 773 0
DWIDTH 7 0
BBX 7 6 0 0
BITMAP
002D7720
00870000
03687710
09070000
4A7A0000
80087720
ENDCHAR
STARTCHAR Ccedilla
ENCODING 199
SWIDTH 542 0
DWIDTH 5 0
BBX 5 8 0 -2
BITMAP
297920
520240
520000
520000
520240
297920
007000
004100
ENDCHAR
STARTCHAR Egrave
ENCODING 200
SWIDTH 481 0
DWIDTH 4 0
BBX 4 8 0 0
BITMAP
0430
0000
3975
4300
4973
4300
4300
3875
ENDCHAR
STARTCHAR Eacute
ENCODING 201
SWIDTH 481 0
DWIDTH 4 0
BBX 4 8 0 0
BITMAP
0071
0000
3975
4300
4973
4300
4300
3875
ENDCHAR
STARTCHAR Ecircumflex
ENCODING 202
SWIDTH 481 0
DWIDTH 4 0
BBX 4 8 0 0
BITMAP
0460
0000
3975
4300
4973
4300
4300
3875
ENDCHAR
STARTCHAR Edieresis
ENCODING 203
SWIDTH 481 0
DWIDTH 4 0
BBX 4 8 0 0
BITMAP
0733
0111
3975
4300
4973
4300
4300
3875
ENDCHAR
STARTCHAR Igrave
ENCODING 204
SWIDTH 230 0
DWIDTH 2 0
BBX 2 8 0 0
BITMAP
71
00
34
34
34
34
34
34
ENDCHAR
STARTCHAR Iacute
ENCODING 205
SWIDTH 231 0
DWIDTH 2 0
BBX 2 8 0 0
BITMAP
07
00
34
34
34
34
34
34
ENDCHAR
STARTCHAR Icircumflex
ENCODING 206
SWIDTH 229 0
DWIDTH 2 0
BBX 2 8 0 0
BITMAP
55
00
34
34
34
34
34
34
ENDCHAR
STARTCHAR Idieresis
ENCODING 207
SWIDTH 230 0
DWIDTH 2 0
BBX 2 8 0 0
BITMAP
77
11
34
34
34
34
34
34
ENDCHAR
STARTCHAR Eth
ENCODING 208
SWIDTH 514 0
DWIDTH 5 0
BBX 5 6 0 0
BITMAP
397920
340250
784150
340150
340150
397920
ENDCHAR
STARTCHAR Ntilde
ENCODING 209
SWIDTH 579 0
DWIDTH 5 0
BBX 5 8 0 0
BITMAP
013100
000000
370070
4A1070
447070
435270
430770
330470
ENDCHAR
STARTCHAR Ograve
ENCODING 210
SWIDTH 553 0
DWIDTH 5 0
BBX 5 8 0 0
BITMAP
035000
000000
297910
520240
520240
520240
520240
297910
ENDCHAR
STARTCHAR Oacute
ENCODING 211
SWIDTH 553 0
DWIDTH 5 0
BBX 5 8 0 0
BITMAP
005200
000000
297910
520240
520240
520240
520240
297910
ENDCHAR
STARTCHAR Ocircumflex
ENCODING 212
SWIDTH 553 0
DWIDTH 5 0
BBX 5 8 0 0
BITMAP
027200
000000
297910
520240
520240
520240
520240
297910
ENDCHAR
STARTCHAR Otilde
ENCODING 213
SWIDTH 553 0
DWIDTH 5 0
BBX 5 8 0 0
BITMAP
022100
000000
297910
520240
520240
520240
520240
297910
ENDCHAR
STARTCHAR Odieresis
ENCODING 214
SWIDTH 553 0
DWIDTH 5 0
BBX 5 8 0 0
BITMAP
070700
010100
297910
520240
520240
520240
520240
297910
ENDCHAR
STARTCHAR multiply
ENCODING 215
SWIDTH 493 0
DWIDTH 4 0
BBX 3 4 1 1
BITMAP
1010
8730
6810
3030
ENDCHAR
STARTCHAR Oslash
ENCODING 216
SWIDTH 559 0
DWIDTH 5 0
BBX 5 6 0 0
BITMAP
197840
520750
524450
544250
580250
487920
ENDCHAR
STARTCHAR Ugrave
ENCODING 217
SWIDTH 552 0
DWIDTH 5 0
BBX 5 8 0 0
BITMAP
025000
000000
420340
430340
430340
430340
430340
197910
ENDCHAR
STARTCHAR Uacute
ENCODING 218
SWIDTH 552 0
DWIDTH 5 0
BBX 5 8 0 0
BITMAP
005200
000000
420340
430340
430340
430340
430340
197910
ENDCHAR
STARTCHAR Ucircumflex
ENCODING 219
SWIDTH 552 0
DWIDTH 5 0
BBX 5 8 0 0
BITMAP
027200
000000
420340
430340
430340
430340
430340
197910
ENDCHAR
STARTCHAR Udieresis
ENCODING 220
SWIDTH 552 0
DWIDTH 5 0
BBX 5 8 0 0
BITMAP
070700
010100
420340
430340
430340
430340
430340
197910
ENDCHAR
STARTCHAR Yacute
ENCODING 221
SWIDTH 493 0
DWIDTH 4 0
BBX 5 8 0 0
BITMAP
007100
000000
700710
261700
076100
028000
007000
006000
ENDCHAR
STARTCHAR Thorn
ENCODING 222
SWIDTH 501 0
DWIDTH 5 0
BBX 3 6 1 0
BITMAP
7000
A770
7070
7070
A740
7000
ENDCHAR
STARTCHAR germandbls
ENCODING 223
SWIDTH 540 0
DWIDTH 5 0
BBX 5 6 0 0
BITMAP
197900
430520
425900
420420
420430
426810
ENDCHAR
STARTCHAR agrave
ENCODING 224
SWIDTH 502 0
DWIDTH 5 0
BBX 4 7 0 0
BITMAP
0340
0020
2879
6107
6007
6107
287A
ENDCHAR
STARTCHAR aacute
ENCODING 225
SWIDTH 502 0
DWIDTH 5 0
BBX 4 7 0 0
BITMAP
0062
0020
2879
6107
6007
6107
287A
ENDCHAR
STARTCHAR acircumflex
ENCODING 226
SWIDTH 502 0
DWIDTH 5 0
BBX 4 7 0 0
BITMAP
0280
0211
2879
6107
6007
6107
287A
ENDCHAR
STARTCHAR atilde
ENCODING 227
SWIDTH 504 0
DWIDTH 5 0
BBX 4 7 0 0
BITMAP
0444
0333
2879
6107
6007
6107
287A
ENDCHAR
STARTCHAR adieresis
ENCODING 228
SWIDTH 502 0
DWIDTH 5 0
BBX 4 7 0 0
BITMAP
0615
0201
2879
6107
6007
6107
287A
ENDCHAR
STARTCHAR aring
ENCODING 229
SWIDTH 502 0
DWIDTH 5 0
BBX 4 8 0 0
BITMAP
0240
0440
0240
2879
6107
6007
6107
287A
ENDCHAR
STARTCHAR ae
ENCODING 230
SWIDTH 795 0
DWIDTH 7 0
BBX 7 5 0 0
BITMAP
06787740
00080060
11086650
60080000
38787740
ENDCHAR
STARTCHAR ccedilla
ENCODING 231
SWIDTH 394 0
DWIDTH 4 0
BBX 4 7 0 -2
BITMAP
2871
6100
6000
6100
2871
0260
0150
ENDCHAR
STARTCHAR egrave
ENCODING 232
SWIDTH 492 0
DWIDTH 4 0
BBX 4 7 0 0
BITMAP
0620
0020
2877
6107
6667
6100
2875
ENDCHAR
STARTCHAR eacute
ENCODING 233
SWIDTH 492 0
DWIDTH 4 0
BBX 4 7 0 0
BITMAP
0070
0020
2877
6107
6667
6100
2875
ENDCHAR
STARTCHAR ecircumflex
ENCODING 234
SWIDTH 492 0
DWIDTH 4 0
BBX 4 7 0 0
BITMAP
0370
0220
2877
6107
6667
6100
2875
ENDCHAR
STARTCHAR edieresis
ENCODING 235
SWIDTH 492 0
DWIDTH 4 0
BBX 4 7 0 0
BITMAP
0733
0211
2877
6107
6667
6100
2875
ENDCHAR
STARTCHAR igrave
ENCODING 236
SWIDTH 210 0
DWIDTH 2 0
BBX 2 7 0 0
BITMAP
70
20
42
43
43
43
42
ENDCHAR
STARTCHAR iacute
ENCODING 237
SWIDTH 208 0
DWIDTH 2 0
BBX 2 7 0 0
BITMAP
08
11
42
43
43
43
42
ENDCHAR
STARTCHAR icircumflex
ENCODING 238
SWIDTH 210 0
DWIDTH 2 0
BBX 2 7 0 0
BITMAP
65
22
42
43
43
43
42
ENDCHAR
STARTCHAR idieresis
ENCODING 239
SWIDTH 210 0
DWIDTH 2 0
BBX 2 7 0 0
BITMAP
67
22
42
43
43
43
42
ENDCHAR
STARTCHAR eth
ENCODING 240
SWIDTH 488 0
DWIDTH 4 0
BBX 4 7 0 0
BITMAP
0312
04A0
0554
1779
6108
6107
3877
ENDCHAR
STARTCHAR ntilde
ENCODING 241
SWIDTH 507 0
DWIDTH 5 0
BBX 4 7 0 0
BITMAP
0463
0422
5877
5207
5207
5207
5207
ENDCHAR
STARTCHAR ograve
ENCODING 242
SWIDTH 496 0
DWIDTH 4 0
BBX 4 7 0 0
BITMAP
0710
0020
2877
6107
6007
6107
2877
ENDCHAR
STARTCHAR oacute
ENCODING 243
SWIDTH 496 0
DWIDTH 4 0
BBX 4 7 0 0
BITMAP
0071
0020
2877
6107
6007
6107
2877
ENDCHAR
STARTCHAR ocircumflex
ENCODING 244
SWIDTH 496 0
DWIDTH 4 0
BBX 4 7 0 0
BITMAP
0370
0220
2877
6107
6007
6107
2877
ENDCHAR
STARTCHAR otilde
ENCODING 245
SWIDTH 496 0
DWIDTH 4 0
BBX 4 7 0 0
BITMAP
0462
0432
2877
6107
6007
6107
2877
ENDCHAR
STARTCHAR odieresis
ENCODING 246
SWIDTH 496 0
DWIDTH 4 0
BBX 4 7 0 0
BITMAP
0643
0211
2877
6107
6007
6107
2877
ENDCHAR
STARTCHAR divide
ENCODING 247
SWIDTH 510 0
DWIDTH 5 0
BBX 4 4 0 1
BITMAP
0040
2665
0000
0040
ENDCHAR
STARTCHAR oslash
ENCODING 248
SWIDTH 521 0
DWIDTH 5 0
BBX 5 5 0 0
BITMAP
197820
421B00
536700
580700
587800
ENDCHAR
STARTCHAR ugrave
ENCODING 249
SWIDTH 507 0
DWIDTH 5 0
BBX 4 7 0 0
BITMAP
0710
0020
6107
6107
6107
5207
287A
ENDCHAR
STARTCHAR uacute
ENCODING 250
SWIDTH 507 0
DWIDTH 5 0
BBX 4 7 0 0
BITMAP
0061
0020
6107
6107
6107
5207
287A
ENDCHAR
STARTCHAR ucircumflex
ENCODING 251
SWIDTH 507 0
DWIDTH 5 0
BBX 4 7 0 0
BITMAP
0370
0220
6107
6107
6107
5207
287A
ENDCHAR
STARTCHAR udieresis
ENCODING 252
SWIDTH 507 0
DWIDTH 5 0
BBX 4 7 0 0
BITMAP
0633
0211
6107
6107
6107
5207
287A
ENDCHAR
STARTCHAR yacute
ENCODING 253
SWIDTH 459 0
DWIDTH 4 0
BBX 4 8 0 -1
BITMAP
0070
0020
7007
4316
0761
0770
0360
4810
ENDCHAR
STARTCHAR thorn
ENCODING 254
SWIDTH 508 0
DWIDTH 5 0
BBX 4 8 0 -1
BITMAP
4200
4200
4878
4307
4207
4307
4878
4200
ENDCHAR
STARTCHAR ydieresis
ENCODING 255
SWIDTH 459 0
DWIDTH 4 0
BBX 4 8 0 -1
BITMAP
0760
0220
7007
4316
0761
0770
0360
4810
ENDCHAR
STARTCHAR Amacron
ENCODING 256
SWIDTH 532 0
DWIDTH 5 0
BBX 5 8 0 0
BITMAP
046200
000000
01B000
067200
081700
080800
597B20
700260
ENDCHAR
STARTCHAR amacron
ENCODING 257
SWIDTH 502 0
DWIDTH 5 0
BBX 4 6 0 0
BITMAP
0363
2879
6107
6007
6107
287A
ENDCHAR
STARTCHAR Abreve
ENCODING 258
SWIDTH 532 0
DWIDTH 5 0
BBX 5 9 0 0
BITMAP
031300
026100
000000
01B000
067200
081700
080800
597B20
700260
ENDCHAR
STARTCHAR abreve
ENCODING 259
SWIDTH 502 0
DWIDTH 5 0
BBX 4 7 0 0
BITMAP
0504
0261
2879
6107
6007
6107
287A
ENDCHAR
STARTCHAR Aogonek
ENCODING 260
SWIDTH 532 0
DWIDTH 5 0
BBX 5 7 0 -1
BITMAP
01B000
067200
081700
080800
597B20
700260
000420
ENDCHAR
STARTCHAR aogonek
ENCODING 261
SWIDTH 502 0
DWIDTH 5 0
BBX 4 6 0 -1
BITMAP
2879
6107
6007
6107
287A
0014
ENDCHAR
STARTCHAR Cacute
ENCODING 262
SWIDTH 542 0
DWIDTH 5 0
BBX 5 8 0 0
BITMAP
005200
000000
297920
520240
520000
520000
520240
297920
ENDCHAR
STARTCHAR cacute
ENCODING 263
SWIDTH 394 0
DWIDTH 4 0
BBX 4 7 0 0
BITMAP
0080
0010
2871
6100
6000
6100
2871
ENDCHAR
STARTCHAR Cdotaccent
ENCODING 266
SWIDTH 542 0
DWIDTH 5 0
BBX 5 8 0 0
BITMAP
007000
001000
297920
520240
520000
520000
520240
297920
ENDCHAR
STARTCHAR cdotaccent
ENCODING 267
SWIDTH 394 0
DWIDTH 4 0
BBX 4 7 0 0
BITMAP
0240
0010
2871
6100
6000
6100
2871
ENDCHAR
STARTCHAR Ccaron
ENCODING 268
SWIDTH 542 0
DWIDTH 5 0
BBX 5 8 0 0
BITMAP
027200
000000
297920
520240
520000
520000
520240
297920
ENDCHAR
STARTCHAR ccaron
ENCODING 269
SWIDTH 394 0
DWIDTH 4 0
BBX 4 7 0 0
BITMAP
0560
0120
2871
6100
6000
6100
2871
ENDCHAR
STARTCHAR Dcaron
ENCODING 270
SWIDTH 557 0
DWIDTH 5 0
BBX 5 8 0 0
BITMAP
027100
000000
397920
430250
430250
430250
430250
387920
ENDCHAR
STARTCHAR dcaron
ENCODING 271
SWIDTH 534 0
DWIDTH 5 0
BBX 5 7 0 0
BITMAP
000770
000750
275A10
610700
600700
610700
287A00
ENDCHAR
STARTCHAR Dcroat
ENCODING 272
SWIDTH 514 0
DWIDTH 5 0
BBX 5 6 0 0
BITMAP
397920
340250
784150
340150
340150
397920
ENDCHAR
STARTCHAR dcroat
ENCODING 273
SWIDTH 539 0
DWIDTH 5 0
BBX 5 7 0 0
BITMAP
000700
016A40
177900
620800
600700
610700
286A00
ENDCHAR
STARTCHAR Emacron
ENCODING 274
SWIDTH 481 0
DWIDTH 4 0
BBX 4 8 0 0
BITMAP
0561
0000
3975
4300
4973
4300
4300
3875
ENDCHAR
STARTCHAR emacron
ENCODING 275
SWIDTH 492 0
DWIDTH 4 0
BBX 4 6 0 0
BITMAP
0461
2877
6107
6667
6100
2875
ENDCHAR
STARTCHAR Ebreve
ENCODING 276
SWIDTH 481 0
DWIDTH 4 0
BBX 4 9 0 0
BITMAP
0321
0450
0000
3975
4300
4973
4300
4300
3875
ENDCHAR
STARTCHAR ebreve
ENCODING 277
SWIDTH 492 0
DWIDTH 4 0
BBX 4 7 0 0
BITMAP
0531
0350
2877
6107
6667
6100
2875
ENDCHAR
STARTCHAR Edotaccent
ENCODING 278
SWIDTH 496 0
DWIDTH 4 0
BBX 4 8 0 0
BITMAP
0060
0010
3975
4300
4973
4300
4300
3875
ENDCHAR
STARTCHAR edotaccent
ENCODING 279
SWIDTH 492 0
DWIDTH 4 0
BBX 4 7 0 0
BITMAP
0070
0010
2877
6107
6667
6100
2875
ENDCHAR
STARTCHAR Eogonek
ENCODING 280
SWIDTH 481 0
DWIDTH 4 0
BBX 4 7 0 -1
BITMAP
3975
4300
4973
4300
4300
3875
0041
ENDCHAR
STARTCHAR eogonek
ENCODING 281
SWIDTH 492 0
DWIDTH 4 0
BBX 4 6 0 -1
BITMAP
2877
6107
6667
6100
2875
0041
ENDCHAR
STARTCHAR Ecaron
ENCODING 282
SWIDTH 481 0
DWIDTH 4 0
BBX 4 8 0 0
BITMAP
0460
0000
3975
4300
4973
4300
4300
3875
ENDCHAR
STARTCHAR ecaron
ENCODING 283
SWIDTH 492 0
DWIDTH 4 0
BBX 4 7 0 0
BITMAP
0560
0030
2877
6107
6667
6100
2875
ENDCHAR
STARTCHAR Gcircumflex
ENCODING 284
SWIDTH 539 0
DWIDTH 5 0
BBX 5 8 0 0
BITMAP
027100
000000
297910
520210
523820
520430
520520
297800
ENDCHAR
STARTCHAR gcircumflex
ENCODING 285
SWIDTH 506 0
DWIDTH 5 0
BBX 4 8 0 -1
BITMAP
0190
0211
297A
5207
6107
5208
1779
1777
ENDCHAR
STARTCHAR Gbreve
ENCODING 286
SWIDTH 539 0
DWIDTH 5 0
BBX 5 9 0 0
BITMAP
030300
026100
000000
297910
520210
523820
520430
520520
297800
ENDCHAR
STARTCHAR gbreve
ENCODING 287
SWIDTH 506 0
DWIDTH 5 0
BBX 4 8 0 -1
BITMAP
0242
0000
297A
5207
6107
5208
1779
1777
ENDCHAR
STARTCHAR Gdotaccent
ENCODING 288
SWIDTH 539 0
DWIDTH 5 0
BBX 5 8 0 0
BITMAP
006000
001000
297910
520210
523820
520430
520520
297800
ENDCHAR
STARTCHAR gdotaccent
ENCODING 289
SWIDTH 506 0
DWIDTH 5 0
BBX 4 8 0 -1
BITMAP
0070
0010
297A
5207
6107
5208
1779
1777
ENDCHAR
STARTCHAR uni0122
ENCODING 290
SWIDTH 539 0
DWIDTH 5 0
BBX 5 8 0 -2
BITMAP
297910
520210
523820
520430
520520
297800
007000
004000
ENDCHAR
STARTCHAR uni0123
ENCODING 291
SWIDTH 506 0
DWIDTH 5 0
BBX 4 9 0 -1
BITMAP
0040
0070
0000
297A
5207
6107
5208
1779
1777
ENDCHAR
STARTCHAR hcircumflex
ENCODING 293
SWIDTH 507 0
DWIDTH 5 0
BBX 4 8 0 0
BITMAP
0050
5432
5200
5877
5207
5207
5207
5207
ENDCHAR
STARTCHAR Hbar
ENCODING 294
SWIDTH 523 0
DWIDTH 5 0
BBX 5 6 0 0
BITMAP
340160
6967A0
397760
340160
340160
340160
ENDCHAR
STARTCHAR hbar
ENCODING 295
SWIDTH 544 0
DWIDTH 5 0
BBX 5 7 0 0
BITMAP
060000
5A6000
0A6700
080430
070340
070340
060340
ENDCHAR
STARTCHAR Itilde
ENCODING 296
SWIDTH 230 0
DWIDTH 2 0
BBX 2 8 0 0
BITMAP
41
00
34
34
34
34
34
34
ENDCHAR
STARTCHAR itilde
ENCODING 297
SWIDTH 210 0
DWIDTH 2 0
BBX 2 7 0 0
BITMAP
57
63
42
43
43
43
42
ENDCHAR
STARTCHAR Imacron
ENCODING 298
SWIDTH 230 0
DWIDTH 2 0
BBX 2 8 0 0
BITMAP
66
00
34
34
34
34
34
34
ENDCHAR
STARTCHAR imacron
ENCODING 299
SWIDTH 208 0
DWIDTH 2 0
BBX 2 6 0 0
BITMAP
65
42
43
43
43
42
ENDCHAR
STARTCHAR Ibreve
ENCODING 300
SWIDTH 231 0
DWIDTH 2 0
BBX 2 9 0 0
BITMAP
33
45
00
34
34
34
34
34
34
ENDCHAR
STARTCHAR ibreve
ENCODING 301
SWIDTH 211 0
DWIDTH 2 0
BBX 2 7 0 0
BITMAP
54
44
42
43
43
43
42
ENDCHAR
STARTCHAR Iogonek
ENCODING 302
SWIDTH 230 0
DWIDTH 2 0
BBX 2 7 0 -1
BITMAP
34
34
34
34
34
34
41
ENDCHAR
STARTCHAR iogonek
ENCODING 303
SWIDTH 210 0
DWIDTH 2 0
BBX 2 8 0 -1
BITMAP
42
10
42
43
43
43
42
50
ENDCHAR
STARTCHAR Idotaccent
ENCODING 304
SWIDTH 230 0
DWIDTH 2 0
BBX 2 8 0 0
BITMAP
34
01
34
34
34
34
34
34
ENDCHAR
STARTCHAR dotlessi
ENCODING 305
SWIDTH 212 0
DWIDTH 2 0
BBX 2 5 0 0
BITMAP
42
43
43
43
42
ENDCHAR
STARTCHAR IJ
ENCODING 306
SWIDTH 721 0
DWIDTH 6 0
BBX 6 6 0 0
BITMAP
340007
340007
340007
341007
347007
345776
ENDCHAR
STARTCHAR ij
ENCODING 307
SWIDTH 419 0
DWIDTH 4 0
BBX 4 8 0 -1
BITMAP
4261
1010
4261
4361
4361
4361
4261
0480
ENDCHAR
STARTCHAR Jcircumflex
ENCODING 308
SWIDTH 494 0
DWIDTH 4 0
BBX 5 8 0 0
BITMAP
002720
000000
000600
000700
000700
100700
700700
577600
ENDCHAR
STARTCHAR jcircumflex
ENCODING 309
SWIDTH 209 0
DWIDTH 2 0
BBX 3 8 -1 -1
BITMAP
0550
0220
0420
0430
0430
0430
0520
3900
ENDCHAR
STARTCHAR uni0136
ENCODING 310
SWIDTH 530 0
DWIDTH 5 0
BBX 5 9 0 -3
BITMAP
330710
434400
458000
497100
431700
330440
003000
005000
001000
ENDCHAR
STARTCHAR uni0137
ENCODING 311
SWIDTH 431 0
DWIDTH 4 0
BBX 4 9 0 -2
BITMAP
5200
5200
5235
5280
5450
5270
5216
0160
0130
ENDCHAR
STARTCHAR Lacute
ENCODING 313
SWIDTH 451 0
DWIDTH 4 0
BBX 4 8 0 0
BITMAP
0700
0000
3300
4300
4300
4300
4300
3975
ENDCHAR
STARTCHAR lacute
ENCODING 314
SWIDTH 207 0
DWIDTH 2 0
BBX 2 9 0 0
BITMAP
04
12
42
43
43
43
43
43
42
ENDCHAR
STARTCHAR uni013B
ENCODING 315
SWIDTH 451 0
DWIDTH 4 0
BBX 4 8 0 -2
BITMAP
3300
4300
4300
4300
4300
3975
0070
0040
ENDCHAR
STARTCHAR uni013C
ENCODING 316
SWIDTH 211 0
DWIDTH 2 0
BBX 2 9 0 -2
BITMAP
42
43
43
43
43
43
42
42
40
ENDCHAR
STARTCHAR Lcaron
ENCODING 317
SWIDTH 451 0
DWIDTH 4 0
BBX 4 6 0 0
BITMAP
3334
4332
4310
4300
4300
3975
ENDCHAR
STARTCHAR lcaron
ENCODING 318
SWIDTH 274 0
DWIDTH 2 0
BBX 3 7 0 0
BITMAP
4550
4530
4300
4300
4300
4300
4200
ENDCHAR
STARTCHAR Ldot
ENCODING 319
SWIDTH 500 0
DWIDTH 5 0
BBX 4 6 0 0
BITMAP
3300
3400
3470
3420
3400
3975
ENDCHAR
STARTCHAR ldot
ENCODING 320
SWIDTH 314 0
DWIDTH 3 0
BBX 3 7 0 0
BITMAP
4300
4300
4300
4470
4320
4300
4300
ENDCHAR
STARTCHAR Lslash
ENCODING 321
SWIDTH 504 0
DWIDTH 5 0
BBX 4 6 0 0
BITMAP
2400
3820
7500
3400
3400
2976
ENDCHAR
STARTCHAR lslash
ENCODING 322
SWIDTH 296 0
DWIDTH 3 0
BBX 3 7 0 0
BITMAP
0700
0700
0A30
5700
0700
0700
0700
ENDCHAR
STARTCHAR Nacute
ENCODING 323
SWIDTH 579 0
DWIDTH 5 0
BBX 5 8 0 0
BITMAP
003500
000000
370070
4A1070
447070
435270
430770
330470
ENDCHAR
STARTCHAR nacute
ENCODING 324
SWIDTH 507 0
DWIDTH 5 0
BBX 4 7 0 0
BITMAP
0062
0020
5877
5207
5207
5207
5207
ENDCHAR
STARTCHAR uni0145
ENCODING 325
SWIDTH 579 0
DWIDTH 5 0
BBX 5 8 0 -2
BITMAP
370070
4A1070
447070
435270
430770
330470
007000
004000
ENDCHAR
STARTCHAR uni0146
ENCODING 326
SWIDTH 505 0
DWIDTH 5 0
BBX 4 7 0 -2
BITMAP
5877
5207
5207
5207
5207
0070
0040
ENDCHAR
STARTCHAR Ncaron
ENCODING 327
SWIDTH 579 0
DWIDTH 5 0
BBX 5 8 0 0
BITMAP
017300
000000
370070
4A1070
447070
435270
430770
330470
ENDCHAR
STARTCHAR ncaron
ENCODING 328
SWIDTH 507 0
DWIDTH 5 0
BBX 4 7 0 0
BITMAP
0461
0030
5877
5207
5207
5207
5207
ENDCHAR
STARTCHAR Eng
ENCODING 330
SWIDTH 519 0
DWIDTH 5 0
BBX 5 7 0 -1
BITMAP
370070
3A1070
347070
345270
340770
330370
001830
ENDCHAR
STARTCHAR eng
ENCODING 331
SWIDTH 507 0
DWIDTH 5 0
BBX 4 6 0 -1
BITMAP
5877
5207
5207
5207
5207
0058
ENDCHAR
STARTCHAR Omacron
ENCODING 332
SWIDTH 553 0
DWIDTH 5 0
BBX 5 8 0 0
BITMAP
036300
000000
297910
520240
520240
520240
520240
297910
ENDCHAR
STARTCHAR omacron
ENCODING 333
SWIDTH 496 0
DWIDTH 4 0
BBX 4 6 0 0
BITMAP
0461
2877
6107
6007
6107
2877
ENDCHAR
STARTCHAR Obreve
ENCODING 334
SWIDTH 553 0
DWIDTH 5 0
BBX 5 9 0 0
BITMAP
030300
026200
000000
297910
520240
520240
520240
520240
297910
ENDCHAR
STARTCHAR obreve
ENCODING 335
SWIDTH 496 0
DWIDTH 4 0
BBX 4 7 0 0
BITMAP
0531
0350
2877
6107
6007
6107
2877
ENDCHAR
STARTCHAR Ohungarumlaut
ENCODING 336
SWIDTH 553 0
DWIDTH 5 0
BBX 5 8 0 0
BITMAP
006600
011100
297910
520240
520240
520240
520240
297910
ENDCHAR
STARTCHAR ohungarumlaut
ENCODING 337
SWIDTH 496 0
DWIDTH 4 0
BBX 4 7 0 0
BITMAP
0255
0110
2877
6107
6007
6107
2877
ENDCHAR
STARTCHAR OE
ENCODING 338
SWIDTH 775 0
DWIDTH 7 0
BBX 7 6 0 0
BITMAP
197A7720
52070000
52087600
52070000
52070000
197A7720
ENDCHAR
STARTCHAR oe
ENCODING 339
SWIDTH 812 0
DWIDTH 7 0
BBX 7 5 0 0
BITMAP
28787760
61080070
60086660
61080000
28787740
ENDCHAR
STARTCHAR Racute
ENCODING 340
SWIDTH 534 0
DWIDTH 5 0
BBX 5 8 0 0
BITMAP
007100
000000
397900
430520
430520
487800
430700
330620
ENDCHAR
STARTCHAR racute
ENCODING 341
SWIDTH 313 0
DWIDTH 3 0
BBX 3 7 0 0
BITMAP
0620
0200
5840
5300
5200
5200
5200
ENDCHAR
STARTCHAR uni0156
ENCODING 342
SWIDTH 534 0
DWIDTH 5 0
BBX 5 8 0 -2
BITMAP
397900
430520
430520
487800
430700
330620
007000
004000
ENDCHAR
STARTCHAR uni0157
ENCODING 343
SWIDTH 313 0
DWIDTH 3 0
BBX 3 7 0 -2
BITMAP
5840
5300
5200
5200
5200
5200
4000
ENDCHAR
STARTCHAR Rcaron
ENCODING 344
SWIDTH 534 0
DWIDTH 5 0
BBX 5 8 0 0
BITMAP
047000
000000
397900
430520
430520
487800
430700
330620
ENDCHAR
STARTCHAR rcaron
ENCODING 345
SWIDTH 313 0
DWIDTH 3 0
BBX 3 7 0 0
BITMAP
2630
0300
5840
5300
5200
5200
5200
ENDCHAR
STARTCHAR Sacute
ENCODING 346
SWIDTH 562 0
DWIDTH 5 0
BBX 5 8 0 0
BITMAP
005200
000000
197910
430230
183000
003820
320250
197920
ENDCHAR
STARTCHAR sacute
ENCODING 347
SWIDTH 427 0
DWIDTH 4 0
BBX 4 7 0 0
BITMAP
0160
0200
5771
6200
0671
0025
3683
ENDCHAR
STARTCHAR Scircumflex
ENCODING 348
SWIDTH 562 0
DWIDTH 5 0
BBX 5 8 0 0
BITMAP
017200
000000
197910
430230
183000
003820
320250
197920
ENDCHAR
STARTCHAR scircumflex
ENCODING 349
SWIDTH 427 0
DWIDTH 4 0
BBX 4 7 0 0
BITMAP
0650
0220
5771
6200
0671
0025
3683
ENDCHAR
STARTCHAR uni015E
ENCODING 350
SWIDTH 562 0
DWIDTH 5 0
BBX 5 8 0 -2
BITMAP
197910
430230
183000
003820
320250
197920
006100
004100
ENDCHAR
STARTCHAR uni015F
ENCODING 351
SWIDTH 427 0
DWIDTH 4 0
BBX 4 7 0 -2
BITMAP
5871
6100
0671
0025
3683
0440
0230
ENDCHAR
STARTCHAR Scaron
ENCODING 352
SWIDTH 562 0
DWIDTH 5 0
BBX 5 8 0 0
BITMAP
027200
000000
197910
430230
183000
003820
320250
197920
ENDCHAR
STARTCHAR scaron
ENCODING 353
SWIDTH 427 0
DWIDTH 4 0
BBX 4 7 0 0
BITMAP
0650
0210
5771
6200
0671
0025
3683
ENDCHAR
STARTCHAR uni0162
ENCODING 354
SWIDTH 420 0
DWIDTH 4 0
BBX 4 9 0 -3
BITMAP
6A84
0520
0520
0520
0520
0520
0310
0510
0100
ENDCHAR
STARTCHAR uni0163
ENCODING 355
SWIDTH 347 0
DWIDTH 3 0
BBX 3 9 0 -3
BITMAP
1600
6A40
1600
1600
1600
0850
0310
0500
0100
ENDCHAR
STARTCHAR Tcaron
ENCODING 356
SWIDTH 420 0
DWIDTH 4 0
BBX 4 8 0 0
BITMAP
0650
0000
6A84
0520
0520
0520
0520
0520
ENDCHAR
STARTCHAR tcaron
ENCODING 357
SWIDTH 396 0
DWIDTH 4 0
BBX 4 6 0 0
BITMAP
1507
6A45
1601
1600
1600
0850
ENDCHAR
STARTCHAR Tbar
ENCODING 358
SWIDTH 501 0
DWIDTH 5 0
BBX 4 6 0 0
BITMAP
5984
0420
2982
0420
0420
0420
ENDCHAR
STARTCHAR tbar
ENCODING 359
SWIDTH 350 0
DWIDTH 3 0
BBX 3 6 0 0
BITMAP
0600
5A40
0600
5A40
0600
0850
ENDCHAR
STARTCHAR Utilde
ENCODING 360
SWIDTH 552 0
DWIDTH 5 0
BBX 5 8 0 0
BITMAP
022100
000000
420340
430340
430340
430340
430340
197910
ENDCHAR
STARTCHAR utilde
ENCODING 361
SWIDTH 507 0
DWIDTH 5 0
BBX 4 7 0 0
BITMAP
0462
0422
6107
6107
6107
5207
287A
ENDCHAR
STARTCHAR Umacron
ENCODING 362
SWIDTH 552 0
DWIDTH 5 0
BBX 5 8 0 0
BITMAP
036300
000000
420340
430340
430340
430340
430340
197910
ENDCHAR
STARTCHAR umacron
ENCODING 363
SWIDTH 507 0
DWIDTH 5 0
BBX 4 6 0 0
BITMAP
0461
6107
6107
6107
5207
287A
ENDCHAR
STARTCHAR Ubreve
ENCODING 364
SWIDTH 552 0
DWIDTH 5 0
BBX 5 9 0 0
BITMAP
030300
026200
000000
420340
430340
430340
430340
430340
197910
ENDCHAR
STARTCHAR ubreve
ENCODING 365
SWIDTH 507 0
DWIDTH 5 0
BBX 4 7 0 0
BITMAP
0532
0350
6107
6107
6107
5207
287A
ENDCHAR
STARTCHAR Uring
ENCODING 366
SWIDTH 552 0
DWIDTH 5 0
BBX 5 9 0 0
BITMAP
015100
033300
003000
420340
430340
430340
430340
430340
197910
ENDCHAR
STARTCHAR uring
ENCODING 367
SWIDTH 507 0
DWIDTH 5 0
BBX 4 8 0 0
BITMAP
0340
0440
0340
6107
6107
6107
5207
287A
ENDCHAR
STARTCHAR Uhungarumlaut
ENCODING 368
SWIDTH 552 0
DWIDTH 5 0
BBX 5 8 0 0
BITMAP
016600
011100
420340
430340
430340
430340
430340
197910
ENDCHAR
STARTCHAR uhungarumlaut
ENCODING 369
SWIDTH 507 0
DWIDTH 5 0
BBX 4 7 0 0
BITMAP
0255
0110
6107
6107
6107
5207
287A
ENDCHAR
STARTCHAR Uogonek
ENCODING 370
SWIDTH 552 0
DWIDTH 5 0
BBX 5 7 0 -1
BITMAP
420340
430340
430340
430340
430340
197910
005000
ENDCHAR
STARTCHAR uogonek
ENCODING 371
SWIDTH 503 0
DWIDTH 5 0
BBX 4 6 0 -1
BITMAP
6107
6107
6107
5207
287A
0015
ENDCHAR
STARTCHAR Wcircumflex
ENCODING 372
SWIDTH 795 0
DWIDTH 7 0
BBX 7 8 0 0
BITMAP
00172000
00000000
700B0070
61183070
34526250
07606520
07606700
07503900
ENDCHAR
STARTCHAR wcircumflex
ENCODING 373
SWIDTH 682 0
DWIDTH 6 0
BBX 6 7 0 0
BITMAP
005600
002200
704607
616607
346625
075481
0920B0
ENDCHAR
STARTCHAR Ycircumflex
ENCODING 374
SWIDTH 493 0
DWIDTH 4 0
BBX 5 8 0 0
BITMAP
046000
000000
700710
261700
076100
028000
007000
006000
ENDCHAR
STARTCHAR ycircumflex
ENCODING 375
SWIDTH 459 0
DWIDTH 4 0
BBX 4 8 0 -1
BITMAP
0460
0220
7007
4316
0761
0770
0360
4810
ENDCHAR
STARTCHAR Ydieresis
ENCODING 376
SWIDTH 493 0
DWIDTH 4 0
BBX 5 8 0 0
BITMAP
074300
011000
700710
261700
076100
028000
007000
006000
ENDCHAR
STARTCHAR Zacute
ENCODING 377
SWIDTH 482 0
DWIDTH 4 0
BBX 4 8 0 0
BITMAP
0061
0000
477A
0044
0080
0620
1700
8877
ENDCHAR
STARTCHAR zacute
ENCODING 378
SWIDTH 405 0
DWIDTH 4 0
BBX 4 7 0 0
BITMAP
0080
0110
47A3
0080
0620
1700
8772
ENDCHAR
STARTCHAR Zdotaccent
ENCODING 379
SWIDTH 482 0
DWIDTH 4 0
BBX 4 8 0 0
BITMAP
0070
0010
477A
0044
0080
0620
1700
8877
ENDCHAR
STARTCHAR zdotaccent
ENCODING 380
SWIDTH 405 0
DWIDTH 4 0
BBX 4 7 0 0
BITMAP
0330
0110
47A3
0080
0620
1700
8772
ENDCHAR
STARTCHAR Zcaron
ENCODING 381
SWIDTH 482 0
DWIDTH 4 0
BBX 4 8 0 0
BITMAP
0370
0000
477A
0044
0080
0620
1700
8877
ENDCHAR
STARTCHAR zcaron
ENCODING 382
SWIDTH 405 0
DWIDTH 4 0
BBX 4 7 0 0
BITMAP
0660
0120
47A3
0080
0620
1700
8772
ENDCHAR
STARTCHAR florin
ENCODING 402
SWIDTH 494 0
DWIDTH 4 0
BBX 5 8 0 -1
BITMAP
002820
006000
007000
05B500
016000
043000
070000
670000
ENDCHAR
STARTCHAR AEacute
ENCODING 508
SWIDTH 773 0
DWIDTH 7 0
BBX 7 8 0 0
BITMAP
00025000
00000000
002D7720
00870000
03687710
09070000
4A7A0000
80087720
ENDCHAR
STARTCHAR aeacute
ENCODING 509
SWIDTH 795 0
DWIDTH 7 0
BBX 7 7 0 0
BITMAP
00026000
00020000
06787740
00080060
11086650
60080000
38787740
ENDCHAR
STARTCHAR Oslashacute
ENCODING 510
SWIDTH 558 0
DWIDTH 5 0
BBX 5 8 0 0
BITMAP
005200
000000
197840
520750
524450
544250
580250
487920
ENDCHAR
STARTCHAR oslashacute
ENCODING 511
SWIDTH 521 0
DWIDTH 5 0
BBX 5 7 0 0
BITMAP
005300
002000
197820
421B00
536700
580700
587800
ENDCHAR
STARTCHAR uni0218
ENCODING 536
SWIDTH 562 0
DWIDTH 5 0
BBX 5 8 0 -2
BITMAP
197910
430230
183000
003820
320250
197920
007000
004000
ENDCHAR
STARTCHAR uni0219
ENCODING 537
SWIDTH 427 0
DWIDTH 4 0
BBX 4 8 0 -3
BITMAP
5771
6200
0671
0025
3683
0120
0320
0100
ENDCHAR
STARTCHAR circumflex
ENCODING 710
SWIDTH 326 0
DWIDTH 3 0
BBX 3 2 0 5
BITMAP
1900
2120
ENDCHAR
STARTCHAR caron
ENCODING 711
SWIDTH 326 0
DWIDTH 3 0
BBX 3 2 0 5
BITMAP
3620
0400
ENDCHAR
STARTCHAR uni02C9
ENCODING 713
SWIDTH 358 0
DWIDTH 3 0
BBX 3 1 0 5
BITMAP
2630
ENDCHAR
STARTCHAR breve
ENCODING 728
SWIDTH 332 0
DWIDTH 3 0
BBX 3 2 0 5
BITMAP
5040
1610
ENDCHAR
STARTCHAR dotaccent
ENCODING 729
SWIDTH 183 0
DWIDTH 2 0
BBX 2 2 0 5
BITMAP
61
10
ENDCHAR
STARTCHAR ring
ENCODING 730
SWIDTH 297 0
DWIDTH 3 0
BBX 2 2 0 5
BITMAP
34
34
ENDCHAR
STARTCHAR ogonek
ENCODING 731
SWIDTH 243 0
DWIDTH 2 0
BBX 2 2 0 -1
BITMAP
02
33
ENDCHAR
STARTCHAR tilde
ENCODING 732
SWIDTH 369 0
DWIDTH 3 0
BBX 3 2 0 5
BITMAP
4440
2330
ENDCHAR
STARTCHAR hungarumlaut
ENCODING 733
SWIDTH 377 0
DWIDTH 3 0
BBX 3 2 0 5
BITMAP
1660
1100
ENDCHAR
STARTCHAR Mu
ENCODING 924
SWIDTH 527 0
DWIDTH 5 0
BBX 4 7 0 -2
BITMAP
4306
4307
4307
4307
496A
4300
2100
ENDCHAR
STARTCHAR Pi
ENCODING 928
SWIDTH 605 0
DWIDTH 5 0
BBX 6 6 0 0
BITMAP
4B7A81
070520
070520
070520
070520
060520
ENDCHAR
STARTCHAR Sigma
ENCODING 931
SWIDTH 481 0
DWIDTH 4 0
BBX 4 6 0 0
BITMAP
5975
0800
0350
0350
0700
5976
ENDCHAR
STARTCHAR uni0901
ENCODING 2305
SWIDTH 0 0
DWIDTH 0 0
BBX 4 2 -3 6
BITMAP
3222
2772
ENDCHAR
STARTCHAR uni0902
ENCODING 2306
SWIDTH 0 0
DWIDTH 0 0
BBX 2 1 -2 7
BITMAP
31
ENDCHAR
STARTCHAR uni0903
ENCODING 2307
SWIDTH 247 0
DWIDTH 2 0
BBX 2 4 0 0
BITMAP
13
00
00
13
ENDCHAR
STARTCHAR uni0905
ENCODING 2309
SWIDTH 598 0
DWIDTH 5 0
BBX 6 6 0 0
BITMAP
267093
007060
176060
008670
007060
476060
ENDCHAR
STARTCHAR uni0906
ENCODING 2310
SWIDTH 828 0
DWIDTH 7 0
BBX 8 6 0 0
BITMAP
267096A3
00706070
17606070
00867070
00706070
47606060
ENDCHAR
STARTCHAR uni0907
ENCODING 2311
SWIDTH 478 0
DWIDTH 4 0
BBX 6 6 -1 0
BITMAP
1666A2
017650
052000
017740
051070
067760
ENDCHAR
STARTCHAR uni0908
ENCODING 2312
SWIDTH 478 0
DWIDTH 4 0
BBX 6 8 -1 0
BITMAP
000670
000600
1666A2
017650
052000
017740
051070
067760
ENDCHAR
STARTCHAR uni0909
ENCODING 2313
SWIDTH 471 0
DWIDTH 4 0
BBX 6 6 -1 0
BITMAP
1667A2
000070
002940
020070
070070
037740
ENDCHAR
STARTCHAR uni090A
ENCODING 2314
SWIDTH 661 0
DWIDTH 6 0
BBX 7 6 -1 0
BITMAP
16679660
00007000
00297000
00007730
05007070
04775660
ENDCHAR
STARTCHAR uni090B
ENCODING 2315
SWIDTH 753 0
DWIDTH 7 0
BBX 8 6 -1 0
BITMAP
1666A665
00007000
02767481
0301A581
00287700
02706471
ENDCHAR
STARTCHAR uni090C
ENCODING 2316
SWIDTH 676 0
DWIDTH 6 0
BBX 8 8 -1 -2
BITMAP
16666891
00000340
01766840
05243340
05121340
02830740
00004300
00001771
ENDCHAR
STARTCHAR uni090D
ENCODING 2317
SWIDTH 521 0
DWIDTH 5 0
BBX 6 8 -1 0
BITMAP
006060
005650
188696
034052
034061
034460
024000
008750
ENDCHAR
STARTCHAR uni090E
ENCODING 2318
SWIDTH 522 0
DWIDTH 5 0
BBX 6 8 -1 0
BITMAP
002600
000270
188696
034052
034061
034460
024000
008750
ENDCHAR
STARTCHAR uni090F
ENCODING 2319
SWIDTH 526 0
DWIDTH 5 0
BBX 6 6 -1 0
BITMAP
188696
034052
034061
034460
024000
008750
ENDCHAR
STARTCHAR uni0910
ENCODING 2320
SWIDTH 526 0
DWIDTH 5 0
BBX 6 8 -1 0
BITMAP
000610
000060
188696
034052
034061
034460
024000
008750
ENDCHAR
STARTCHAR uni0911
ENCODING 2321
SWIDTH 829 0
DWIDTH 7 0
BBX 8 8 0 0
BITMAP
00004040
00006650
267096A3
00706070
17606070
00867070
00706070
47606060
ENDCHAR
STARTCHAR uni0912
ENCODING 2322
SWIDTH 828 0
DWIDTH 7 0
BBX 8 8 0 0
BITMAP
00007100
00000550
267096A3
00706070
17606070
00867070
00706070
47606060
ENDCHAR
STARTCHAR uni0913
ENCODING 2323
SWIDTH 829 0
DWIDTH 7 0
BBX 8 8 0 0
BITMAP
00001600
00000340
267096A3
00706070
17606070
00867070
00706070
47606060
ENDCHAR
STARTCHAR uni0914
ENCODING 2324
SWIDTH 829 0
DWIDTH 7 0
BBX 8 8 0 0
BITMAP
00002560
00000470
267096A3
00706070
17606070
00867070
00706070
47606060
ENDCHAR
STARTCHAR uni0915
ENCODING 2325
SWIDTH 725 0
DWIDTH 7 0
BBX 8 6 -1 0
BITMAP
1666A664
01729750
06107070
06107070
01767550
00006000
ENDCHAR
STARTCHAR uni0916
ENCODING 2326
SWIDTH 696 0
DWIDTH 6 0
BBX 8 6 -1 0
BITMAP
167966A2
00246260
00355060
06725160
02606660
00430060
ENDCHAR
STARTCHAR uni0917
ENCODING 2327
SWIDTH 494 0
DWIDTH 4 0
BBX 6 6 -1 0
BITMAP
16A6A3
007070
007070
063070
000070
000060
ENDCHAR
STARTCHAR uni0918
ENCODING 2328
SWIDTH 559 0
DWIDTH 5 0
BBX 7 6 -1 0
BITMAP
18979810
05204300
01934300
05204300
05205300
01768300
ENDCHAR
STARTCHAR uni0919
ENCODING 2329
SWIDTH 505 0
DWIDTH 5 0
BBX 6 6 -1 0
BITMAP
1666A4
017750
052022
017740
020070
037660
ENDCHAR
STARTCHAR uni091A
ENCODING 2330
SWIDTH 563 0
DWIDTH 5 0
BBX 7 6 -1 0
BITMAP
16668810
00003400
05963400
00704400
00678400
00003400
ENDCHAR
STARTCHAR uni091B
ENCODING 2331
SWIDTH 581 0
DWIDTH 5 0
BBX 7 6 -1 0
BITMAP
17967920
04202500
04207500
01920700
04200700
02867400
ENDCHAR
STARTCHAR uni091C
ENCODING 2332
SWIDTH 547 0
DWIDTH 5 0
BBX 6 6 -1 0
BITMAP
166697
000051
0287A1
000751
000751
057251
ENDCHAR
STARTCHAR uni091D
ENCODING 2333
SWIDTH 664 0
DWIDTH 6 0
BBX 7 6 -1 0
BITMAP
16698970
01781420
05200420
01788920
06106420
06773420
ENDCHAR
STARTCHAR uni091E
ENCODING 2334
SWIDTH 592 0
DWIDTH 5 0
BBX 7 6 -1 0
BITMAP
16666A30
03720700
00060700
00096700
04740700
00000700
ENDCHAR
STARTCHAR uni091F
ENCODING 2335
SWIDTH 485 0
DWIDTH 4 0
BBX 6 6 -1 0
BITMAP
1666A3
000060
017640
051000
061050
028770
ENDCHAR
STARTCHAR uni0920
ENCODING 2336
SWIDTH 512 0
DWIDTH 5 0
BBX 6 6 -1 0
BITMAP
1666A4
000070
017860
061070
061070
028770
ENDCHAR
STARTCHAR uni0921
ENCODING 2337
SWIDTH 475 0
DWIDTH 4 0
BBX 6 6 -1 0
BITMAP
1666A2
017750
052000
017640
020070
037660
ENDCHAR
STARTCHAR uni0922
ENCODING 2338
SWIDTH 485 0
DWIDTH 4 0
BBX 6 6 -1 0
BITMAP
1666A3
000070
017650
052560
061460
028670
ENDCHAR
STARTCHAR uni0923
ENCODING 2339
SWIDTH 681 0
DWIDTH 6 0
BBX 8 6 -1 0
BITMAP
19879791
04215250
04215250
03324250
00770250
00000250
ENDCHAR
STARTCHAR uni0924
ENCODING 2340
SWIDTH 496 0
DWIDTH 4 0
BBX 6 6 -1 0
BITMAP
1666A3
000070
017780
061070
061070
038160
ENDCHAR
STARTCHAR uni0925
ENCODING 2341
SWIDTH 593 0
DWIDTH 5 0
BBX 6 6 0 0
BITMAP
188093
117070
566070
610070
177670
000060
ENDCHAR
STARTCHAR uni0926
ENCODING 2342
SWIDTH 489 0
DWIDTH 4 0
BBX 6 6 -1 0
BITMAP
1666A3
017760
052000
052030
017680
000060
ENDCHAR
STARTCHAR uni0927
ENCODING 2343
SWIDTH 560 0
DWIDTH 5 0
BBX 7 6 -1 0
BITMAP
18918810
05203300
01A33300
05203300
04205300
00768300
ENDCHAR
STARTCHAR uni0928
ENCODING 2344
SWIDTH 473 0
DWIDTH 4 0
BBX 6 6 -1 0
BITMAP
1666A2
000060
047660
060060
000060
000060
ENDCHAR
STARTCHAR uni0928093C
ENCODING 2345
SWIDTH 473 0
DWIDTH 4 0
BBX 6 6 -1 0
BITMAP
1666A2
000060
046660
050060
000060
003060
ENDCHAR
STARTCHAR uni092A
ENCODING 2346
SWIDTH 503 0
DWIDTH 5 0
BBX 6 6 -1 0
BITMAP
1986A4
043060
043060
033080
007780
000060
ENDCHAR
STARTCHAR uni092B
ENCODING 2347
SWIDTH 739 0
DWIDTH 7 0
BBX 8 6 -1 0
BITMAP
1986A665
04309760
04307061
02308061
00117560
00006000
ENDCHAR
STARTCHAR uni092C
ENCODING 2348
SWIDTH 491 0
DWIDTH 4 0
BBX 6 6 -1 0
BITMAP
1666A3
017370
066170
061570
017670
000060
ENDCHAR
STARTCHAR uni092D
ENCODING 2349
SWIDTH 491 0
DWIDTH 4 0
BBX 6 6 -1 0
BITMAP
1814A3
042070
048680
042070
000070
000060
ENDCHAR
STARTCHAR uni092E
ENCODING 2350
SWIDTH 490 0
DWIDTH 4 0
BBX 6 6 -1 0
BITMAP
1976A3
042060
048670
042060
000060
000060
ENDCHAR
STARTCHAR uni092F
ENCODING 2351
SWIDTH 564 0
DWIDTH 5 0
BBX 7 6 -1 0
BITMAP
16888810
00153400
04713400
05204400
01768400
00003400
ENDCHAR
STARTCHAR uni0930
ENCODING 2352
SWIDTH 337 0
DWIDTH 3 0
BBX 5 6 -1 0
BITMAP
167910
002400
003400
077000
025000
005300
ENDCHAR
STARTCHAR uni0930093C
ENCODING 2353
SWIDTH 347 0
DWIDTH 3 0
BBX 5 7 -1 -1
BITMAP
167A10
001600
002500
067100
016000
004200
030000
ENDCHAR
STARTCHAR uni0932
ENCODING 2354
SWIDTH 676 0
DWIDTH 6 0
BBX 8 6 -1 0
BITMAP
16666891
00756840
05253340
05142340
05100340
02830240
ENDCHAR
STARTCHAR uni0933
ENCODING 2355
SWIDTH 672 0
DWIDTH 6 0
BBX 8 6 -1 0
BITMAP
16667961
00001500
01768810
05144150
06133060
02888830
ENDCHAR
STARTCHAR uni0933093C
ENCODING 2356
SWIDTH 672 0
DWIDTH 6 0
BBX 8 7 -1 -1
BITMAP
16667961
00001500
01768810
05144150
06133060
02888830
00310000
ENDCHAR
STARTCHAR uni0935
ENCODING 2357
SWIDTH 484 0
DWIDTH 4 0
BBX 6 6 -1 0
BITMAP
1666A3
017360
061060
061070
017770
000060
ENDCHAR
STARTCHAR uni0936
ENCODING 2358
SWIDTH 614 0
DWIDTH 6 0
BBX 6 6 0 0
BITMAP
288084
516070
007070
675070
160070
043060
ENDCHAR
STARTCHAR uni0937
ENCODING 2359
SWIDTH 505 0
DWIDTH 5 0
BBX 6 6 -1 0
BITMAP
1996A4
048160
043660
033190
007780
000060
ENDCHAR
STARTCHAR uni0938
ENCODING 2360
SWIDTH 575 0
DWIDTH 5 0
BBX 7 6 -1 0
BITMAP
16977920
00521500
00611500
07978500
03501500
00611500
ENDCHAR
STARTCHAR uni0939
ENCODING 2361
SWIDTH 481 0
DWIDTH 4 0
BBX 6 7 -1 -1
BITMAP
1666A3
017650
043000
01A740
043060
042000
006630
ENDCHAR
STARTCHAR uni093C
ENCODING 2364
SWIDTH 0 0
DWIDTH 0 0
BBX 1 1 -2 -1
BITMAP
30
ENDCHAR
STARTCHAR uni093D
ENCODING 2365
SWIDTH 529 0
DWIDTH 5 0
BBX 4 6 0 0
BITMAP
0863
0700
0481
0019
1107
0768
ENDCHAR
STARTCHAR uni093E
ENCODING 2366
SWIDTH 231 0
DWIDTH 2 0
BBX 3 6 0 0
BITMAP
8910
3400
3400
3400
3400
2400
ENDCHAR
STARTCHAR uni093F
ENCODING 2367
SWIDTH 231 0
DWIDTH 2 0
BBX 6 8 0 0
BITMAP
197776
340003
891000
340000
340000
340000
340000
240000
ENDCHAR
STARTCHAR uni0940
ENCODING 2368
SWIDTH 231 0
DWIDTH 2 0
BBX 5 8 -2 0
BITMAP
289200
213400
008910
003400
003400
003400
003400
002400
ENDCHAR
STARTCHAR uni0941
ENCODING 2369
SWIDTH 0 0
DWIDTH 0 0
BBX 4 3 -3 -2
BITMAP
0161
6024
4681
ENDCHAR
STARTCHAR uni0942
ENCODING 2370
SWIDTH 0 0
DWIDTH 0 0
BBX 4 3 -3 -2
BITMAP
1761
5216
2716
ENDCHAR
STARTCHAR uni0943
ENCODING 2371
SWIDTH 0 0
DWIDTH 0 0
BBX 4 3 -3 -2
BITMAP
2610
6000
3771
ENDCHAR
STARTCHAR uni0945
ENCODING 2373
SWIDTH 0 0
DWIDTH 0 0
BBX 4 2 -3 6
BITMAP
4013
2771
ENDCHAR
STARTCHAR uni0946
ENCODING 2374
SWIDTH 0 0
DWIDTH 0 0
BBX 4 3 -4 5
BITMAP
1700
0271
0011
ENDCHAR
STARTCHAR uni0947
ENCODING 2375
SWIDTH 0 0
DWIDTH 0 0
BBX 3 3 -3 5
BITMAP
6200
0700
0010
ENDCHAR
STARTCHAR uni0948
ENCODING 2376
SWIDTH 0 0
DWIDTH 0 0
BBX 3 3 -3 5
BITMAP
6520
0830
0110
ENDCHAR
STARTCHAR uni0949
ENCODING 2377
SWIDTH 231 0
DWIDTH 2 0
BBX 4 8 -1 0
BITMAP
3104
1772
0891
0340
0340
0340
0340
0240
ENDCHAR
STARTCHAR uni094A
ENCODING 2378
SWIDTH 231 0
DWIDTH 2 0
BBX 4 8 -1 0
BITMAP
7000
1710
0891
0340
0340
0340
0340
0240
ENDCHAR
STARTCHAR uni094B
ENCODING 2379
SWIDTH 231 0
DWIDTH 2 0
BBX 4 8 -1 0
BITMAP
5200
0610
0891
0340
0340
0340
0340
0240
ENDCHAR
STARTCHAR uni094C
ENCODING 2380
SWIDTH 231 0
DWIDTH 2 0
BBX 4 8 -1 0
BITMAP
5440
0640
0891
0340
0340
0340
0340
0240
ENDCHAR
STARTCHAR uni094D
ENCODING 2381
SWIDTH 0 0
DWIDTH 0 0
BBX 2 2 -2 -2
BITMAP
12
07
ENDCHAR
STARTCHAR uni0950
ENCODING 2384
SWIDTH 847 0
DWIDTH 8 0
BBX 7 8 0 0
BITMAP
00003000
00000040
05822620
00160000
00242650
00587070
70166060
37824780
ENDCHAR
STARTCHAR uni0951
ENCODING 2385
SWIDTH 0 0
DWIDTH 0 0
BBX 2 2 -2 6
BITMAP
42
32
ENDCHAR
STARTCHAR uni0952
ENCODING 2386
SWIDTH 0 0
DWIDTH 0 0
BBX 4 1 -4 -1
BITMAP
4661
ENDCHAR
STARTCHAR uni0953
ENCODING 2387
SWIDTH 0 0
DWIDTH 0 0
BBX 2 2 -3 6
BITMAP
25
06
ENDCHAR
STARTCHAR uni0954
ENCODING 2388
SWIDTH 0 0
DWIDTH 0 0
BBX 3 2 -2 6
BITMAP
0610
1600
ENDCHAR
STARTCHAR uni0915093C
ENCODING 2392
SWIDTH 725 0
DWIDTH 7 0
BBX 8 7 -1 -1
BITMAP
1666A664
01729750
06107070
06107070
01767550
00006000
00300000
ENDCHAR
STARTCHAR uni0916093C
ENCODING 2393
SWIDTH 696 0
DWIDTH 6 0
BBX 8 7 -1 -1
BITMAP
167966A2
00246260
00355060
06725160
02606660
00430060
03000000
ENDCHAR
STARTCHAR uni0917093C
ENCODING 2394
SWIDTH 494 0
DWIDTH 4 0
BBX 6 7 -1 -1
BITMAP
16A6A3
007070
007070
063070
000070
000060
013000
ENDCHAR
STARTCHAR uni091C093C
ENCODING 2395
SWIDTH 547 0
DWIDTH 5 0
BBX 6 7 -1 -1
BITMAP
166697
000051
0287A1
000751
000751
057251
022000
ENDCHAR
STARTCHAR uni0921093C
ENCODING 2396
SWIDTH 475 0
DWIDTH 4 0
BBX 6 7 -1 -1
BITMAP
1666A2
017750
052000
017640
020070
037660
000300
ENDCHAR
STARTCHAR uni0922093C
ENCODING 2397
SWIDTH 485 0
DWIDTH 4 0
BBX 6 7 -1 -1
BITMAP
1666A3
000070
017650
052560
061460
028670
000400
ENDCHAR
STARTCHAR uni092B093C
ENCODING 2398
SWIDTH 739 0
DWIDTH 7 0
BBX 8 7 -1 -1
BITMAP
1986A665
04309760
04307061
02308061
00117560
00006000
00300000
ENDCHAR
STARTCHAR uni092F093C
ENCODING 2399
SWIDTH 564 0
DWIDTH 5 0
BBX 7 7 -1 -1
BITMAP
16888810
00153400
04713400
05204400
01768400
00003400
00300000
ENDCHAR
STARTCHAR uni0960
ENCODING 2400
SWIDTH 753 0
DWIDTH 7 0
BBX 8 7 -1 -1
BITMAP
1666A665
00007000
02768381
0510B881
00198700
01816571
00000462
ENDCHAR
STARTCHAR uni0961
ENCODING 2401
SWIDTH 676 0
DWIDTH 6 0
BBX 8 8 -1 -2
BITMAP
16666891
00756840
05253340
05142340
05101830
02835200
00002920
00003730
ENDCHAR
STARTCHAR uni0964
ENCODING 2404
SWIDTH 286 0
DWIDTH 3 0
BBX 1 6 1 0
BITMAP
60
70
70
70
70
60
ENDCHAR
STARTCHAR uni0965
ENCODING 2405
SWIDTH 518 0
DWIDTH 5 0
BBX 3 6 1 0
BITMAP
6070
7070
7070
7070
7070
6070
ENDCHAR
STARTCHAR uni0966
ENCODING 2406
SWIDTH 519 0
DWIDTH 5 0
BBX 5 6 0 0
BITMAP
286800
610610
610610
610610
610610
286800
ENDCHAR
STARTCHAR uni0967
ENCODING 2407
SWIDTH 288 0
DWIDTH 3 0
BBX 2 6 0 0
BITMAP
59
17
07
07
07
06
ENDCHAR
STARTCHAR uni0968
ENCODING 2408
SWIDTH 453 0
DWIDTH 4 0
BBX 4 6 0 0
BITMAP
4765
5007
0035
0550
5300
7664
ENDCHAR
STARTCHAR uni0969
ENCODING 2409
SWIDTH 489 0
DWIDTH 4 0
BBX 4 6 0 0
BITMAP
4766
3007
0175
1006
7006
3765
ENDCHAR
STARTCHAR uni096A
ENCODING 2410
SWIDTH 453 0
DWIDTH 4 0
BBX 4 6 0 0
BITMAP
0085
0355
0725
5225
7779
0025
ENDCHAR
STARTCHAR uni096B
ENCODING 2411
SWIDTH 480 0
DWIDTH 4 0
BBX 4 6 0 0
BITMAP
6775
6100
6664
1007
4107
2867
ENDCHAR
STARTCHAR uni096C
ENCODING 2412
SWIDTH 495 0
DWIDTH 4 0
BBX 4 6 0 0
BITMAP
2864
6100
6775
6207
6107
2867
ENDCHAR
STARTCHAR uni096D
ENCODING 2413
SWIDTH 380 0
DWIDTH 3 0
BBX 4 6 0 0
BITMAP
5793
0070
0170
0520
0700
1600
ENDCHAR
STARTCHAR uni096E
ENCODING 2414
SWIDTH 523 0
DWIDTH 5 0
BBX 5 6 0 0
BITMAP
386800
520610
196800
520600
510610
276700
ENDCHAR
STARTCHAR uni096F
ENCODING 2415
SWIDTH 493 0
DWIDTH 4 0
BBX 4 6 0 0
BITMAP
4776
7007
7007
2769
0007
1666
ENDCHAR
STARTCHAR uni0970
ENCODING 2416
SWIDTH 391 0
DWIDTH 4 0
BBX 4 4 0 1
BITMAP
2660
7052
7052
2660
ENDCHAR
STARTCHAR uni0972
ENCODING 2418
SWIDTH 598 0
DWIDTH 5 0
BBX 6 8 0 0
BITMAP
000404
000664
267093
007060
176060
008670
007060
476060
ENDCHAR
STARTCHAR Wgrave
ENCODING 7808
SWIDTH 795 0
DWIDTH 7 0
BBX 7 8 0 0
BITMAP
00250000
00000000
700B0070
61183070
34526250
07606520
07606700
07503900
ENDCHAR
STARTCHAR wgrave
ENCODING 7809
SWIDTH 682 0
DWIDTH 6 0
BBX 6 7 0 0
BITMAP
008000
001100
704607
616607
346625
075481
0920B0
ENDCHAR
STARTCHAR Wacute
ENCODING 7810
SWIDTH 795 0
DWIDTH 7 0
BBX 7 8 0 0
BITMAP
00034000
00000000
700B0070
61183070
34526250
07606520
07606700
07503900
ENDCHAR
STARTCHAR wacute
ENCODING 7811
SWIDTH 682 0
DWIDTH 6 0
BBX 6 7 0 0
BITMAP
000700
000200
704607
616607
346625
075481
0920B0
ENDCHAR
STARTCHAR Wdieresis
ENCODING 7812
SWIDTH 795 0
DWIDTH 7 0
BBX 7 8 0 0
BITMAP
00617000
00101000
700B0070
61183070
34526250
07606520
07606700
07503900
ENDCHAR
STARTCHAR wdieresis
ENCODING 7813
SWIDTH 682 0
DWIDTH 6 0
BBX 6 7 0 0
BITMAP
007600
002100
704607
616607
346625
075481
0920B0
ENDCHAR
STARTCHAR uni1E9E
ENCODING 7838
SWIDTH 542 0
DWIDTH 5 0
BBX 5 6 0 0
BITMAP
197A10
430600
433810
430250
430250
425820
ENDCHAR
STARTCHAR Ygrave
ENCODING 7922
SWIDTH 493 0
DWIDTH 4 0
BBX 5 8 0 0
BITMAP
052000
000000
700710
261700
076100
028000
007000
006000
ENDCHAR
STARTCHAR ygrave
ENCODING 7923
SWIDTH 459 0
DWIDTH 4 0
BBX 4 8 0 -1
BITMAP
0710
0020
7007
4316
0761
0770
0360
4810
ENDCHAR
STARTCHAR uni200B
ENCODING 8203
SWIDTH 0 0
DWIDTH 0 0
BBX 1 1 0 0
BITMAP
00
ENDCHAR
STARTCHAR uni200C
ENCODING 8204
SWIDTH 0 0
DWIDTH 0 0
BBX 2 10 -1 -2
BITMAP
33
33
33
33
33
33
33
33
33
33
ENDCHAR
STARTCHAR uni200D
ENCODING 8205
SWIDTH 0 0
DWIDTH 0 0
BBX 2 11 -1 -2
BITMAP
11
88
99
44
33
33
33
33
33
33
33
ENDCHAR
STARTCHAR endash
ENCODING 8211
SWIDTH 408 0
DWIDTH 4 0
BBX 4 1 0 3
BITMAP
4662
ENDCHAR
STARTCHAR emdash
ENCODING 8212
SWIDTH 537 0
DWIDTH 5 0
BBX 5 1 0 3
BITMAP
466630
ENDCHAR
STARTCHAR quoteleft
ENCODING 8216
SWIDTH 179 0
DWIDTH 2 0
BBX 2 2 0 4
BITMAP
41
61
ENDCHAR
STARTCHAR quoteright
ENCODING 8217
SWIDTH 179 0
DWIDTH 2 0
BBX 2 2 0 4
BITMAP
61
50
ENDCHAR
STARTCHAR quotesinglbase
ENCODING 8218
SWIDTH 187 0
DWIDTH 2 0
BBX 2 3 0 -1
BITMAP
20
61
40
ENDCHAR
STARTCHAR quotedblleft
ENCODING 8220
SWIDTH 329 0
DWIDTH 3 0
BBX 3 2 0 4
BITMAP
4150
6260
ENDCHAR
STARTCHAR quotedblright
ENCODING 8221
SWIDTH 329 0
DWIDTH 3 0
BBX 3 2 0 4
BITMAP
6260
5130
ENDCHAR
STARTCHAR quotedblbase
ENCODING 8222
SWIDTH 337 0
DWIDTH 3 0
BBX 3 3 0 -1
BITMAP
2020
6160
3130
ENDCHAR
STARTCHAR dagger
ENCODING 8224
SWIDTH 427 0
DWIDTH 4 0
BBX 4 6 0 0
BITMAP
0420
3873
0420
0520
0410
0410
ENDCHAR
STARTCHAR daggerdbl
ENCODING 8225
SWIDTH 427 0
DWIDTH 4 0
BBX 4 6 0 0
BITMAP
0420
3873
0420
0420
3872
0420
ENDCHAR
STARTCHAR bullet
ENCODING 8226
SWIDTH 273 0
DWIDTH 2 0
BBX 2 2 0 2
BITMAP
16
29
ENDCHAR
STARTCHAR ellipsis
ENCODING 8230
SWIDTH 591 0
DWIDTH 5 0
BBX 5 2 0 0
BITMAP
213030
628070
ENDCHAR
STARTCHAR perthousand
ENCODING 8240
SWIDTH 1027 0
DWIDTH 9 0
BBX 9 6 0 0
BITMAP
5660500000
6065100000
3646000000
0034661650
0064265160
0152773670
ENDCHAR
STARTCHAR guilsinglleft
ENCODING 8249
SWIDTH 290 0
DWIDTH 3 0
BBX 2 4 0 0
BITMAP
05
43
16
01
ENDCHAR
STARTCHAR guilsinglright
ENCODING 8250
SWIDTH 290 0
DWIDTH 3 0
BBX 2 4 0 0
BITMAP
32
07
25
10
ENDCHAR
STARTCHAR fraction
ENCODING 8260
SWIDTH 117 0
DWIDTH 1 0
BBX 5 6 -2 0
BITMAP
000150
000600
004200
025000
060000
510000
ENDCHAR
STARTCHAR Euro
ENCODING 8364
SWIDTH 523 0
DWIDTH 5 0
BBX 5 6 0 0
BITMAP
087800
070410
4A5000
4A5000
070410
087800
ENDCHAR
STARTCHAR uni20B9
ENCODING 8377
SWIDTH 414 0
DWIDTH 4 0
BBX 4 6 0 0
BITMAP
4892
46A2
0160
6710
2600
0440
ENDCHAR
STARTCHAR trademark
ENCODING 8482
SWIDTH 591 0
DWIDTH 5 0
BBX 5 3 0 3
BITMAP
276380
044550
011010
ENDCHAR
STARTCHAR uni2126
ENCODING 8486
SWIDTH 629 0
DWIDTH 6 0
BBX 6 6 0 0
BITMAP
097760
250070
250070
250070
250070
4B36A2
ENDCHAR
STARTCHAR partialdiff
ENCODING 8706
SWIDTH 481 0
DWIDTH 4 0
BBX 4 7 0 0
BITMAP
0520
0164
0007
1879
6108
7007
3876
ENDCHAR
STARTCHAR uni2206
ENCODING 8710
SWIDTH 594 0
DWIDTH 5 0
BBX 5 6 0 0
BITMAP
00A200
025600
070700
070430
340070
8777B0
ENDCHAR
STARTCHAR minus
ENCODING 8722
SWIDTH 523 0
DWIDTH 5 0
BBX 4 1 0 3
BITMAP
2777
ENDCHAR
STARTCHAR approxequal
ENCODING 8776
SWIDTH 523 0
DWIDTH 5 0
BBX 4 3 0 2
BITMAP
1555
0000
1555
ENDCHAR
STARTCHAR notequal
ENCODING 8800
SWIDTH 523 0
DWIDTH 5 0
BBX 4 5 0 1
BITMAP
0031
26A6
0060
2796
0400
ENDCHAR
STARTCHAR lessequal
ENCODING 8804
SWIDTH 523 0
DWIDTH 5 0
BBX 4 4 0 1
BITMAP
0266
3A40
0036
2666
ENDCHAR
STARTCHAR greaterequal
ENCODING 8805
SWIDTH 523 0
DWIDTH 5 0
BBX 4 4 0 1
BITMAP
2651
015A
2620
2666
ENDCHAR
STARTCHAR uni25CC
ENCODING 9676
SWIDTH 701 0
DWIDTH 6 0
BBX 6 6 0 0
BITMAP
004550
052043
260007
340000
070007
007770
ENDCHAR
STARTCHAR commaaccent
ENCODING 63171
SWIDTH 0 0
DWIDTH 0 0
BBX 2 2 1 -2
BITMAP
34
31
ENDCHAR
STARTCHAR .notdef
ENCODING -1
SWIDTH 600 0
DWIDTH 5 0
BBX 4 6 1 0
BITMAP
8773
7025
7025
7025
7025
8673
ENDCHAR
STARTCHAR .null
ENCODING -1
SWIDTH 0 0
DWIDTH 0 0
BBX 1 1 0 0
BITMAP
00
ENDCHAR
STARTCHAR nonmarkingreturn
ENCODING -1
SWIDTH 333 0
DWIDTH 3 0
BBX 1 1 0 0
BITMAP
00
ENDCHAR
STARTCHAR uni0915094D
ENCODING -1
SWIDTH 519 0
DWIDTH 5 0
BBX 7 6 -1 0
BITMAP
1666A650
0172A650
06107010
06107000
01767000
00006000
ENDCHAR
STARTCHAR uni0916094D
ENCODING -1
SWIDTH 468 0
DWIDTH 4 0
BBX 7 6 -1 0
BITMAP
16796610
00246200
00355000
06725000
02606610
00430000
ENDCHAR
STARTCHAR uni0917094D
ENCODING -1
SWIDTH 264 0
DWIDTH 2 0
BBX 4 4 -1 2
BITMAP
16A3
0070
0070
0630
ENDCHAR
STARTCHAR uni0918094D
ENCODING -1
SWIDTH 321 0
DWIDTH 3 0
BBX 5 6 -1 0
BITMAP
189760
052000
019300
052000
052020
017650
ENDCHAR
STARTCHAR uni0919094D
ENCODING -1
SWIDTH 505 0
DWIDTH 5 0
BBX 6 8 -1 -2
BITMAP
1666A4
017750
052022
017740
020070
037660
000300
000610
ENDCHAR
STARTCHAR uni091A094D
ENCODING -1
SWIDTH 330 0
DWIDTH 3 0
BBX 5 5 -1 1
BITMAP
166660
000000
059600
007000
006760
ENDCHAR
STARTCHAR uni091B094D
ENCODING -1
SWIDTH 581 0
DWIDTH 5 0
BBX 7 6 -1 0
BITMAP
17966620
04207300
04200700
01920600
04200600
02867400
ENDCHAR
STARTCHAR uni091C094D
ENCODING -1
SWIDTH 309 0
DWIDTH 3 0
BBX 5 6 -1 0
BITMAP
166640
000000
028750
000700
000700
057200
ENDCHAR
STARTCHAR uni091D094D
ENCODING -1
SWIDTH 432 0
DWIDTH 4 0
BBX 6 7 -1 -1
BITMAP
166985
017810
052000
017885
020060
067730
060000
ENDCHAR
STARTCHAR uni091E094D
ENCODING -1
SWIDTH 359 0
DWIDTH 3 0
BBX 6 5 -1 1
BITMAP
166661
037200
000600
000961
047400
ENDCHAR
STARTCHAR uni091F094D
ENCODING -1
SWIDTH 485 0
DWIDTH 4 0
BBX 6 8 -1 -2
BITMAP
1666A3
000060
017640
051000
061050
028770
000300
000520
ENDCHAR
STARTCHAR uni0920094D
ENCODING -1
SWIDTH 512 0
DWIDTH 5 0
BBX 6 8 -1 -2
BITMAP
1666A4
000070
017860
061070
061070
028770
000300
000610
ENDCHAR
STARTCHAR uni0921094D
ENCODING -1
SWIDTH 475 0
DWIDTH 4 0
BBX 6 8 -1 -2
BITMAP
1666A2
017750
052000
017640
020070
037660
000300
000520
ENDCHAR
STARTCHAR uni0922094D
ENCODING -1
SWIDTH 485 0
DWIDTH 4 0
BBX 6 8 -1 -2
BITMAP
1666A3
000070
017650
052560
061460
028670
000300
000610
ENDCHAR
STARTCHAR uni0923094D
ENCODING -1
SWIDTH 454 0
DWIDTH 4 0
BBX 6 5 -1 1
BITMAP
198791
042150
042150
033240
007700
ENDCHAR
STARTCHAR uni0924094D
ENCODING -1
SWIDTH 263 0
DWIDTH 2 0
BBX 5 6 -1 0
BITMAP
166620
000000
017720
061000
061000
038100
ENDCHAR
STARTCHAR uni0925094D
ENCODING -1
SWIDTH 359 0
DWIDTH 3 0
BBX 5 5 0 1
BITMAP
188000
117000
566000
610010
177710
ENDCHAR
STARTCHAR uni0926094D
ENCODING -1
SWIDTH 489 0
DWIDTH 4 0
BBX 6 8 -1 -2
BITMAP
1666A3
017760
052000
052030
017680
000060
000700
000210
ENDCHAR
STARTCHAR uni0927094D
ENCODING -1
SWIDTH 321 0
DWIDTH 3 0
BBX 5 6 -1 0
BITMAP
189260
052000
019300
052000
052020
017650
ENDCHAR
STARTCHAR uni0928094D
ENCODING -1
SWIDTH 233 0
DWIDTH 2 0
BBX 4 4 -1 2
BITMAP
1666
0000
0466
0500
ENDCHAR
STARTCHAR uni092A094D
ENCODING -1
SWIDTH 269 0
DWIDTH 2 0
BBX 5 5 -1 1
BITMAP
198630
043000
043000
033010
007720
ENDCHAR
STARTCHAR uni092B094D
ENCODING -1
SWIDTH 530 0
DWIDTH 5 0
BBX 7 6 -1 0
BITMAP
1986A660
04309750
04307020
03308000
00667000
00006000
ENDCHAR
STARTCHAR uni092C094D
ENCODING -1
SWIDTH 265 0
DWIDTH 2 0
BBX 5 5 -1 1
BITMAP
166630
017300
065100
061550
017620
ENDCHAR
STARTCHAR uni092D094D
ENCODING -1
SWIDTH 261 0
DWIDTH 2 0
BBX 5 5 -1 1
BITMAP
181420
042000
048620
042000
021000
ENDCHAR
STARTCHAR uni092E094D
ENCODING -1
SWIDTH 261 0
DWIDTH 2 0
BBX 5 5 -1 1
BITMAP
197620
042000
048620
042000
021000
ENDCHAR
STARTCHAR uni092F094D
ENCODING -1
SWIDTH 323 0
DWIDTH 3 0
BBX 5 5 -1 1
BITMAP
168850
001500
047100
052010
017650
ENDCHAR
STARTCHAR uni0930094D
ENCODING -1
SWIDTH 337 0
DWIDTH 3 0
BBX 5 8 -1 -2
BITMAP
167910
002400
003400
077000
025000
005300
004000
003400
ENDCHAR
STARTCHAR uni0932094D
ENCODING -1
SWIDTH 431 0
DWIDTH 4 0
BBX 6 6 -1 0
BITMAP
166666
000000
017666
052430
051210
028300
ENDCHAR
STARTCHAR uni0933094D
ENCODING -1
SWIDTH 677 0
DWIDTH 6 0
BBX 8 6 -1 0
BITMAP
16666661
00000000
01766710
05144160
06133060
02888830
ENDCHAR
STARTCHAR uni0935094D
ENCODING -1
SWIDTH 255 0
DWIDTH 2 0
BBX 5 5 -1 1
BITMAP
166630
017300
061000
061050
017720
ENDCHAR
STARTCHAR uni0936094D
ENCODING -1
SWIDTH 378 0
DWIDTH 3 0
BBX 3 6 0 0
BITMAP
2880
5160
0070
6750
1600
0430
ENDCHAR
STARTCHAR uni0937094D
ENCODING -1
SWIDTH 282 0
DWIDTH 3 0
BBX 5 5 -1 1
BITMAP
199640
048100
043600
033160
007720
ENDCHAR
STARTCHAR uni0938094D
ENCODING -1
SWIDTH 338 0
DWIDTH 3 0
BBX 5 6 -1 0
BITMAP
169760
005200
006100
079770
035000
006100
ENDCHAR
STARTCHAR uni0939094D
ENCODING -1
SWIDTH 457 0
DWIDTH 4 0
BBX 6 7 -1 -1
BITMAP
1666A2
017650
043000
019666
043000
042000
006630
ENDCHAR
STARTCHAR uni0915093C094D
ENCODING -1
SWIDTH 519 0
DWIDTH 5 0
BBX 7 7 -1 -1
BITMAP
1666A650
0172A650
06107010
06107000
01767000
00006000
00300000
ENDCHAR
STARTCHAR uni0916093C094D
ENCODING -1
SWIDTH 463 0
DWIDTH 4 0
BBX 7 7 -1 -1
BITMAP
16796610
00246200
00355000
06725000
02606610
00430000
03100000
ENDCHAR
STARTCHAR uni0917093C094D
ENCODING -1
SWIDTH 264 0
DWIDTH 2 0
BBX 4 6 -1 0
BITMAP
16A3
0070
0070
0630
0000
0130
ENDCHAR
STARTCHAR uni091C093C094D
ENCODING -1
SWIDTH 314 0
DWIDTH 3 0
BBX 5 7 -1 -1
BITMAP
166640
000000
028750
000700
000700
057200
012000
ENDCHAR
STARTCHAR uni0928093C094D
ENCODING -1
SWIDTH 241 0
DWIDTH 2 0
BBX 3 6 0 0
BITMAP
6660
0000
4660
5000
0000
0400
ENDCHAR
STARTCHAR uni092B093C094D
ENCODING -1
SWIDTH 530 0
DWIDTH 5 0
BBX 7 7 -1 -1
BITMAP
1986A660
04309750
04307020
03308000
00667000
00006000
00300000
ENDCHAR
STARTCHAR uni092F093C094D
ENCODING -1
SWIDTH 325 0
DWIDTH 3 0
BBX 5 7 -1 -1
BITMAP
168850
001500
047100
052010
017650
000000
003000
ENDCHAR
STARTCHAR uni09080902
ENCODING -1
SWIDTH 478 0
DWIDTH 4 0
BBX 6 8 -1 0
BITMAP
000670
000630
1666A2
017650
052000
017740
051070
067760
ENDCHAR
STARTCHAR uni09300941
ENCODING -1
SWIDTH 533 0
DWIDTH 5 0
BBX 6 6 -1 0
BITMAP
167965
002970
003333
067052
025270
004300
ENDCHAR
STARTCHAR uni09300942
ENCODING -1
SWIDTH 645 0
DWIDTH 6 0
BBX 7 6 -1 0
BITMAP
16796660
00246700
00346330
06714420
02504600
00431000
ENDCHAR
STARTCHAR uni09390941
ENCODING -1
SWIDTH 495 0
DWIDTH 4 0
BBX 6 8 -1 -2
BITMAP
1666A3
017650
043000
01A740
042060
017650
041060
017660
ENDCHAR
STARTCHAR uni09390942
ENCODING -1
SWIDTH 492 0
DWIDTH 4 0
BBX 6 8 -1 -2
BITMAP
1666A3
017650
043000
01A740
043060
01A620
024060
018240
ENDCHAR
STARTCHAR uni09260943
ENCODING -1
SWIDTH 390 0
DWIDTH 4 0
BBX 5 6 -1 0
BITMAP
166A40
000700
027700
029300
042000
028700
ENDCHAR
STARTCHAR uni09390943
ENCODING -1
SWIDTH 519 0
DWIDTH 5 0
BBX 6 8 -1 -2
BITMAP
1666A5
017650
052000
019871
051612
060860
051000
017630
ENDCHAR
STARTCHAR uni094D0930
ENCODING -1
SWIDTH 0 0
DWIDTH 0 0
BBX 3 2 -4 -2
BITMAP
0940
6270
ENDCHAR
STARTCHAR uni0930094D.1
ENCODING -1
SWIDTH 192 0
DWIDTH 2 0
BBX 4 3 -1 3
BITMAP
1650
1001
3773
ENDCHAR
STARTCHAR uni0930094D.2
ENCODING -1
SWIDTH 0 0
DWIDTH 0 0
BBX 3 3 -2 5
BITMAP
2810
4300
2100
ENDCHAR
STARTCHAR uni0930094D0902
ENCODING -1
SWIDTH 0 0
DWIDTH 0 0
BBX 3 3 -2 5
BITMAP
1810
4510
4300
ENDCHAR
STARTCHAR uni093E0930094D
ENCODING -1
SWIDTH 231 0
DWIDTH 2 0
BBX 3 8 0 0
BITMAP
1820
3400
8910
3400
3400
3400
3400
2400
ENDCHAR
STARTCHAR uni093E0930094D0902
ENCODING -1
SWIDTH 231 0
DWIDTH 2 0
BBX 3 8 0 0
BITMAP
1940
3400
8910
3400
3400
3400
3400
2400
ENDCHAR
STARTCHAR uni0930094D.aMatraI
ENCODING -1
SWIDTH 0 0
DWIDTH 0 0
BBX 2 2 -1 6
BITMAP
27
60
ENDCHAR
STARTCHAR uni0902.aMatraI
ENCODING -1
SWIDTH 0 0
DWIDTH 0 0
BBX 1 1 0 7
BITMAP
40
ENDCHAR
STARTCHAR uni0930094D0902.aMatraI
ENCODING -1
SWIDTH 0 0
DWIDTH 0 0
BBX 2 2 -1 6
BITMAP
27
63
ENDCHAR
STARTCHAR uni09400930094D
ENCODING -1
SWIDTH 231 0
DWIDTH 2 0
BBX 5 8 -2 0
BITMAP
288820
213400
008910
003400
003400
003400
003400
002400
ENDCHAR
STARTCHAR uni09400902
ENCODING -1
SWIDTH 231 0
DWIDTH 2 0
BBX 5 8 -2 0
BITMAP
289420
113400
008910
003400
003400
003400
003400
002400
ENDCHAR
STARTCHAR uni09400930094D0902
ENCODING -1
SWIDTH 231 0
DWIDTH 2 0
BBX 5 8 -2 0
BITMAP
288940
003400
008910
003400
003400
003400
003400
002400
ENDCHAR
STARTCHAR uni0940.aLong
ENCODING -1
SWIDTH 231 0
DWIDTH 2 0
BBX 7 8 -4 0
BITMAP
47779200
30003400
00008910
00003400
00003400
00003400
00003400
00002400
ENDCHAR
STARTCHAR uni09400930094D.aLong
ENCODING -1
SWIDTH 231 0
DWIDTH 2 0
BBX 7 8 -4 0
BITMAP
47778820
30003400
00008910
00003400
00003400
00003400
00003400
00002400
ENDCHAR
STARTCHAR uni09400902.aLong
ENCODING -1
SWIDTH 231 0
DWIDTH 2 0
BBX 7 8 -4 0
BITMAP
57779330
10003400
00008910
00003400
00003400
00003400
00003400
00002400
ENDCHAR
STARTCHAR uni09400930094D0902.aLong
ENCODING -1
SWIDTH 231 0
DWIDTH 2 0
BBX 7 8 -4 0
BITMAP
57778940
00003400
00008910
00003400
00003400
00003400
00003400
00002400
ENDCHAR
STARTCHAR uni09470930094D
ENCODING -1
SWIDTH 0 0
DWIDTH 0 0
BBX 4 2 -3 6
BITMAP
6471
0730
ENDCHAR
STARTCHAR uni09470902
ENCODING -1
SWIDTH 0 0
DWIDTH 0 0
BBX 3 3 -3 5
BITMAP
6240
0700
0010
ENDCHAR
STARTCHAR uni09470901
ENCODING -1
SWIDTH 0 0
DWIDTH 0 0
BBX 5 3 -3 5
BITMAP
622330
077650
001000
ENDCHAR
STARTCHAR uni09470930094D0902
ENCODING -1
SWIDTH 0 0
DWIDTH 0 0
BBX 4 2 -3 6
BITMAP
68B2
0830
ENDCHAR
STARTCHAR uni09480930094D
ENCODING -1
SWIDTH 0 0
DWIDTH 0 0
BBX 4 3 -3 5
BITMAP
7771
1A30
0420
ENDCHAR
STARTCHAR uni09480902
ENCODING -1
SWIDTH 0 0
DWIDTH 0 0
BBX 4 3 -3 5
BITMAP
7420
1852
0220
ENDCHAR
STARTCHAR uni09480901
ENCODING -1
SWIDTH 0 0
DWIDTH 0 0
BBX 6 3 -3 5
BITMAP
745223
184772
032000
ENDCHAR
STARTCHAR uni09480930094D0902
ENCODING -1
SWIDTH 0 0
DWIDTH 0 0
BBX 4 3 -3 5
BITMAP
7771
1A51
0420
ENDCHAR
STARTCHAR uni094B0930094D
ENCODING -1
SWIDTH 231 0
DWIDTH 2 0
BBX 4 8 -1 0
BITMAP
5382
0740
0891
0340
0340
0340
0340
0240
ENDCHAR
STARTCHAR uni094B0902
ENCODING -1
SWIDTH 231 0
DWIDTH 2 0
BBX 4 8 -1 0
BITMAP
5240
0610
0891
0340
0340
0340
0340
0240
ENDCHAR
STARTCHAR uni094B0930094D0902
ENCODING -1
SWIDTH 231 0
DWIDTH 2 0
BBX 4 8 -1 0
BITMAP
5281
0552
0891
0340
0340
0340
0340
0240
ENDCHAR
STARTCHAR uni094C0930094D
ENCODING -1
SWIDTH 231 0
DWIDTH 2 0
BBX 4 8 -1 0
BITMAP
6762
0840
0891
0340
0340
0340
0340
0240
ENDCHAR
STARTCHAR uni094C0902
ENCODING -1
SWIDTH 231 0
DWIDTH 2 0
BBX 4 8 -1 0
BITMAP
5462
0640
0891
0340
0340
0340
0340
0240
ENDCHAR
STARTCHAR uni094C0930094D0902
ENCODING -1
SWIDTH 231 0
DWIDTH 2 0
BBX 4 8 -1 0
BITMAP
7774
0940
0891
0340
0340
0340
0340
0240
ENDCHAR
STARTCHAR uni0915094D0937
ENCODING -1
SWIDTH 656 0
DWIDTH 6 0
BBX 6 6 0 0
BITMAP
077466
070661
2988A1
610261
276761
000661
ENDCHAR
STARTCHAR uni0915094D0937094D
ENCODING -1
SWIDTH 429 0
DWIDTH 4 0
BBX 5 6 0 0
BITMAP
077400
070600
298860
610200
276700
000600
ENDCHAR
STARTCHAR uni0915094D0937094D092E
ENCODING -1
SWIDTH 933 0
DWIDTH 8 0
BBX 9 6 0 0
BITMAP
0774876A30
0706420700
2311486800
6102420700
2767000700
0006000600
ENDCHAR
STARTCHAR uni0915094D0937094D092E094D
ENCODING -1
SWIDTH 717 0
DWIDTH 6 0
BBX 8 6 0 0
BITMAP
07748763
07064200
23114863
61024200
27670000
00060000
ENDCHAR
STARTCHAR uni0915094D0937094D092E094D092F
ENCODING -1
SWIDTH 1283 0
DWIDTH 12 0
BBX 12 6 0 0
BITMAP
07748766B6A4
070642006070
231148651070
610242070080
277700046680
000600000060
ENDCHAR
STARTCHAR uni0915094D0937094D092F
ENCODING -1
SWIDTH 989 0
DWIDTH 9 0
BBX 9 6 0 0
BITMAP
07745A7970
0706043510
2988870510
6102700610
2777276910
0006000510
ENDCHAR
STARTCHAR uni0915094D0937094D0935
ENCODING -1
SWIDTH 936 0
DWIDTH 8 0
BBX 9 6 0 0
BITMAP
0774566A30
0706073600
2988920600
6102520700
2767177700
0006000600
ENDCHAR
STARTCHAR uni091C094D091E
ENCODING -1
SWIDTH 629 0
DWIDTH 6 0
BBX 6 7 0 -1
BITMAP
6666A5
177790
530070
177370
510670
586560
200000
ENDCHAR
STARTCHAR uni091C094D091E094D
ENCODING -1
SWIDTH 398 0
DWIDTH 4 0
BBX 6 7 -1 -1
BITMAP
166663
000000
027773
027730
020060
057650
051000
ENDCHAR
STARTCHAR uni091C094D091E094D092F
ENCODING -1
SWIDTH 975 0
DWIDTH 9 0
BBX 10 7 -1 -1
BITMAP
166666B6A5
0177746170
0530087070
0177360080
05106276A0
0586500060
0200000000
ENDCHAR
STARTCHAR uni0915094D0928
ENCODING -1
SWIDTH 1003 0
DWIDTH 9 0
BBX 11 6 -1 0
BITMAP
1666A6668810
0172A7504300
061070868300
061070504300
017670004300
000060003300
ENDCHAR
STARTCHAR uni0916094D0928
ENCODING -1
SWIDTH 958 0
DWIDTH 9 0
BBX 10 6 -1 0
BITMAP
16796666A4
0024571070
003552A790
0671524070
0260675070
0043000060
ENDCHAR
STARTCHAR uni0917094D0928
ENCODING -1
SWIDTH 736 0
DWIDTH 7 0
BBX 8 6 -1 0
BITMAP
16A666A4
00700070
00717690
06324070
00000070
00000070
ENDCHAR
STARTCHAR uni0918094D0928
ENCODING -1
SWIDTH 814 0
DWIDTH 7 0
BBX 9 6 -1 0
BITMAP
1896666A30
0420000700
0293376700
0520700700
0176810700
0000000600
ENDCHAR
STARTCHAR uni091A094D0928
ENCODING -1
SWIDTH 829 0
DWIDTH 7 0
BBX 9 6 -1 0
BITMAP
1666666A30
0000000700
0060276800
0070610700
0056720700
0000000600
ENDCHAR
STARTCHAR uni091B094D0928
ENCODING -1
SWIDTH 977 0
DWIDTH 9 0
BBX 10 6 -1 0
BITMAP
18966666A5
0520730070
01A20776A0
0330076070
0420061070
0186740060
ENDCHAR
STARTCHAR uni091C094D0928
ENCODING -1
SWIDTH 831 0
DWIDTH 7 0
BBX 9 6 -1 0
BITMAP
1666666A40
0000000700
0287887800
0006510700
0007110700
0573000600
ENDCHAR
STARTCHAR uni091D094D0928
ENCODING -1
SWIDTH 935 0
DWIDTH 8 0
BBX 10 7 -1 -1
BITMAP
16698666A3
0178100070
0520017680
01788A0070
0610610070
0677300060
0200000000
ENDCHAR
STARTCHAR uni091F094D0928
ENCODING -1
SWIDTH 494 0
DWIDTH 4 0
BBX 6 8 -1 -2
BITMAP
1666A3
017640
052020
052060
017780
017670
051070
011070
ENDCHAR
STARTCHAR uni0920094D0928
ENCODING -1
SWIDTH 516 0
DWIDTH 5 0
BBX 6 8 -1 -2
BITMAP
1666A5
017770
062070
062070
017780
017670
051070
011070
ENDCHAR
STARTCHAR uni0921094D0928
ENCODING -1
SWIDTH 481 0
DWIDTH 4 0
BBX 6 8 -1 -2
BITMAP
1666A3
017650
042000
027650
027670
000070
027670
021060
ENDCHAR
STARTCHAR uni0924094D0928
ENCODING -1
SWIDTH 756 0
DWIDTH 7 0
BBX 8 6 -1 0
BITMAP
166666A6
00000070
012086A0
06106070
06100070
03810060
ENDCHAR
STARTCHAR uni0925094D0928
ENCODING -1
SWIDTH 855 0
DWIDTH 8 0
BBX 8 6 0 0
BITMAP
188366A5
22700060
56607690
61025060
17673060
00000060
ENDCHAR
STARTCHAR uni0926094D0928
ENCODING -1
SWIDTH 955 0
DWIDTH 9 0
BBX 10 8 -1 -2
BITMAP
1666A666A4
0177600070
0520017690
0520323070
0176800070
0000600060
0000400000
0000250000
ENDCHAR
STARTCHAR uni0927094D0928
ENCODING -1
SWIDTH 814 0
DWIDTH 7 0
BBX 9 6 -1 0
BITMAP
1891466A30
0420000700
0293376700
0520700700
0177700700
0000000600
ENDCHAR
STARTCHAR uni0928094D0928
ENCODING -1
SWIDTH 738 0
DWIDTH 7 0
BBX 8 6 -1 0
BITMAP
166666A4
00000070
04778690
06024070
00000070
00000060
ENDCHAR
STARTCHAR uni092A094D0928
ENCODING -1
SWIDTH 782 0
DWIDTH 7 0
BBX 9 6 -1 0
BITMAP
1986668810
0430003300
0430568300
0077703300
0000003300
0000003300
ENDCHAR
STARTCHAR uni092B094D0928
ENCODING -1
SWIDTH 1013 0
DWIDTH 9 0
BBX 11 6 -1 0
BITMAP
1986A6667910
043097502400
043070878400
033080702400
006670302400
000060002400
ENDCHAR
STARTCHAR uni092C094D0928
ENCODING -1
SWIDTH 810 0
DWIDTH 7 0
BBX 9 6 -1 0
BITMAP
1666666A20
0173000700
0661466700
0615600700
0177200700
0000000600
ENDCHAR
STARTCHAR uni092D094D0928
ENCODING -1
SWIDTH 757 0
DWIDTH 7 0
BBX 8 6 -1 0
BITMAP
181466A6
04200070
048796A0
04205070
00000070
00000060
ENDCHAR
STARTCHAR uni092E094D0928
ENCODING -1
SWIDTH 757 0
DWIDTH 7 0
BBX 8 6 -1 0
BITMAP
197666A6
04200070
048796A0
04205070
00000070
00000060
ENDCHAR
STARTCHAR uni092F094D0928
ENCODING -1
SWIDTH 829 0
DWIDTH 7 0
BBX 9 6 -1 0
BITMAP
1688666A30
0015000700
0471276800
0520610700
0076620700
0000000600
ENDCHAR
STARTCHAR uni0935094D0928
ENCODING -1
SWIDTH 798 0
DWIDTH 7 0
BBX 9 6 -1 0
BITMAP
1666667920
0173001500
0610467500
0610501500
0177201500
0000001500
ENDCHAR
STARTCHAR uni0936094D0928
ENCODING -1
SWIDTH 845 0
DWIDTH 8 0
BBX 8 6 0 0
BITMAP
288266A4
31600060
00717690
67533060
16001060
04300060
ENDCHAR
STARTCHAR uni0938094D0928
ENCODING -1
SWIDTH 831 0
DWIDTH 7 0
BBX 9 6 -1 0
BITMAP
1697666A40
0052000700
0061176800
0697920700
0350110700
0061000600
ENDCHAR
STARTCHAR uni0939094D0928
ENCODING -1
SWIDTH 500 0
DWIDTH 5 0
BBX 6 8 -1 -2
BITMAP
1666A4
000070
027660
0196A0
043670
051550
043000
006630
ENDCHAR
STARTCHAR uni0915094D0930
ENCODING -1
SWIDTH 725 0
DWIDTH 7 0
BBX 8 7 -1 -1
BITMAP
1666A664
0172A750
06107070
06107070
01797550
00536000
00400000
ENDCHAR
STARTCHAR uni0916094D0930
ENCODING -1
SWIDTH 698 0
DWIDTH 6 0
BBX 8 7 -1 -1
BITMAP
167966A2
00246260
00356060
06716170
02606960
00435360
00004000
ENDCHAR
STARTCHAR uni0917094D0930
ENCODING -1
SWIDTH 494 0
DWIDTH 4 0
BBX 6 6 -1 0
BITMAP
16A6A3
007070
007070
063480
002570
007060
ENDCHAR
STARTCHAR uni0918094D0930
ENCODING -1
SWIDTH 559 0
DWIDTH 5 0
BBX 7 7 -1 -1
BITMAP
18968810
05204300
02934300
05205300
0178A300
00184300
00400000
ENDCHAR
STARTCHAR uni0919094D0930
ENCODING -1
SWIDTH 505 0
DWIDTH 5 0
BBX 6 8 -1 -2
BITMAP
1666A4
017750
052022
017740
000070
047660
007800
015250
ENDCHAR
STARTCHAR uni091A094D0930
ENCODING -1
SWIDTH 563 0
DWIDTH 5 0
BBX 7 6 -1 0
BITMAP
16668810
00003400
05963400
00704400
00689400
00363400
ENDCHAR
STARTCHAR uni091B094D0930
ENCODING -1
SWIDTH 581 0
DWIDTH 5 0
BBX 7 8 -1 -2
BITMAP
17967920
04202500
04207500
01920700
04200700
02867400
00366000
00404000
ENDCHAR
STARTCHAR uni091C094D0930
ENCODING -1
SWIDTH 547 0
DWIDTH 5 0
BBX 6 6 -1 0
BITMAP
166697
000051
028891
000751
047491
000651
ENDCHAR
STARTCHAR uni091D094D0930
ENCODING -1
SWIDTH 684 0
DWIDTH 6 0
BBX 8 7 -1 -1
BITMAP
16698792
01781150
05200150
01788750
06106750
06778750
02003000
ENDCHAR
STARTCHAR uni091E094D0930
ENCODING -1
SWIDTH 598 0
DWIDTH 5 0
BBX 7 6 -1 0
BITMAP
16666A30
03720700
00060700
00096800
04744700
00052600
ENDCHAR
STARTCHAR uni091F094D0930
ENCODING -1
SWIDTH 485 0
DWIDTH 4 0
BBX 6 8 -1 -2
BITMAP
1666A3
000060
017640
051000
061070
028770
007540
002020
ENDCHAR
STARTCHAR uni0920094D0930
ENCODING -1
SWIDTH 512 0
DWIDTH 5 0
BBX 6 8 -1 -2
BITMAP
1666A4
000070
017860
061070
061070
028770
006630
003040
ENDCHAR
STARTCHAR uni0921094D0930
ENCODING -1
SWIDTH 475 0
DWIDTH 4 0
BBX 6 7 -1 -1
BITMAP
1666A2
017750
052000
017740
041070
027650
007530
ENDCHAR
STARTCHAR uni0922094D0930
ENCODING -1
SWIDTH 485 0
DWIDTH 4 0
BBX 6 8 -1 -2
BITMAP
1666A3
000070
017650
052560
061460
028670
006730
004040
ENDCHAR
STARTCHAR uni0923094D0930
ENCODING -1
SWIDTH 681 0
DWIDTH 6 0
BBX 8 6 -1 0
BITMAP
19879791
04215250
04215250
03324450
00773850
00026250
ENDCHAR
STARTCHAR uni0924094D0930
ENCODING -1
SWIDTH 493 0
DWIDTH 4 0
BBX 6 6 -1 0
BITMAP
1666A3
000070
027680
061070
000680
017160
ENDCHAR
STARTCHAR uni0925094D0930
ENCODING -1
SWIDTH 593 0
DWIDTH 5 0
BBX 6 7 0 -1
BITMAP
188093
117070
566070
610070
177970
019160
031000
ENDCHAR
STARTCHAR uni0926094D0930
ENCODING -1
SWIDTH 489 0
DWIDTH 4 0
BBX 6 6 -1 0
BITMAP
1666A3
017760
052000
052030
017980
003560
ENDCHAR
STARTCHAR uni0927094D0930
ENCODING -1
SWIDTH 560 0
DWIDTH 5 0
BBX 7 6 -1 0
BITMAP
18918810
05203300
02A33300
05204300
0178A300
00263300
ENDCHAR
STARTCHAR uni0928094D0930
ENCODING -1
SWIDTH 473 0
DWIDTH 4 0
BBX 6 6 -1 0
BITMAP
1666A2
000060
047660
060560
003460
016060
ENDCHAR
STARTCHAR uni092A094D0930
ENCODING -1
SWIDTH 503 0
DWIDTH 5 0
BBX 6 6 -1 0
BITMAP
1986A4
043060
043070
007980
002560
007060
ENDCHAR
STARTCHAR uni092B094D0930
ENCODING -1
SWIDTH 741 0
DWIDTH 7 0
BBX 8 6 -1 0
BITMAP
1986A665
04309760
04308061
00798061
00447460
01707000
ENDCHAR
STARTCHAR uni092C094D0930
ENCODING -1
SWIDTH 491 0
DWIDTH 4 0
BBX 6 6 -1 0
BITMAP
1666A3
017370
066170
061570
017970
005260
ENDCHAR
STARTCHAR uni092D094D0930
ENCODING -1
SWIDTH 491 0
DWIDTH 4 0
BBX 6 6 -1 0
BITMAP
1814A3
042070
048680
042580
002570
007060
ENDCHAR
STARTCHAR uni092E094D0930
ENCODING -1
SWIDTH 490 0
DWIDTH 4 0
BBX 6 6 -1 0
BITMAP
1976A3
042060
048780
042680
003560
007060
ENDCHAR
STARTCHAR uni092F094D0930
ENCODING -1
SWIDTH 564 0
DWIDTH 5 0
BBX 7 7 -1 -1
BITMAP
16888810
00153400
04713400
05204400
0178A400
00283400
00400000
ENDCHAR
STARTCHAR uni0935094D0930
ENCODING -1
SWIDTH 484 0
DWIDTH 4 0
BBX 6 6 -1 0
BITMAP
1666A3
017360
061060
061070
017970
006260
ENDCHAR
STARTCHAR uni0936094D0930
ENCODING -1
SWIDTH 558 0
DWIDTH 5 0
BBX 5 6 0 0
BITMAP
377380
517430
187430
388630
305A30
054330
ENDCHAR
STARTCHAR uni0938094D0930
ENCODING -1
SWIDTH 604 0
DWIDTH 5 0
BBX 7 6 -1 0
BITMAP
16976A30
00520700
00610700
06978800
03526700
00620600
ENDCHAR
STARTCHAR uni0939094D0930
ENCODING -1
SWIDTH 505 0
DWIDTH 5 0
BBX 6 7 -1 -1
BITMAP
1666A4
000060
026650
029690
061680
062760
017630
ENDCHAR
STARTCHAR uni0915093C094D0930
ENCODING -1
SWIDTH 725 0
DWIDTH 7 0
BBX 8 7 -1 -1
BITMAP
1666A664
0172A750
06107070
06107070
01797550
00626000
00230000
ENDCHAR
STARTCHAR uni0916093C094D0930
ENCODING -1
SWIDTH 698 0
DWIDTH 6 0
BBX 8 7 -1 -1
BITMAP
167966A2
00246260
00356060
06716170
02606960
00435260
00002300
ENDCHAR
STARTCHAR uni0917093C094D0930
ENCODING -1
SWIDTH 494 0
DWIDTH 4 0
BBX 6 7 -1 -1
BITMAP
16A6A3
007070
007070
063480
002570
007060
001300
ENDCHAR
STARTCHAR uni091C093C094D0930
ENCODING -1
SWIDTH 547 0
DWIDTH 5 0
BBX 6 7 -1 -1
BITMAP
166697
000051
028791
000751
000771
0576A1
031600
ENDCHAR
STARTCHAR uni0921093C094D0930
ENCODING -1
SWIDTH 475 0
DWIDTH 4 0
BBX 6 7 -1 -1
BITMAP
1666A2
017750
052000
017740
041070
027650
047530
ENDCHAR
STARTCHAR uni0922093C094D0930
ENCODING -1
SWIDTH 485 0
DWIDTH 4 0
BBX 6 8 -1 -2
BITMAP
1666A3
000070
017650
052560
061460
028670
036830
004040
ENDCHAR
STARTCHAR uni0928093C094D0930
ENCODING -1
SWIDTH 473 0
DWIDTH 4 0
BBX 6 7 -1 -1
BITMAP
1666A2
000060
047660
060560
003460
016060
004000
ENDCHAR
STARTCHAR uni092B093C094D0930
ENCODING -1
SWIDTH 741 0
DWIDTH 7 0
BBX 8 7 -1 -1
BITMAP
1986A665
04309760
04308061
00798061
00447460
01707000
00120000
ENDCHAR
STARTCHAR uni092F093C094D0930
ENCODING -1
SWIDTH 564 0
DWIDTH 5 0
BBX 7 7 -1 -1
BITMAP
16888810
00153400
04713400
05204400
01789400
00363400
00230000
ENDCHAR
STARTCHAR uni0915094D0930094D
ENCODING -1
SWIDTH 518 0
DWIDTH 5 0
BBX 7 7 -1 -1
BITMAP
1666A650
0172A650
06107010
06107000
01797000
00536000
00400000
ENDCHAR
STARTCHAR uni0916094D0930094D
ENCODING -1
SWIDTH 469 0
DWIDTH 4 0
BBX 7 7 -1 -1
BITMAP
16796610
00246200
00356000
06716010
02606910
00435300
00004000
ENDCHAR
STARTCHAR uni0917094D0930094D
ENCODING -1
SWIDTH 264 0
DWIDTH 2 0
BBX 5 6 -1 0
BITMAP
16A300
007000
007010
063430
002600
007000
ENDCHAR
STARTCHAR uni0918094D0930094D
ENCODING -1
SWIDTH 319 0
DWIDTH 3 0
BBX 5 7 -1 -1
BITMAP
189750
052000
029300
052010
017890
002900
003000
ENDCHAR
STARTCHAR uni091A094D0930094D
ENCODING -1
SWIDTH 331 0
DWIDTH 3 0
BBX 5 7 -1 -1
BITMAP
166640
000000
059600
007010
006890
001900
003100
ENDCHAR
STARTCHAR uni091C094D0930094D
ENCODING -1
SWIDTH 312 0
DWIDTH 3 0
BBX 5 7 -1 -1
BITMAP
166640
000000
028750
000700
000720
047460
001500
ENDCHAR
STARTCHAR uni091D094D0930094D
ENCODING -1
SWIDTH 441 0
DWIDTH 4 0
BBX 7 7 -1 -1
BITMAP
16698500
01781000
05200000
01788810
02006510
06774500
06007100
ENDCHAR
STARTCHAR uni091E094D0930094D
ENCODING -1
SWIDTH 374 0
DWIDTH 3 0
BBX 6 6 -1 0
BITMAP
166661
037200
000600
000965
047453
000540
ENDCHAR
STARTCHAR uni091F094D0930094D
ENCODING -1
SWIDTH 485 0
DWIDTH 4 0
BBX 6 9 -1 -3
BITMAP
1666A3
000060
017640
051000
061070
028770
007440
000600
000430
ENDCHAR
STARTCHAR uni0920094D0930094D
ENCODING -1
SWIDTH 512 0
DWIDTH 5 0
BBX 6 9 -1 -3
BITMAP
1666A4
000070
017860
061070
061070
028770
006630
003430
000430
ENDCHAR
STARTCHAR uni0921094D0930094D
ENCODING -1
SWIDTH 475 0
DWIDTH 4 0
BBX 6 9 -1 -3
BITMAP
1666A2
017750
052000
017740
000070
047670
007720
013330
000620
ENDCHAR
STARTCHAR uni0922094D0930094D
ENCODING -1
SWIDTH 485 0
DWIDTH 4 0
BBX 6 9 -1 -3
BITMAP
1666A3
000070
017650
052560
061460
028670
006630
003430
000430
ENDCHAR
STARTCHAR uni0923094D0930094D
ENCODING -1
SWIDTH 457 0
DWIDTH 4 0
BBX 7 6 -1 0
BITMAP
19879100
04215000
04215000
03324310
00773500
00026000
ENDCHAR
STARTCHAR uni0924094D0930094D
ENCODING -1
SWIDTH 268 0
DWIDTH 2 0
BBX 5 6 -1 0
BITMAP
166650
000000
027720
061060
000620
017100
ENDCHAR
STARTCHAR uni0925094D0930094D
ENCODING -1
SWIDTH 358 0
DWIDTH 3 0
BBX 5 7 0 -1
BITMAP
188000
117000
566000
610010
177A10
018100
031000
ENDCHAR
STARTCHAR uni0926094D0930094D
ENCODING -1
SWIDTH 489 0
DWIDTH 4 0
BBX 6 8 -1 -2
BITMAP
1666A3
017760
052000
052030
017980
003560
000310
000170
ENDCHAR
STARTCHAR uni0927094D0930094D
ENCODING -1
SWIDTH 322 0
DWIDTH 3 0
BBX 5 6 -1 0
BITMAP
199150
052000
029300
052010
017870
002500
ENDCHAR
STARTCHAR uni0928094D0930094D
ENCODING -1
SWIDTH 247 0
DWIDTH 2 0
BBX 5 6 -1 0
BITMAP
166620
000000
047640
060430
003500
017000
ENDCHAR
STARTCHAR uni092A094D0930094D
ENCODING -1
SWIDTH 270 0
DWIDTH 2 0
BBX 5 6 -1 0
BITMAP
198600
043000
043010
017930
003600
008000
ENDCHAR
STARTCHAR uni092B094D0930094D
ENCODING -1
SWIDTH 523 0
DWIDTH 5 0
BBX 7 6 -1 0
BITMAP
1976A650
0610A650
05208000
01797000
00537000
02607000
ENDCHAR
STARTCHAR uni092C094D0930094D
ENCODING -1
SWIDTH 267 0
DWIDTH 2 0
BBX 5 6 -1 0
BITMAP
166630
017300
066100
061540
017920
005200
ENDCHAR
STARTCHAR uni092D094D0930094D
ENCODING -1
SWIDTH 257 0
DWIDTH 2 0
BBX 5 6 -1 0
BITMAP
181420
042000
048740
042620
003500
007000
ENDCHAR
STARTCHAR uni092E094D0930094D
ENCODING -1
SWIDTH 261 0
DWIDTH 2 0
BBX 5 6 -1 0
BITMAP
197620
042000
048740
042620
003500
007000
ENDCHAR
STARTCHAR uni092F094D0930094D
ENCODING -1
SWIDTH 323 0
DWIDTH 3 0
BBX 5 7 -1 -1
BITMAP
168830
001500
047100
052010
017890
002900
003000
ENDCHAR
STARTCHAR uni0935094D0930094D
ENCODING -1
SWIDTH 255 0
DWIDTH 2 0
BBX 5 6 -1 0
BITMAP
166500
017300
061000
061010
017910
006100
ENDCHAR
STARTCHAR uni0938094D0930094D
ENCODING -1
SWIDTH 347 0
DWIDTH 3 0
BBX 6 6 -1 0
BITMAP
169750
005200
006100
069781
035250
006300
ENDCHAR
STARTCHAR uni0915093C094D0930094D
ENCODING -1
SWIDTH 518 0
DWIDTH 5 0
BBX 7 7 -1 -1
BITMAP
1666A650
0172A650
06107010
06107000
01797000
00626000
00230000
ENDCHAR
STARTCHAR uni0916093C094D0930094D
ENCODING -1
SWIDTH 466 0
DWIDTH 4 0
BBX 7 7 -1 -1
BITMAP
16796610
00246200
00356000
06716010
02606910
00435200
00001300
ENDCHAR
STARTCHAR uni0917093C094D0930094D
ENCODING -1
SWIDTH 264 0
DWIDTH 2 0
BBX 5 7 -1 -1
BITMAP
16A300
007000
007010
063430
002600
007000
000300
ENDCHAR
STARTCHAR uni091C093C094D0930094D
ENCODING -1
SWIDTH 320 0
DWIDTH 3 0
BBX 5 7 -1 -1
BITMAP
166640
000000
028750
000700
000760
047820
040100
ENDCHAR
STARTCHAR uni0928093C094D0930094D
ENCODING -1
SWIDTH 247 0
DWIDTH 2 0
BBX 5 7 -1 -1
BITMAP
166620
000000
047640
060430
003500
017000
003100
ENDCHAR
STARTCHAR uni092B093C094D0930094D
ENCODING -1
SWIDTH 523 0
DWIDTH 5 0
BBX 7 7 -1 -1
BITMAP
1976A650
0610A650
05208000
01797000
00537000
02607000
00310000
ENDCHAR
STARTCHAR uni092F093C094D0930094D
ENCODING -1
SWIDTH 323 0
DWIDTH 3 0
BBX 5 7 -1 -1
BITMAP
168830
001500
047100
052010
017880
003700
001400
ENDCHAR
STARTCHAR uni0915094D0915
ENCODING -1
SWIDTH 1255 0
DWIDTH 11 0
BBX 13 6 -1 0
BITMAP
1666A666886620
01729677387400
06107070350700
06107070340700
01767037847400
00006000240000
ENDCHAR
STARTCHAR uni0915094D0916
ENCODING -1
SWIDTH 1256 0
DWIDTH 11 0
BBX 13 6 -1 0
BITMAP
1666A667966A20
0172A731562600
06107062660600
06107087151700
01767026012700
00006004300600
ENDCHAR
STARTCHAR uni0915094D091A
ENCODING -1
SWIDTH 1086 0
DWIDTH 10 0
BBX 11 6 -1 0
BITMAP
1666A6666A50
017297100700
061071894700
061070520800
017670176A00
000060000600
ENDCHAR
STARTCHAR uni0915094D091C
ENCODING -1
SWIDTH 1071 0
DWIDTH 10 0
BBX 11 6 -1 0
BITMAP
1666A6666A40
017260000700
061097397900
061070043700
017670043700
000060670600
ENDCHAR
STARTCHAR uni0915094D091F
ENCODING -1
SWIDTH 984 0
DWIDTH 9 0
BBX 10 6 -1 0
BITMAP
1666A666A6
0172A66670
0610707000
0610707004
0176706015
0000606781
ENDCHAR
STARTCHAR uni0915094D0923
ENCODING -1
SWIDTH 1183 0
DWIDTH 11 0
BBX 12 6 -1 0
BITMAP
1666A6A6A6A5
017296806070
061070706070
061070506070
017670011070
000060000060
ENDCHAR
STARTCHAR uni0915094D0924
ENCODING -1
SWIDTH 761 0
DWIDTH 7 0
BBX 8 6 -1 0
BITMAP
1666A666
00007000
0396A670
00707034
00707034
00546370
ENDCHAR
STARTCHAR uni0915094D0925
ENCODING -1
SWIDTH 1118 0
DWIDTH 10 0
BBX 12 6 -1 0
BITMAP
1666A5476381
017260307340
0610A7873340
061080700440
017670376840
000060000330
ENDCHAR
STARTCHAR uni0915094D0926
ENCODING -1
SWIDTH 1009 0
DWIDTH 9 0
BBX 11 6 -1 0
BITMAP
1666A6668910
0172A6777300
061070700000
061070700300
017660376600
000060000600
ENDCHAR
STARTCHAR uni0915094D092A
ENCODING -1
SWIDTH 1007 0
DWIDTH 9 0
BBX 11 6 -1 0
BITMAP
1666A6A68810
017296803400
061070603400
061070404400
017670005400
000060003300
ENDCHAR
STARTCHAR uni0915094D092B
ENCODING -1
SWIDTH 1242 0
DWIDTH 11 0
BBX 13 6 -1 0
BITMAP
1666A6A6976620
01729680587300
06107060530700
06107040620700
01767000637300
00006000520000
ENDCHAR
STARTCHAR uni0915094D092E
ENCODING -1
SWIDTH 994 0
DWIDTH 9 0
BBX 10 6 -1 0
BITMAP
1666A6A697
0172A68052
0610709692
0610706052
0176700052
0000600052
ENDCHAR
STARTCHAR uni0915094D092F
ENCODING -1
SWIDTH 1076 0
DWIDTH 10 0
BBX 11 6 -1 0
BITMAP
1666A66B6A50
017260070700
0610A6860700
061070700700
017670376900
000060000600
ENDCHAR
STARTCHAR uni0915094D0932
ENCODING -1
SWIDTH 1178 0
DWIDTH 11 0
BBX 12 6 -1 0
BITMAP
1666A66666A4
0172A6675790
061070707070
061070704070
017670600070
000060660060
ENDCHAR
STARTCHAR uni0915094D0935
ENCODING -1
SWIDTH 1013 0
DWIDTH 9 0
BBX 11 6 -1 0
BITMAP
1666A6667910
017296773400
061070702400
061070703400
017670378400
000060002400
ENDCHAR
STARTCHAR uni0915094D0936
ENCODING -1
SWIDTH 1194 0
DWIDTH 11 0
BBX 12 6 -1 0
BITMAP
1666A6288175
0172A7413370
061070604370
061070777070
017670170070
000060025060
ENDCHAR
STARTCHAR uni0915094D0938
ENCODING -1
SWIDTH 1143 0
DWIDTH 10 0
BBX 12 6 -1 0
BITMAP
1666A66886A2
0172A6334070
061070643070
061070797770
017670160070
000060052060
ENDCHAR
STARTCHAR uni0916094D0916
ENCODING -1
SWIDTH 1223 0
DWIDTH 11 0
BBX 13 6 -1 0
BITMAP
1679666A768810
00246206274300
00355007614300
06725086515300
02606653179300
00430006104200
ENDCHAR
STARTCHAR uni0916094D0924
ENCODING -1
SWIDTH 984 0
DWIDTH 9 0
BBX 10 6 -1 0
BITMAP
16796666A6
0024620060
00355067A0
0672507060
0260666060
0043008360
ENDCHAR
STARTCHAR uni0916094D092E
ENCODING -1
SWIDTH 965 0
DWIDTH 9 0
BBX 10 6 -1 0
BITMAP
167966A6A5
0024626070
003550A690
0672516070
0260671070
0043000060
ENDCHAR
STARTCHAR uni0916094D092F
ENCODING -1
SWIDTH 1047 0
DWIDTH 9 0
BBX 11 6 -1 0
BITMAP
1679667A6A30
002462060700
003550840700
067250700700
026066777700
004300000600
ENDCHAR
STARTCHAR uni0916094D0935
ENCODING -1
SWIDTH 975 0
DWIDTH 9 0
BBX 10 6 -1 0
BITMAP
16796666A5
0024625570
0035507070
0672507070
02506677A0
0043000060
ENDCHAR
STARTCHAR uni0916094D0936
ENCODING -1
SWIDTH 1123 0
DWIDTH 10 0
BBX 12 6 -1 0
BITMAP
167963775291
002462307240
003550007240
067253872240
025066600240
004300160240
ENDCHAR
STARTCHAR uni0917094D0917
ENCODING -1
SWIDTH 744 0
DWIDTH 7 0
BBX 8 6 -1 0
BITMAP
16A6A6A5
00707070
00707070
06345070
00000070
00000060
ENDCHAR
STARTCHAR uni0917094D0918
ENCODING -1
SWIDTH 823 0
DWIDTH 7 0
BBX 9 6 -1 0
BITMAP
16A6B66A30
0070700700
0070850700
0630600700
0000600800
0000566700
ENDCHAR
STARTCHAR uni0917094D091C
ENCODING -1
SWIDTH 801 0
DWIDTH 7 0
BBX 9 6 -1 0
BITMAP
16A6667A20
0070001600
0070787600
0630071600
0000071600
0003741600
ENDCHAR
STARTCHAR uni0917094D0923
ENCODING -1
SWIDTH 945 0
DWIDTH 9 0
BBX 10 6 -1 0
BITMAP
16A6A6A6A4
0070606060
0070606060
0630707060
0000573060
0000000060
ENDCHAR
STARTCHAR uni0917094D0926
ENCODING -1
SWIDTH 748 0
DWIDTH 7 0
BBX 8 6 -1 0
BITMAP
16A666A5
00706780
00717000
06316030
00006691
00000051
ENDCHAR
STARTCHAR uni0917094D0927
ENCODING -1
SWIDTH 823 0
DWIDTH 7 0
BBX 9 6 -1 0
BITMAP
16A6B34A30
0070700700
0070860700
0630700700
0000700800
0000566700
ENDCHAR
STARTCHAR uni0917094D092C
ENCODING -1
SWIDTH 755 0
DWIDTH 7 0
BBX 8 6 -1 0
BITMAP
16A666A6
00706560
00709360
06307390
00006690
00000060
ENDCHAR
STARTCHAR uni0917094D092D
ENCODING -1
SWIDTH 755 0
DWIDTH 7 0
BBX 8 6 -1 0
BITMAP
16A652A5
00707070
0070A6A0
06307070
00001070
00000060
ENDCHAR
STARTCHAR uni0917094D092E
ENCODING -1
SWIDTH 754 0
DWIDTH 7 0
BBX 8 6 -1 0
BITMAP
16A6A6A5
00706060
0070A6A0
06306060
00001060
00000060
ENDCHAR
STARTCHAR uni0917094D092F
ENCODING -1
SWIDTH 828 0
DWIDTH 7 0
BBX 9 6 -1 0
BITMAP
16A67A6A30
0070070700
0070840700
0630700700
0000576700
0000000600
ENDCHAR
STARTCHAR uni0917094D0932
ENCODING -1
SWIDTH 924 0
DWIDTH 8 0
BBX 10 6 -1 0
BITMAP
16A66666A2
0070675770
0071517070
0632406070
0002500070
0000840060
ENDCHAR
STARTCHAR uni0917094D0935
ENCODING -1
SWIDTH 747 0
DWIDTH 7 0
BBX 8 6 -1 0
BITMAP
16A666A5
00706560
00717060
06317070
00006790
00000060
ENDCHAR
STARTCHAR uni0917094D0938
ENCODING -1
SWIDTH 839 0
DWIDTH 8 0
BBX 9 6 -1 0
BITMAP
16A66A6A40
0070070700
0070060700
0631610700
0000700700
0000260600
ENDCHAR
STARTCHAR uni0918094D092E
ENCODING -1
SWIDTH 818 0
DWIDTH 7 0
BBX 9 6 -1 0
BITMAP
1896976A30
0520510700
0193576700
0520510700
0520600700
0076500600
ENDCHAR
STARTCHAR uni0918094D092F
ENCODING -1
SWIDTH 867 0
DWIDTH 8 0
BBX 9 6 -1 0
BITMAP
18966B6A50
0520051600
0193670600
0420600700
0520896900
0176500600
ENDCHAR
STARTCHAR uni091A094D091A
ENCODING -1
SWIDTH 868 0
DWIDTH 8 0
BBX 9 6 -1 0
BITMAP
1666666A60
0000000700
0594694700
0070430800
0067677A00
0000000600
ENDCHAR
STARTCHAR uni091A094D091B
ENCODING -1
SWIDTH 922 0
DWIDTH 8 0
BBX 10 6 -1 0
BITMAP
16667A66A2
0000430060
0596330760
0070092070
0070430060
0044686750
ENDCHAR
STARTCHAR uni091A094D092E
ENCODING -1
SWIDTH 830 0
DWIDTH 7 0
BBX 9 6 -1 0
BITMAP
1666886A30
0596430700
0070486800
0060420700
0056600700
0000000600
ENDCHAR
STARTCHAR uni091A094D092F
ENCODING -1
SWIDTH 904 0
DWIDTH 8 0
BBX 10 6 -1 0
BITMAP
1666689791
0000006250
0596382250
0070530350
0067677750
0000000250
ENDCHAR
STARTCHAR uni091B094D092F
ENCODING -1
SWIDTH 1068 0
DWIDTH 10 0
BBX 11 6 -1 0
BITMAP
189666666A40
042078670600
01A206042600
043006670700
042006366800
018674000600
ENDCHAR
STARTCHAR uni091B094D0935
ENCODING -1
SWIDTH 581 0
DWIDTH 5 0
BBX 7 7 -1 -1
BITMAP
18967920
04307500
01A20700
04300700
01A78500
00703400
00667000
ENDCHAR
STARTCHAR uni091C094D0915
ENCODING -1
SWIDTH 1054 0
DWIDTH 9 0
BBX 11 6 -1 0
BITMAP
1666666A6640
0000062A7500
028790070700
000770160700
000727666500
057200060000
ENDCHAR
STARTCHAR uni091C094D091C
ENCODING -1
SWIDTH 903 0
DWIDTH 8 0
BBX 10 6 -1 0
BITMAP
1666666791
0000000240
0288378840
0007007240
0007007240
0572474240
ENDCHAR
STARTCHAR uni091C094D091D
ENCODING -1
SWIDTH 990 0
DWIDTH 9 0
BBX 10 7 -1 -1
BITMAP
1666669797
0000178151
0287910051
0007278791
0007601551
0572778351
0000100000
ENDCHAR
STARTCHAR uni091C094D091F
ENCODING -1
SWIDTH 815 0
DWIDTH 7 0
BBX 9 6 -1 0
BITMAP
1666667A30
0000001600
0387777400
0016610000
0016600600
0582287700
ENDCHAR
STARTCHAR uni091C094D0921
ENCODING -1
SWIDTH 797 0
DWIDTH 7 0
BBX 9 6 -1 0
BITMAP
1666667920
0000067300
0387910000
0016377300
0016000700
0351566500
ENDCHAR
STARTCHAR uni091C094D0924
ENCODING -1
SWIDTH 830 0
DWIDTH 7 0
BBX 9 6 -1 0
BITMAP
1666666A30
0000000700
0398887800
0016610700
0016600700
0461381600
ENDCHAR
STARTCHAR uni091C094D0926
ENCODING -1
SWIDTH 817 0
DWIDTH 7 0
BBX 9 6 -1 0
BITMAP
1666666A30
0000067500
0287810000
0007610300
0007277900
0572000600
ENDCHAR
STARTCHAR uni091C094D092C
ENCODING -1
SWIDTH 820 0
DWIDTH 7 0
BBX 9 6 -1 0
BITMAP
1666666A30
0000073600
0287960600
0007615700
0007266700
0572000600
ENDCHAR
STARTCHAR uni091C094D092E
ENCODING -1
SWIDTH 813 0
DWIDTH 7 0
BBX 9 6 -1 0
BITMAP
1666A76A20
0000610600
0024676700
0007610600
0006200600
0572000600
ENDCHAR
STARTCHAR uni091C094D092F
ENCODING -1
SWIDTH 893 0
DWIDTH 8 0
BBX 10 6 -1 0
BITMAP
1666698881
0000025330
0287871330
0016610430
0016176830
0582000330
ENDCHAR
STARTCHAR uni091C094D0935
ENCODING -1
SWIDTH 813 0
DWIDTH 7 0
BBX 9 6 -1 0
BITMAP
1666666A20
0000062600
0287910600
0007710700
0007276700
0572000600
ENDCHAR
STARTCHAR uni091D094D092E
ENCODING -1
SWIDTH 936 0
DWIDTH 8 0
BBX 10 7 -1 -1
BITMAP
16698986A3
0178142070
0520048680
0178892070
0610621070
0677300060
0200000000
ENDCHAR
STARTCHAR uni091D094D092F
ENCODING -1
SWIDTH 1000 0
DWIDTH 9 0
BBX 11 7 -1 -1
BITMAP
166986988810
017810244300
052005714300
01788A105300
061062768300
067730004300
020000000000
ENDCHAR
STARTCHAR uni091E094D091B
ENCODING -1
SWIDTH 913 0
DWIDTH 8 0
BBX 10 6 -1 0
BITMAP
1666896792
0372520250
0006420750
00098A2070
0006520070
0351286740
ENDCHAR
STARTCHAR uni091E094D091C
ENCODING -1
SWIDTH 932 0
DWIDTH 8 0
BBX 10 6 -1 0
BITMAP
16666666A3
0000000070
0253069770
0009407070
0473007070
0000276060
ENDCHAR
STARTCHAR uni091E094D0936
ENCODING -1
SWIDTH 975 0
DWIDTH 9 0
BBX 10 6 -1 0
BITMAP
1666188175
0362143470
0006004370
0009887070
0474070070
0000026060
ENDCHAR
STARTCHAR uni091F094D091F
ENCODING -1
SWIDTH 494 0
DWIDTH 4 0
BBX 6 9 -1 -3
BITMAP
1666A3
017640
061000
061060
017770
005760
053000
061060
017750
ENDCHAR
STARTCHAR uni091F094D0920
ENCODING -1
SWIDTH 495 0
DWIDTH 4 0
BBX 6 9 -1 -3
BITMAP
1666A3
017640
061000
061060
017680
005750
053070
061070
017750
ENDCHAR
STARTCHAR uni091F094D092F
ENCODING -1
SWIDTH 990 0
DWIDTH 9 0
BBX 10 6 -1 0
BITMAP
1666A66697
0077877252
0520000752
0600338252
0510734052
0287608692
ENDCHAR
STARTCHAR uni091F094D0935
ENCODING -1
SWIDTH 501 0
DWIDTH 5 0
BBX 6 7 -1 -1
BITMAP
1666A4
017640
051010
052070
01A790
043070
017640
ENDCHAR
STARTCHAR uni0920094D092F
ENCODING -1
SWIDTH 998 0
DWIDTH 9 0
BBX 10 6 -1 0
BITMAP
1666A66698
0067766342
0520800742
0600728342
0610724042
0287607692
ENDCHAR
STARTCHAR uni0921094D0921
ENCODING -1
SWIDTH 493 0
DWIDTH 4 0
BBX 6 9 -1 -3
BITMAP
1666A3
017650
042000
017640
041070
039740
027640
041070
017750
ENDCHAR
STARTCHAR uni0921094D0922
ENCODING -1
SWIDTH 493 0
DWIDTH 4 0
BBX 6 8 -1 -2
BITMAP
1666A3
017650
042000
027650
029650
052330
051670
027680
ENDCHAR
STARTCHAR uni0921094D092F
ENCODING -1
SWIDTH 973 0
DWIDTH 9 0
BBX 10 6 -1 0
BITMAP
1666A666A5
0176867160
0520003560
0177458160
0100751080
0376605580
ENDCHAR
STARTCHAR uni0921094D0935
ENCODING -1
SWIDTH 493 0
DWIDTH 4 0
BBX 6 8 -1 -2
BITMAP
1666A3
017650
042000
017650
041070
02A690
034070
007730
ENDCHAR
STARTCHAR uni0922094D092F
ENCODING -1
SWIDTH 981 0
DWIDTH 9 0
BBX 10 6 -1 0
BITMAP
1666A666A6
0076867170
0520001670
0615647170
0514642070
01867186A0
ENDCHAR
STARTCHAR uni0923094D091F
ENCODING -1
SWIDTH 908 0
DWIDTH 8 0
BBX 10 6 -1 0
BITMAP
1987966882
0421500330
0421527720
0332470000
0077070050
0000047760
ENDCHAR
STARTCHAR uni0923094D0920
ENCODING -1
SWIDTH 936 0
DWIDTH 8 0
BBX 10 6 -1 0
BITMAP
1987966793
0421500250
0421527940
0332470070
0077070070
0000047760
ENDCHAR
STARTCHAR uni0923094D0921
ENCODING -1
SWIDTH 892 0
DWIDTH 8 0
BBX 10 6 -1 0
BITMAP
1987966881
0421537820
0421570000
0332437720
0066010070
0000066740
ENDCHAR
STARTCHAR uni0923094D0922
ENCODING -1
SWIDTH 908 0
DWIDTH 8 0
BBX 10 6 -1 0
BITMAP
1987966892
0421500240
0421527730
0332470740
0044060460
0000047760
ENDCHAR
STARTCHAR uni0923094D0923
ENCODING -1
SWIDTH 1127 0
DWIDTH 10 0
BBX 12 6 -1 0
BITMAP
198798879791
042154315250
042154315250
033243425250
007700771250
000000000250
ENDCHAR
STARTCHAR uni0923094D092E
ENCODING -1
SWIDTH 932 0
DWIDTH 8 0
BBX 10 6 -1 0
BITMAP
19879976A3
0421552070
0421558670
0332452070
0088131070
0000000060
ENDCHAR
STARTCHAR uni0923094D092F
ENCODING -1
SWIDTH 998 0
DWIDTH 9 0
BBX 10 6 -1 0
BITMAP
1987969798
0421503442
0421557142
0232361052
0011017692
0000000042
ENDCHAR
STARTCHAR uni0923094D0935
ENCODING -1
SWIDTH 923 0
DWIDTH 8 0
BBX 10 6 -1 0
BITMAP
19879666A2
0421527260
0421570060
0232370070
0011027670
0000000060
ENDCHAR
STARTCHAR uni0924094D0915
ENCODING -1
SWIDTH 992 0
DWIDTH 9 0
BBX 10 6 -1 0
BITMAP
166666A666
0000357671
0177607025
0611707025
0610669371
0381006000
ENDCHAR
STARTCHAR uni0924094D0916
ENCODING -1
SWIDTH 1014 0
DWIDTH 9 0
BBX 11 6 -1 0
BITMAP
166669867910
000004373400
017735532400
061097333400
060034077400
038006202400
ENDCHAR
STARTCHAR uni0924094D0924
ENCODING -1
SWIDTH 542 0
DWIDTH 5 0
BBX 6 6 -1 0
BITMAP
1666A6
000061
0597A1
007061
006061
008361
ENDCHAR
STARTCHAR uni0924094D0925
ENCODING -1
SWIDTH 869 0
DWIDTH 8 0
BBX 9 6 -1 0
BITMAP
1663674660
0000316700
0177872700
0610700800
0600576A00
0380000600
ENDCHAR
STARTCHAR uni0924094D092A
ENCODING -1
SWIDTH 757 0
DWIDTH 7 0
BBX 8 6 -1 0
BITMAP
1666A6A6
00007070
02777070
06107080
060057A0
03800060
ENDCHAR
STARTCHAR uni0924094D092B
ENCODING -1
SWIDTH 992 0
DWIDTH 9 0
BBX 10 6 -1 0
BITMAP
1666A6A666
0000707671
0277707025
0610608025
0600108371
0380006000
ENDCHAR
STARTCHAR uni0924094D092E
ENCODING -1
SWIDTH 764 0
DWIDTH 7 0
BBX 7 6 0 0
BITMAP
666A6A60
00070610
12096A10
61070610
61000610
38100610
ENDCHAR
STARTCHAR uni0924094D092F
ENCODING -1
SWIDTH 830 0
DWIDTH 7 0
BBX 9 6 -1 0
BITMAP
16667A6A30
0000060700
0177950700
0610700800
0600576800
0380000700
ENDCHAR
STARTCHAR uni0924094D0932
ENCODING -1
SWIDTH 957 0
DWIDTH 9 0
BBX 10 6 -1 0
BITMAP
16666666A4
0166675790
0610808070
0600606060
0600600060
0270660060
ENDCHAR
STARTCHAR uni0924094D0935
ENCODING -1
SWIDTH 751 0
DWIDTH 7 0
BBX 8 6 -1 0
BITMAP
166666A5
00003560
01776060
06107070
06106690
03810060
ENDCHAR
STARTCHAR uni0924094D0938
ENCODING -1
SWIDTH 876 0
DWIDTH 8 0
BBX 9 6 -1 0
BITMAP
16666A6970
0000070610
0177170610
0610A97A10
0600510610
0380070610
ENDCHAR
STARTCHAR uni0925094D092F
ENCODING -1
SWIDTH 931 0
DWIDTH 8 0
BBX 9 6 0 0
BITMAP
18827A6A30
2270060600
5661830600
6101600700
1777676700
0000000600
ENDCHAR
STARTCHAR uni0925094D0935
ENCODING -1
SWIDTH 862 0
DWIDTH 8 0
BBX 8 6 0 0
BITMAP
188266A5
22706570
56607070
61017070
176667A0
00000060
ENDCHAR
STARTCHAR uni0926094D0917
ENCODING -1
SWIDTH 489 0
DWIDTH 4 0
BBX 6 7 -1 -1
BITMAP
1666A3
017760
052000
052050
019780
007060
036000
ENDCHAR
STARTCHAR uni0926094D0918
ENCODING -1
SWIDTH 686 0
DWIDTH 6 0
BBX 8 7 -1 -1
BITMAP
16666792
00027740
03790000
07070030
04239670
06015060
02761000
ENDCHAR
STARTCHAR uni0926094D0926
ENCODING -1
SWIDTH 506 0
DWIDTH 5 0
BBX 6 7 -1 -1
BITMAP
1666A4
017660
043000
01A500
042020
0286A0
000060
ENDCHAR
STARTCHAR uni0926094D0927
ENCODING -1
SWIDTH 686 0
DWIDTH 6 0
BBX 8 7 -1 -1
BITMAP
16666792
00037740
03570000
07070030
04229670
06015060
02761000
ENDCHAR
STARTCHAR uni0926094D092C
ENCODING -1
SWIDTH 481 0
DWIDTH 4 0
BBX 6 7 -1 -1
BITMAP
1666A3
017760
052000
052050
01C680
045660
017740
ENDCHAR
STARTCHAR uni0926094D092D
ENCODING -1
SWIDTH 499 0
DWIDTH 4 0
BBX 6 8 -1 -2
BITMAP
1666A4
017660
053000
033070
043170
006060
009680
001020
ENDCHAR
STARTCHAR uni0926094D092E
ENCODING -1
SWIDTH 706 0
DWIDTH 6 0
BBX 8 6 -1 0
BITMAP
166796A3
02773070
07000070
02755070
0000A670
00006060
ENDCHAR
STARTCHAR uni0926094D092F
ENCODING -1
SWIDTH 583 0
DWIDTH 5 0
BBX 7 6 -1 0
BITMAP
166A6A20
01760600
04300600
01A20600
04201600
02878600
ENDCHAR
STARTCHAR uni0926094D0935
ENCODING -1
SWIDTH 483 0
DWIDTH 4 0
BBX 6 7 -1 -1
BITMAP
1666A3
017760
052000
052050
01A680
043070
017730
ENDCHAR
STARTCHAR uni0927094D092E
ENCODING -1
SWIDTH 817 0
DWIDTH 7 0
BBX 9 6 -1 0
BITMAP
1891876A30
0520520600
0140576700
0510520600
0520610600
0076500600
ENDCHAR
STARTCHAR uni0927094D092F
ENCODING -1
SWIDTH 886 0
DWIDTH 8 0
BBX 9 6 -1 0
BITMAP
18915A7980
0520034420
0193571420
0420600520
0520676820
0176400420
ENDCHAR
STARTCHAR uni0927094D0935
ENCODING -1
SWIDTH 810 0
DWIDTH 7 0
BBX 9 6 -1 0
BITMAP
1891566A20
0520272700
0193600700
0520601700
0520896700
0176500600
ENDCHAR
STARTCHAR uni0928094D0915
ENCODING -1
SWIDTH 973 0
DWIDTH 9 0
BBX 10 6 -1 0
BITMAP
166666A665
0000748770
0468407043
0503407043
0000768470
0000006000
ENDCHAR
STARTCHAR uni0928094D091A
ENCODING -1
SWIDTH 820 0
DWIDTH 7 0
BBX 9 6 -1 0
BITMAP
1666666A30
0002981600
0000700600
0575700700
0200377700
0000000600
ENDCHAR
STARTCHAR uni0928094D091B
ENCODING -1
SWIDTH 781 0
DWIDTH 7 0
BBX 9 6 -1 0
BITMAP
1669769710
0006004200
0006019200
0469911500
0406001500
0004768200
ENDCHAR
STARTCHAR uni0928094D091F
ENCODING -1
SWIDTH 715 0
DWIDTH 6 0
BBX 8 6 -1 0
BITMAP
166666A3
00000070
04784020
06052010
01052070
00018770
ENDCHAR
STARTCHAR uni0928094D0921
ENCODING -1
SWIDTH 705 0
DWIDTH 6 0
BBX 8 6 -1 0
BITMAP
166666A3
00007750
04683000
06017750
00021070
00028670
ENDCHAR
STARTCHAR uni0928094D0924
ENCODING -1
SWIDTH 717 0
DWIDTH 6 0
BBX 8 6 -1 0
BITMAP
166666A3
00000070
04788680
06061070
00060070
00038160
ENDCHAR
STARTCHAR uni0928094D0925
ENCODING -1
SWIDTH 804 0
DWIDTH 7 0
BBX 9 6 -1 0
BITMAP
1662870A20
0002170600
0468750600
0607001600
0002776600
0000000600
ENDCHAR
STARTCHAR uni0928094D0926
ENCODING -1
SWIDTH 724 0
DWIDTH 7 0
BBX 8 6 -1 0
BITMAP
166666A4
00006760
04683000
05043030
00007690
00000060
ENDCHAR
STARTCHAR uni0928094D0927
ENCODING -1
SWIDTH 753 0
DWIDTH 7 0
BBX 8 6 -1 0
BITMAP
166A62A5
00070070
047A8170
07070070
02060080
00026690
ENDCHAR
STARTCHAR uni0928094D092A
ENCODING -1
SWIDTH 742 0
DWIDTH 7 0
BBX 8 6 -1 0
BITMAP
166796A5
00025070
03775070
06005080
04005690
00000060
ENDCHAR
STARTCHAR uni0928094D092B
ENCODING -1
SWIDTH 970 0
DWIDTH 9 0
BBX 10 6 -1 0
BITMAP
166886A665
0003408770
0478407052
0601408052
0100017470
0000006000
ENDCHAR
STARTCHAR uni0928094D092D
ENCODING -1
SWIDTH 739 0
DWIDTH 7 0
BBX 8 6 -1 0
BITMAP
166733A5
00016070
0477A690
06016070
00000070
00000060
ENDCHAR
STARTCHAR uni0928094D092E
ENCODING -1
SWIDTH 735 0
DWIDTH 7 0
BBX 8 6 -1 0
BITMAP
166796A4
00015060
04779690
06015060
00000060
00000060
ENDCHAR
STARTCHAR uni0928094D092F
ENCODING -1
SWIDTH 801 0
DWIDTH 7 0
BBX 9 6 -1 0
BITMAP
1666897A20
0000061600
0467821600
0403302600
0000766600
0000001600
ENDCHAR
STARTCHAR uni0928094D0935
ENCODING -1
SWIDTH 732 0
DWIDTH 7 0
BBX 8 6 -1 0
BITMAP
166666A4
00006460
04684060
05034070
00007780
00000060
ENDCHAR
STARTCHAR uni0928094D0938
ENCODING -1
SWIDTH 867 0
DWIDTH 8 0
BBX 9 6 -1 0
BITMAP
16666A6A50
0000070600
0477170600
0601A97A00
0100610600
0000070600
ENDCHAR
STARTCHAR uni0928094D0939
ENCODING -1
SWIDTH 714 0
DWIDTH 6 0
BBX 8 7 -1 -1
BITMAP
166666A3
00006650
03674000
0600A750
00034060
00034000
00006640
ENDCHAR
STARTCHAR uni092A094D091F
ENCODING -1
SWIDTH 489 0
DWIDTH 4 0
BBX 6 6 -1 0
BITMAP
1976A3
043070
01A760
051000
061070
027660
ENDCHAR
STARTCHAR uni092A094D0920
ENCODING -1
SWIDTH 506 0
DWIDTH 5 0
BBX 6 6 -1 0
BITMAP
1976A4
043070
01A780
051070
051060
027660
ENDCHAR
STARTCHAR uni092A094D0924
ENCODING -1
SWIDTH 495 0
DWIDTH 4 0
BBX 6 6 -1 0
BITMAP
1976A3
052070
02A780
061070
060070
027060
ENDCHAR
STARTCHAR uni092A094D092A
ENCODING -1
SWIDTH 770 0
DWIDTH 7 0
BBX 8 6 -1 0
BITMAP
1986A697
04307052
04307052
03307062
00776792
00000052
ENDCHAR
STARTCHAR uni092A094D092B
ENCODING -1
SWIDTH 1003 0
DWIDTH 9 0
BBX 11 6 -1 0
BITMAP
1986A6A66610
043070667200
043070711600
023070801600
000030827100
000000600000
ENDCHAR
STARTCHAR uni092A094D092E
ENCODING -1
SWIDTH 774 0
DWIDTH 7 0
BBX 8 6 -1 0
BITMAP
1986A697
04307042
04309692
00778042
00000042
00000042
ENDCHAR
STARTCHAR uni092A094D092F
ENCODING -1
SWIDTH 855 0
DWIDTH 8 0
BBX 9 6 -1 0
BITMAP
19866B6A50
0430060600
0430760600
0230700700
0001676900
0000000600
ENDCHAR
STARTCHAR uni092A094D0932
ENCODING -1
SWIDTH 960 0
DWIDTH 9 0
BBX 10 6 -1 0
BITMAP
19866666A4
0430375790
0430609070
0330706070
0077803070
0000760060
ENDCHAR
STARTCHAR uni092A094D0935
ENCODING -1
SWIDTH 780 0
DWIDTH 7 0
BBX 9 6 -1 0
BITMAP
1986668810
0430374300
0430604300
0230804300
0001778300
0000003300
ENDCHAR
STARTCHAR uni092A094D0938
ENCODING -1
SWIDTH 880 0
DWIDTH 8 0
BBX 9 6 -1 0
BITMAP
19866A6970
0430070510
0430070510
0330997A10
0077820510
0000070510
ENDCHAR
STARTCHAR uni092B094D091C
ENCODING -1
SWIDTH 1100 0
DWIDTH 10 0
BBX 11 6 -1 0
BITMAP
1986A6666970
043060000510
043097287A10
033080006510
006670007510
000060572510
ENDCHAR
STARTCHAR uni092B094D091F
ENCODING -1
SWIDTH 1006 0
DWIDTH 9 0
BBX 11 6 -1 0
BITMAP
1986A6669710
043096668100
043080600000
018770600400
000060600600
000060577300
ENDCHAR
STARTCHAR uni092B094D0924
ENCODING -1
SWIDTH 1034 0
DWIDTH 9 0
BBX 11 6 -1 0
BITMAP
1986A6666A20
043087500700
043070677700
033080700700
006670700700
000060570600
ENDCHAR
STARTCHAR uni092B094D092A
ENCODING -1
SWIDTH 1021 0
DWIDTH 9 0
BBX 11 6 -1 0
BITMAP
1986A6A67920
043097901500
043070701500
033080602500
007770277500
000060001500
ENDCHAR
STARTCHAR uni092B094D092B
ENCODING -1
SWIDTH 1256 0
DWIDTH 11 0
BBX 13 6 -1 0
BITMAP
1986A6A6886620
04309790397400
04307060350700
02308040440700
00117000447400
00006000240000
ENDCHAR
STARTCHAR uni092B094D092F
ENCODING -1
SWIDTH 1120 0
DWIDTH 10 0
BBX 11 6 -1 0
BITMAP
1986A66A6A60
043060052700
043086870700
023080700800
001170276A00
000060000600
ENDCHAR
STARTCHAR uni092B094D0932
ENCODING -1
SWIDTH 1202 0
DWIDTH 11 0
BBX 12 6 -1 0
BITMAP
1986A66666A6
0430976647A0
043070608070
033080706070
006670703070
000060471060
ENDCHAR
STARTCHAR uni092B094D0936
ENCODING -1
SWIDTH 1211 0
DWIDTH 11 0
BBX 12 6 -1 0
BITMAP
1986A6488357
043097341651
043070601551
033080867151
006670160051
000060043051
ENDCHAR
STARTCHAR uni092C094D091C
ENCODING -1
SWIDTH 883 0
DWIDTH 8 0
BBX 9 6 -1 0
BITMAP
1666666970
0183000520
0670288920
0742007520
0616107520
0177872520
ENDCHAR
STARTCHAR uni092C094D091D
ENCODING -1
SWIDTH 962 0
DWIDTH 9 0
BBX 10 7 -1 -1
BITMAP
166666A6A5
0173567070
0661700070
0615969690
0176305170
0000768060
0000600000
ENDCHAR
STARTCHAR uni092C094D0924
ENCODING -1
SWIDTH 786 0
DWIDTH 7 0
BBX 9 6 -1 0
BITMAP
1666668810
0183003400
0670578400
0615803400
0176703400
0000553400
ENDCHAR
STARTCHAR uni092C094D0926
ENCODING -1
SWIDTH 775 0
DWIDTH 7 0
BBX 9 6 -1 0
BITMAP
1666668810
0173478200
0651700000
0615801200
0176677500
0000001500
ENDCHAR
STARTCHAR uni092C094D0927
ENCODING -1
SWIDTH 844 0
DWIDTH 8 0
BBX 9 6 -1 0
BITMAP
1666A43A40
0173700700
0661770700
0615800700
0176600800
0000266700
ENDCHAR
STARTCHAR uni092C094D092C
ENCODING -1
SWIDTH 783 0
DWIDTH 7 0
BBX 9 6 -1 0
BITMAP
1666668810
0173474400
0651853400
0615818400
0176568400
0000003300
ENDCHAR
STARTCHAR uni092C094D092D
ENCODING -1
SWIDTH 764 0
DWIDTH 7 0
BBX 8 6 -1 0
BITMAP
166652A6
01737061
064296A1
06157061
01772061
00000061
ENDCHAR
STARTCHAR uni092C094D092F
ENCODING -1
SWIDTH 852 0
DWIDTH 8 0
BBX 9 6 -1 0
BITMAP
16666B6A50
0173070700
0671760700
0616800800
0176676900
0000000600
ENDCHAR
STARTCHAR uni092C094D0932
ENCODING -1
SWIDTH 961 0
DWIDTH 9 0
BBX 10 6 -1 0
BITMAP
16666666A5
0140475790
0643707070
0614804070
0176700070
0000460060
ENDCHAR
STARTCHAR uni092C094D0935
ENCODING -1
SWIDTH 776 0
DWIDTH 7 0
BBX 8 6 -1 0
BITMAP
16666698
01734743
06517043
06158053
01765793
00000042
ENDCHAR
STARTCHAR uni092C094D0936
ENCODING -1
SWIDTH 926 0
DWIDTH 8 0
BBX 10 6 -1 0
BITMAP
1665476093
0173506070
0670006070
0615864070
0176540070
0000052060
ENDCHAR
STARTCHAR uni092C094D0938
ENCODING -1
SWIDTH 897 0
DWIDTH 8 0
BBX 10 6 -1 0
BITMAP
16666A6881
0173060340
0670070340
0615897840
0176530340
0000060240
ENDCHAR
STARTCHAR uni092D094D092F
ENCODING -1
SWIDTH 827 0
DWIDTH 7 0
BBX 9 6 -1 0
BITMAP
18147A6A30
0420060700
0486510700
0420700700
0000466700
0000000600
ENDCHAR
STARTCHAR uni092D094D0932
ENCODING -1
SWIDTH 941 0
DWIDTH 8 0
BBX 10 6 -1 0
BITMAP
18146666A3
0420575780
0486708070
0420706070
0110600070
0000650060
ENDCHAR
STARTCHAR uni092D094D0935
ENCODING -1
SWIDTH 755 0
DWIDTH 7 0
BBX 8 6 -1 0
BITMAP
181466A5
04206660
04867060
04207070
000057A0
00000060
ENDCHAR
STARTCHAR uni092E094D0924
ENCODING -1
SWIDTH 765 0
DWIDTH 7 0
BBX 8 6 -1 0
BITMAP
197666A7
04200061
04877061
04207061
00007061
00007361
ENDCHAR
STARTCHAR uni092E094D0926
ENCODING -1
SWIDTH 766 0
DWIDTH 7 0
BBX 8 6 -1 0
BITMAP
19766697
04205781
04868000
04207011
00004783
00000033
ENDCHAR
STARTCHAR uni092E094D092A
ENCODING -1
SWIDTH 762 0
DWIDTH 7 0
BBX 8 6 -1 0
BITMAP
1976A6A6
04207060
04867060
04205070
031036A0
00000060
ENDCHAR
STARTCHAR uni092E094D092C
ENCODING -1
SWIDTH 768 0
DWIDTH 7 0
BBX 8 6 -1 0
BITMAP
19766697
04206651
04868551
042071A1
00005691
00000051
ENDCHAR
STARTCHAR uni092E094D092D
ENCODING -1
SWIDTH 768 0
DWIDTH 7 0
BBX 8 6 -1 0
BITMAP
19766197
04206051
0486A691
04206051
00000051
00000051
ENDCHAR
STARTCHAR uni092E094D092E
ENCODING -1
SWIDTH 759 0
DWIDTH 7 0
BBX 8 6 -1 0
BITMAP
1976A6A6
04207060
0486A6A0
04206060
00000060
00000060
ENDCHAR
STARTCHAR uni092E094D092F
ENCODING -1
SWIDTH 834 0
DWIDTH 8 0
BBX 9 6 -1 0
BITMAP
19766B6A40
0420060600
0486510600
0420600700
0000466700
0000000600
ENDCHAR
STARTCHAR uni092E094D0932
ENCODING -1
SWIDTH 945 0
DWIDTH 9 0
BBX 10 6 -1 0
BITMAP
19766666A4
0420575780
0486708070
0420606070
0110600070
0000660060
ENDCHAR
STARTCHAR uni092E094D0935
ENCODING -1
SWIDTH 761 0
DWIDTH 7 0
BBX 8 6 -1 0
BITMAP
197666A6
04206660
04868060
04207070
000057A0
00000060
ENDCHAR
STARTCHAR uni092E094D0936
ENCODING -1
SWIDTH 884 0
DWIDTH 8 0
BBX 9 6 -1 0
BITMAP
1972773470
0420606420
0420016420
0487871420
0310710420
0000070420
ENDCHAR
STARTCHAR uni092E094D0938
ENCODING -1
SWIDTH 816 0
DWIDTH 7 0
BBX 9 6 -1 0
BITMAP
1976896A30
0420240700
0420340700
0488977700
0311600700
0000530700
ENDCHAR
STARTCHAR uni092E094D0939
ENCODING -1
SWIDTH 758 0
DWIDTH 7 0
BBX 8 7 -1 -1
BITMAP
197666A6
04205680
04868000
04206770
01007042
00007000
00004660
ENDCHAR
STARTCHAR uni092F094D092F
ENCODING -1
SWIDTH 897 0
DWIDTH 8 0
BBX 10 6 -1 0
BITMAP
1688698881
0015015340
0471471340
0520520440
0176676840
0000000340
ENDCHAR
STARTCHAR uni0930094D092F
ENCODING -1
SWIDTH 713 0
DWIDTH 6 0
BBX 8 6 -1 0
BITMAP
1667A6A3
01006070
05794070
00060070
00067670
00000060
ENDCHAR
STARTCHAR uni0930094D0939
ENCODING -1
SWIDTH 619 0
DWIDTH 6 0
BBX 7 7 -1 -1
BITMAP
16666A40
02056600
04760000
00097500
00160600
00160000
00056500
ENDCHAR
STARTCHAR uni0932094D0915
ENCODING -1
SWIDTH 1182 0
DWIDTH 11 0
BBX 12 6 -1 0
BITMAP
16666666A665
007666739760
052535207061
051215207061
051000767560
028300006000
ENDCHAR
STARTCHAR uni0932094D0916
ENCODING -1
SWIDTH 1195 0
DWIDTH 11 0
BBX 12 6 -1 0
BITMAP
1666666A66A5
007555073560
052434077060
051423947070
051000713790
028300070060
ENDCHAR
STARTCHAR uni0932094D0917
ENCODING -1
SWIDTH 950 0
DWIDTH 9 0
BBX 10 6 -1 0
BITMAP
166666A6A4
0076626070
0525307070
0514254070
0510000070
0283000060
ENDCHAR
STARTCHAR uni0932094D091C
ENCODING -1
SWIDTH 1035 0
DWIDTH 9 0
BBX 11 6 -1 0
BITMAP
166666666A30
007562697700
052530070700
051420070700
051100070700
028304750600
ENDCHAR
STARTCHAR uni0932094D091F
ENCODING -1
SWIDTH 929 0
DWIDTH 8 0
BBX 10 6 -1 0
BITMAP
16666666A3
0000000060
0176777740
0524352000
0512161050
0283028770
ENDCHAR
STARTCHAR uni0932094D0920
ENCODING -1
SWIDTH 953 0
DWIDTH 9 0
BBX 10 6 -1 0
BITMAP
16666666A4
0000000060
0176667850
0524361070
0512160070
0283038770
ENDCHAR
STARTCHAR uni0932094D0921
ENCODING -1
SWIDTH 916 0
DWIDTH 8 0
BBX 10 6 -1 0
BITMAP
16666666A2
0075667740
0525352000
0514217740
0510010070
0283047660
ENDCHAR
STARTCHAR uni0932094D0922
ENCODING -1
SWIDTH 924 0
DWIDTH 8 0
BBX 10 6 -1 0
BITMAP
16666666A3
0000000060
0176667640
0525361650
0511160460
0283038670
ENDCHAR
STARTCHAR uni0932094D0924
ENCODING -1
SWIDTH 929 0
DWIDTH 8 0
BBX 10 6 -1 0
BITMAP
16666666A3
0074570070
0524369770
0514260070
0511170070
0283047060
ENDCHAR
STARTCHAR uni0932094D0925
ENCODING -1
SWIDTH 1061 0
DWIDTH 10 0
BBX 11 6 -1 0
BITMAP
166662881840
007666142700
052535770700
051323400800
051000677800
028300000700
ENDCHAR
STARTCHAR uni0932094D0926
ENCODING -1
SWIDTH 939 0
DWIDTH 8 0
BBX 10 6 -1 0
BITMAP
16666666A3
0076668760
0525353000
0513242030
0510017680
0283000060
ENDCHAR
STARTCHAR uni0932094D092A
ENCODING -1
SWIDTH 939 0
DWIDTH 8 0
BBX 10 6 -1 0
BITMAP
16666976A3
0075691060
0525351060
0514242080
0512106770
0283000060
ENDCHAR
STARTCHAR uni0932094D092B
ENCODING -1
SWIDTH 1176 0
DWIDTH 11 0
BBX 12 6 -1 0
BITMAP
16666976A664
007569209760
052535207070
051422207070
051110017560
028300006000
ENDCHAR
STARTCHAR uni0932094D092C
ENCODING -1
SWIDTH 949 0
DWIDTH 9 0
BBX 10 6 -1 0
BITMAP
16666666A4
0076676060
0524345460
0512143390
0510007680
0283000060
ENDCHAR
STARTCHAR uni0932094D092D
ENCODING -1
SWIDTH 931 0
DWIDTH 8 0
BBX 10 6 -1 0
BITMAP
16666815A3
0076792060
0525357670
0514252060
0510010060
0283000060
ENDCHAR
STARTCHAR uni0932094D092E
ENCODING -1
SWIDTH 931 0
DWIDTH 8 0
BBX 10 6 -1 0
BITMAP
16666976A3
0076792060
0525357670
0514252060
0510010060
0283000060
ENDCHAR
STARTCHAR uni0932094D092F
ENCODING -1
SWIDTH 1033 0
DWIDTH 9 0
BBX 11 6 -1 0
BITMAP
1666667A6A20
007667070700
052433930700
051212501700
051000666700
018300000600
ENDCHAR
STARTCHAR uni0932094D0932
ENCODING -1
SWIDTH 1112 0
DWIDTH 10 0
BBX 12 6 -1 0
BITMAP
166666666881
007567756930
052536162430
051427051430
051006010430
028302720430
ENDCHAR
STARTCHAR uni0932094D0935
ENCODING -1
SWIDTH 940 0
DWIDTH 8 0
BBX 10 6 -1 0
BITMAP
16666666A3
0076668360
0525353060
0512143070
0510007770
0283000060
ENDCHAR
STARTCHAR uni0932094D0938
ENCODING -1
SWIDTH 1068 0
DWIDTH 10 0
BBX 11 6 -1 0
BITMAP
1666666A6A40
007565070700
052545070700
051423A87900
051210700700
028300250600
ENDCHAR
STARTCHAR uni0932094D0939
ENCODING -1
SWIDTH 922 0
DWIDTH 8 0
BBX 10 7 -1 -1
BITMAP
16666666A2
0000000070
0176666650
0524329740
0510052060
0283052000
0000006630
ENDCHAR
STARTCHAR uni0933094D092F
ENCODING -1
SWIDTH 1050 0
DWIDTH 9 0
BBX 11 6 -1 0
BITMAP
1666667A6A30
017666070700
051441A40700
060330700700
051341876700
017556000600
ENDCHAR
STARTCHAR uni0935094D092F
ENCODING -1
SWIDTH 852 0
DWIDTH 8 0
BBX 9 6 -1 0
BITMAP
16666B6A50
0173070700
0610760700
0610800800
0177676900
0000000600
ENDCHAR
STARTCHAR uni0935094D0932
ENCODING -1
SWIDTH 961 0
DWIDTH 9 0
BBX 10 6 -1 0
BITMAP
16666666A5
0173475790
0610707070
0610803070
0177600070
0000360060
ENDCHAR
STARTCHAR uni0935094D0935
ENCODING -1
SWIDTH 776 0
DWIDTH 7 0
BBX 8 6 -1 0
BITMAP
16666698
01734743
06107043
06108053
01665683
00000042
ENDCHAR
STARTCHAR uni0935094D0939
ENCODING -1
SWIDTH 754 0
DWIDTH 7 0
BBX 8 7 -1 -1
BITMAP
166666A5
01735670
06107000
06108770
01769031
00006000
00003660
ENDCHAR
STARTCHAR uni0936094D0915
ENCODING -1
SWIDTH 1093 0
DWIDTH 10 0
BBX 10 6 0 0
BITMAP
288266A666
3160747770
0072507034
6752507034
1600778370
0430006000
ENDCHAR
STARTCHAR uni0936094D091A
ENCODING -1
SWIDTH 950 0
DWIDTH 9 0
BBX 9 6 0 0
BITMAP
2882666A40
5260000700
1072882700
6750700800
1600377800
0430000600
ENDCHAR
STARTCHAR uni0936094D091B
ENCODING -1
SWIDTH 968 0
DWIDTH 9 0
BBX 9 6 0 0
BITMAP
2872A66A50
5160700700
1060860700
6650500610
2600700610
0430766800
ENDCHAR
STARTCHAR uni0936094D091F
ENCODING -1
SWIDTH 854 0
DWIDTH 8 0
BBX 8 6 0 0
BITMAP
378266A5
10605660
00706000
67515000
16016033
04307791
ENDCHAR
STARTCHAR uni0936094D0924
ENCODING -1
SWIDTH 864 0
DWIDTH 8 0
BBX 8 6 0 0
BITMAP
288266A5
51600060
007077A0
67516060
16015060
04308360
ENDCHAR
STARTCHAR uni0936094D092E
ENCODING -1
SWIDTH 885 0
DWIDTH 8 0
BBX 8 6 0 0
BITMAP
3882A697
21607042
00709692
67507042
16003042
04300042
ENDCHAR
STARTCHAR uni0936094D092F
ENCODING -1
SWIDTH 940 0
DWIDTH 8 0
BBX 9 6 0 0
BITMAP
28827A6A30
4160060700
0070840700
6750600800
1600577800
0430000600
ENDCHAR
STARTCHAR uni0936094D0932
ENCODING -1
SWIDTH 1039 0
DWIDTH 9 0
BBX 10 6 0 0
BITMAP
37826666A3
2060664770
0071617070
6751506060
1601502060
0430750060
ENDCHAR
STARTCHAR uni0936094D0935
ENCODING -1
SWIDTH 850 0
DWIDTH 8 0
BBX 8 6 0 0
BITMAP
288266A5
31607560
00725060
67515070
16006790
04300060
ENDCHAR
STARTCHAR uni0936094D0936
ENCODING -1
SWIDTH 1009 0
DWIDTH 9 0
BBX 10 6 0 0
BITMAP
2880674281
5160606340
0070006340
6750972340
1600620340
0430070240
ENDCHAR
STARTCHAR uni0937094D0915
ENCODING -1
SWIDTH 1039 0
DWIDTH 9 0
BBX 11 6 -1 0
BITMAP
199666796630
047127397400
043660250700
0231B0340700
001167757400
000000240000
ENDCHAR
STARTCHAR uni0937094D091F
ENCODING -1
SWIDTH 493 0
DWIDTH 4 0
BBX 6 6 -1 0
BITMAP
19B6A3
044570
01A670
051000
061060
027670
ENDCHAR
STARTCHAR uni0937094D0920
ENCODING -1
SWIDTH 511 0
DWIDTH 5 0
BBX 6 6 -1 0
BITMAP
19EFE4
04FFD0
02EF90
035280
051060
028670
ENDCHAR
STARTCHAR uni0937094D0923
ENCODING -1
SWIDTH 980 0
DWIDTH 9 0
BBX 10 6 -1 0
BITMAP
1996A6A6A6
0481706070
0436706070
0331C07070
0066475070
0000000060
ENDCHAR
STARTCHAR uni0937094D092A
ENCODING -1
SWIDTH 980 0
DWIDTH 9 0
BBX 10 6 -1 0
BITMAP
1996A6A6A6
0481706070
0436706070
0331C07070
0066475070
0000000060
ENDCHAR
STARTCHAR uni0937094D092B
ENCODING -1
SWIDTH 1036 0
DWIDTH 9 0
BBX 11 6 -1 0
BITMAP
1996A6896630
047170297400
043670250700
0231B0440700
001021447400
000000240000
ENDCHAR
STARTCHAR uni0937094D092E
ENCODING -1
SWIDTH 791 0
DWIDTH 7 0
BBX 9 6 -1 0
BITMAP
19A6A67910
0474702400
0436B68400
0340C02400
0078602400
0000002400
ENDCHAR
STARTCHAR uni0937094D092F
ENCODING -1
SWIDTH 877 0
DWIDTH 8 0
BBX 9 6 -1 0
BITMAP
19966A7970
0471043510
0436670510
0231C00610
0011576910
0000000510
ENDCHAR
STARTCHAR uni0937094D0935
ENCODING -1
SWIDTH 802 0
DWIDTH 7 0
BBX 9 6 -1 0
BITMAP
1996666A20
0471272600
0436700600
0231C01600
0011677600
0000000600
ENDCHAR
STARTCHAR uni0937094D0937
ENCODING -1
SWIDTH 804 0
DWIDTH 7 0
BBX 9 6 -1 0
BITMAP
1996B76A20
0481760600
0436725600
0331B05600
0077577600
0000000600
ENDCHAR
STARTCHAR uni0938094D0915
ENCODING -1
SWIDTH 1089 0
DWIDTH 10 0
BBX 11 6 -1 0
BITMAP
1697666A6660
005206487700
006115070430
069785070430
035017783700
006100060000
ENDCHAR
STARTCHAR uni0938094D0916
ENCODING -1
SWIDTH 990 0
DWIDTH 9 0
BBX 10 6 -1 0
BITMAP
16976A6697
0052071751
0061076051
0696956061
0350521791
0061070051
ENDCHAR
STARTCHAR uni0938094D091C
ENCODING -1
SWIDTH 970 0
DWIDTH 9 0
BBX 10 6 -1 0
BITMAP
16976666A5
0052000070
00610397A0
0797703470
0350003470
0061068160
ENDCHAR
STARTCHAR uni0938094D091F
ENCODING -1
SWIDTH 844 0
DWIDTH 8 0
BBX 9 6 -1 0
BITMAP
1697666A40
0052056600
0061050000
0697840000
0350240420
0061087800
ENDCHAR
STARTCHAR uni0938094D0924
ENCODING -1
SWIDTH 852 0
DWIDTH 8 0
BBX 9 6 -1 0
BITMAP
1697666A50
0052000700
0061067900
0697840700
0350340700
0061192600
ENDCHAR
STARTCHAR uni0938094D0925
ENCODING -1
SWIDTH 960 0
DWIDTH 9 0
BBX 10 6 -1 0
BITMAP
1697277284
0051043470
0797787170
0530160080
0070066690
0061000070
ENDCHAR
STARTCHAR uni0938094D0926
ENCODING -1
SWIDTH 851 0
DWIDTH 8 0
BBX 9 6 -1 0
BITMAP
1697666A50
0052057700
0061150000
0674550300
0250076A00
0061000600
ENDCHAR
STARTCHAR uni0938094D092A
ENCODING -1
SWIDTH 857 0
DWIDTH 8 0
BBX 9 6 -1 0
BITMAP
1697796A50
0052150600
0061150600
0697760800
0350067900
0061000600
ENDCHAR
STARTCHAR uni0938094D092B
ENCODING -1
SWIDTH 1092 0
DWIDTH 10 0
BBX 11 6 -1 0
BITMAP
1697796A6660
005215087700
006115070340
069776080340
035001083700
006100060000
ENDCHAR
STARTCHAR uni0938094D092C
ENCODING -1
SWIDTH 857 0
DWIDTH 8 0
BBX 9 6 -1 0
BITMAP
1697666A50
0052065700
00611A2700
0697854800
0350076900
0061000600
ENDCHAR
STARTCHAR uni0938094D092E
ENCODING -1
SWIDTH 850 0
DWIDTH 8 0
BBX 9 6 -1 0
BITMAP
16977A6A50
0052160700
0061160700
06967A6900
0350140700
0061000600
ENDCHAR
STARTCHAR uni0938094D092F
ENCODING -1
SWIDTH 920 0
DWIDTH 8 0
BBX 10 6 -1 0
BITMAP
169767A6A2
0052007070
0061283070
0697850170
0350076670
0061000060
ENDCHAR
STARTCHAR uni0938094D0932
ENCODING -1
SWIDTH 1027 0
DWIDTH 9 0
BBX 11 6 -1 0
BITMAP
169766666A20
005205647600
006114351600
069784250600
035034120600
006118400600
ENDCHAR
STARTCHAR uni0938094D0935
ENCODING -1
SWIDTH 842 0
DWIDTH 8 0
BBX 9 6 -1 0
BITMAP
1697666A40
0052064600
0061240600
0697840700
0350177800
0061000600
ENDCHAR
STARTCHAR uni0938094D0938
ENCODING -1
SWIDTH 871 0
DWIDTH 8 0
BBX 9 6 -1 0
BITMAP
16976A6A60
0052070600
0061070600
0697997A00
0350610600
0061070600
ENDCHAR
STARTCHAR uni0939094D0923
ENCODING -1
SWIDTH 1136 0
DWIDTH 10 0
BBX 12 8 -1 -2
BITMAP
1666A886A6A2
017653406060
033002406060
015140772060
042030000060
017630000060
000500000000
000340000000
ENDCHAR
STARTCHAR uni0939094D092E
ENCODING -1
SWIDTH 746 0
DWIDTH 7 0
BBX 8 7 -1 -1
BITMAP
1666A6A5
01765070
04200070
01A65070
05209690
05206070
01763030
ENDCHAR
STARTCHAR uni0939094D092F
ENCODING -1
SWIDTH 785 0
DWIDTH 7 0
BBX 9 8 -1 -2
BITMAP
1666A68810
0176503400
0520003400
02A6733400
0510073400
0611834400
0176667400
0000001100
ENDCHAR
STARTCHAR uni0939094D0932
ENCODING -1
SWIDTH 1110 0
DWIDTH 10 0
BBX 11 8 -1 -2
BITMAP
1666A6666980
017651757930
043006162530
01A747051430
042066000430
017632720420
000400000000
000430000000
ENDCHAR
STARTCHAR uni0939094D0935
ENCODING -1
SWIDTH 920 0
DWIDTH 8 0
BBX 10 8 -1 -2
BITMAP
1666A666A2
0176527260
0430070060
01A7470170
0420527670
0176300060
0005000000
0004300000
ENDCHAR
STARTCHAR uni0915093C094D0915093C
ENCODING -1
SWIDTH 1275 0
DWIDTH 11 0
BBX 13 7 -1 -1
BITMAP
1666A6666A6640
017296672A7500
06107070070700
06107070160700
01767027666500
00006000060000
00300003000000
ENDCHAR
STARTCHAR uni0915093C094D0924
ENCODING -1
SWIDTH 1016 0
DWIDTH 9 0
BBX 11 7 -1 -1
BITMAP
1666A6667910
017297402500
061070778500
061070602500
017670602500
000060652500
003000000000
ENDCHAR
STARTCHAR uni0915093C094D092B
ENCODING -1
SWIDTH 1246 0
DWIDTH 11 0
BBX 13 7 -1 -1
BITMAP
1666A6A6986620
01729680487300
06107060430700
06107040520700
01767000637300
00006000420000
00300000000000
ENDCHAR
STARTCHAR uni0915093C094D092B093C
ENCODING -1
SWIDTH 1247 0
DWIDTH 11 0
BBX 13 7 -1 -1
BITMAP
1666A6A6886620
01729680487300
06107060430700
06107040530700
01767000637300
00006000420000
00300012000000
ENDCHAR
STARTCHAR uni0915093C094D092C
ENCODING -1
SWIDTH 1043 0
DWIDTH 9 0
BBX 11 7 -1 -1
BITMAP
1666A6666A30
0172A6673700
061070761700
061070615700
018760287700
000060000600
003000000000
ENDCHAR
STARTCHAR uni0915093C094D092E
ENCODING -1
SWIDTH 998 0
DWIDTH 9 0
BBX 10 7 -1 -1
BITMAP
1666A6A698
0172A68042
0610708692
0610706042
0176700042
0000600042
0030000000
ENDCHAR
STARTCHAR uni0916093C094D0924
ENCODING -1
SWIDTH 984 0
DWIDTH 9 0
BBX 10 7 -1 -1
BITMAP
16796666A6
0024620060
00355067A0
0672507060
0260666060
0043008360
0000030000
ENDCHAR
STARTCHAR uni0916093C094D092E
ENCODING -1
SWIDTH 965 0
DWIDTH 9 0
BBX 10 7 -1 -1
BITMAP
167966A6A5
0024626070
003550A690
0672516070
0260671070
0043000060
0000030000
ENDCHAR
STARTCHAR uni0916093C094D092F
ENCODING -1
SWIDTH 1045 0
DWIDTH 9 0
BBX 11 7 -1 -1
BITMAP
1679667A6A30
002462060700
003551840700
067251600800
026066777700
004300000700
000012000000
ENDCHAR
STARTCHAR uni0916093C094D0935
ENCODING -1
SWIDTH 972 0
DWIDTH 9 0
BBX 10 7 -1 -1
BITMAP
16796666A5
0024625560
0035507060
0671517070
0260117790
0043000060
0000120000
ENDCHAR
STARTCHAR uni0916093C094D0936
ENCODING -1
SWIDTH 1123 0
DWIDTH 10 0
BBX 12 7 -1 -1
BITMAP
167963775291
002462307240
003550007240
067253872240
025066600240
004300140240
000012000000
ENDCHAR
STARTCHAR uni0916093C094D0938
ENCODING -1
SWIDTH 1066 0
DWIDTH 10 0
BBX 11 7 -1 -1
BITMAP
1679666A6A40
002462070700
003550060700
067252987900
025066600700
004300150700
000012000000
ENDCHAR
STARTCHAR uni091C093C094D091C093C
ENCODING -1
SWIDTH 934 0
DWIDTH 8 0
BBX 10 7 -1 -1
BITMAP
1666666791
0000000240
0288378840
0007007240
0007007240
0572474240
0220030000
ENDCHAR
STARTCHAR uni091C093C094D092F
ENCODING -1
SWIDTH 893 0
DWIDTH 8 0
BBX 10 7 -1 -1
BITMAP
1666698881
0000025330
0287871330
0016610430
0016176830
0582000330
0220000000
ENDCHAR
STARTCHAR uni092B093C094D091C093C
ENCODING -1
SWIDTH 1100 0
DWIDTH 10 0
BBX 11 7 -1 -1
BITMAP
1986A6666970
043060000510
043097287A10
033080006510
006670007510
000060572510
003000030000
ENDCHAR
STARTCHAR uni092B093C094D0924
ENCODING -1
SWIDTH 1036 0
DWIDTH 9 0
BBX 11 7 -1 -1
BITMAP
1986A6666A30
043086400700
043070677700
033080700700
006670700700
000060470600
003000000000
ENDCHAR
STARTCHAR uni092B093C094D092B093C
ENCODING -1
SWIDTH 1256 0
DWIDTH 11 0
BBX 13 7 -1 -1
BITMAP
1986A6A6886620
04309790397400
04307060350700
02308040440700
00117000447400
00006000240000
00300003000000
ENDCHAR
STARTCHAR uni092B093C094D0938
ENCODING -1
SWIDTH 1141 0
DWIDTH 10 0
BBX 12 7 -1 -1
BITMAP
1986A66886A2
043097343070
043070642070
033080897770
006670250070
000060052060
003000000000
ENDCHAR
STARTCHAR uni092C094D091C093C
ENCODING -1
SWIDTH 883 0
DWIDTH 8 0
BBX 9 7 -1 -1
BITMAP
1666666970
0183000520
0670288920
0742007520
0616107520
0177872520
0000210000
ENDCHAR
STARTCHAR uni0932094D091C093C
ENCODING -1
SWIDTH 1062 0
DWIDTH 10 0
BBX 11 7 -1 -1
BITMAP
166666666A30
007562697700
052530070700
051420070700
051100070700
028304750600
000000300000
ENDCHAR
STARTCHAR uni0936094D0915093C
ENCODING -1
SWIDTH 1093 0
DWIDTH 10 0
BBX 10 7 0 -1
BITMAP
288266A666
3160747770
0072507034
6752507034
1600778370
0430006000
0000300000
ENDCHAR
STARTCHAR uni0924094D0924094D
ENCODING -1
SWIDTH 309 0
DWIDTH 3 0
BBX 5 6 -1 0
BITMAP
166640
000000
059750
007000
006000
008300
ENDCHAR
STARTCHAR uni0928094D092D094D
ENCODING -1
SWIDTH 505 0
DWIDTH 5 0
BBX 7 5 -1 1
BITMAP
16673330
00025000
04779630
06025000
00012000
ENDCHAR
STARTCHAR uni0928094D0938094D
ENCODING -1
SWIDTH 635 0
DWIDTH 6 0
BBX 8 6 -1 0
BITMAP
16666A64
00000700
04771700
0600A975
01006100
00000700
ENDCHAR
STARTCHAR uni092E094D092D094D
ENCODING -1
SWIDTH 533 0
DWIDTH 5 0
BBX 7 5 -1 1
BITMAP
19765240
04206000
0486A650
04206000
02102000
ENDCHAR
STARTCHAR uni0932094D092D094D
ENCODING -1
SWIDTH 694 0
DWIDTH 6 0
BBX 9 6 -1 0
BITMAP
1666680510
0000051000
0176692000
0525357610
0512131000
0283000000
ENDCHAR
STARTCHAR uni0938094D0924094D0930094D
ENCODING -1
SWIDTH 575 0
DWIDTH 5 0
BBX 8 6 -1 0
BITMAP
16976630
00520000
00613771
06977015
03500062
00613610
ENDCHAR
STARTCHAR uni0915094D0924094D092F
ENCODING -1
SWIDTH 1356 0
DWIDTH 12 0
BBX 14 6 -1 0
BITMAP
1666A6666897A2
0172A640006160
06107077882160
06107060430260
01767060076760
00006056000160
ENDCHAR
STARTCHAR uni0915094D0924094D0930
ENCODING -1
SWIDTH 997 0
DWIDTH 9 0
BBX 10 6 -1 0
BITMAP
1666A66697
0172974042
0610708682
0610705062
0176700472
0000605342
ENDCHAR
STARTCHAR uni0915094D0924094D0935
ENCODING -1
SWIDTH 1242 0
DWIDTH 11 0
BBX 13 6 -1 0
BITMAP
1666A666667920
01729740163500
06107097901500
06107070702500
01777070377500
00006083001500
ENDCHAR
STARTCHAR uni0915094D092A094D0930
ENCODING -1
SWIDTH 1007 0
DWIDTH 9 0
BBX 11 6 -1 0
BITMAP
1666A6A68810
017296803400
061070704400
06107047B400
017660074400
000060433300
ENDCHAR
STARTCHAR uni0915094D0935094D092F
ENCODING -1
SWIDTH 1384 0
DWIDTH 12 0
BBX 14 6 -1 0
BITMAP
1666A66667A6A3
0172A777207060
06107070084060
06117070170070
01877038866670
00006000000060
ENDCHAR
STARTCHAR uni0915094D0938094D091F
ENCODING -1
SWIDTH 1376 0
DWIDTH 12 0
BBX 14 6 -1 0
BITMAP
1666A6679666A3
0172A642506640
06107063432000
061070797A1000
01767016051070
00006004328770
ENDCHAR
STARTCHAR uni0915094D0938094D0921
ENCODING -1
SWIDTH 1388 0
DWIDTH 12 0
BBX 14 6 -1 0
BITMAP
1666A6679666A4
0172A742506760
06107063416000
06117055007660
02877007013070
00006004308680
ENDCHAR
STARTCHAR uni0915094D0938094D0924
ENCODING -1
SWIDTH 1423 0
DWIDTH 13 0
BBX 14 6 -1 0
BITMAP
1666A6679666A6
01729642500070
061070634057A0
06107079776070
01767016016070
00006004309360
ENDCHAR
STARTCHAR uni0915094D0938094D092A094D0930
ENCODING -1
SWIDTH 1437 0
DWIDTH 13 0
BBX 14 6 -1 0
BITMAP
1666A66796A697
0172A652407052
06107079778052
061070250047B2
01766007000752
00006003405252
ENDCHAR
STARTCHAR uni0915094D0938094D092A094D0932
ENCODING -1
SWIDTH 1866 0
DWIDTH 17 0
BBX 18 6 -1 0
BITMAP
1666A66796A66666A5
0172A64250702747A0
061070634070608070
061070797770706070
017670160010702070
000060043000571060
ENDCHAR
STARTCHAR uni0917094D0927094D092F
ENCODING -1
SWIDTH 1156 0
DWIDTH 10 0
BBX 12 6 -1 0
BITMAP
16A6B346A6A3
007070006070
007085184070
063060060070
0000701A7670
000057710060
ENDCHAR
STARTCHAR uni0917094D0927094D0935
ENCODING -1
SWIDTH 1084 0
DWIDTH 10 0
BBX 11 6 -1 0
BITMAP
16A6B3466A50
007070065600
007085070600
063060070700
0000701D7900
000057710600
ENDCHAR
STARTCHAR uni0917094D0928094D092F
ENCODING -1
SWIDTH 1069 0
DWIDTH 10 0
BBX 11 6 -1 0
BITMAP
16A6666B6A40
007000060700
007176850700
063220700800
000000476800
000000000600
ENDCHAR
STARTCHAR uni0917094D092D094D092F
ENCODING -1
SWIDTH 1102 0
DWIDTH 10 0
BBX 11 6 -1 0
BITMAP
16A6616A7970
007070042510
007096710510
063070600610
000000176910
000000000510
ENDCHAR
STARTCHAR uni0917094D0930094D092F
ENCODING -1
SWIDTH 817 0
DWIDTH 7 0
BBX 9 7 -1 -1
BITMAP
16A67A6A30
0070060700
0071830700
0631600700
000067A700
0000091600
0000220000
ENDCHAR
STARTCHAR uni091A094D091B094D0935
ENCODING -1
SWIDTH 913 0
DWIDTH 8 0
BBX 10 7 -1 -1
BITMAP
1666896792
0000430740
00601A2060
0070430070
00676A7850
0000070240
0000066700
ENDCHAR
STARTCHAR uni091C094D091C094D091E
ENCODING -1
SWIDTH 945 0
DWIDTH 9 0
BBX 10 7 -1 -1
BITMAP
16666666A4
0000177780
0288A10070
0007377270
0007600670
0572777460
0000200000
ENDCHAR
STARTCHAR uni091C094D091C094D092F
ENCODING -1
SWIDTH 1252 0
DWIDTH 11 0
BBX 13 6 -1 0
BITMAP
16666666796A20
00000000060700
02872688830700
00060073401700
00070070766700
05724730000600
ENDCHAR
STARTCHAR uni091C094D091C094D0935
ENCODING -1
SWIDTH 1243 0
DWIDTH 11 0
BBX 12 6 -1 0
BITMAP
1666666666A4
000000005470
028827874070
000600734070
000700707780
057247300060
ENDCHAR
STARTCHAR uni0924094D0915094D092F
ENCODING -1
SWIDTH 1346 0
DWIDTH 12 0
BBX 14 6 -1 0
BITMAP
166666A6688791
00003560016240
01766076871240
06107080520340
06106790176740
03810060000240
ENDCHAR
STARTCHAR uni0924094D0915094D0930
ENCODING -1
SWIDTH 995 0
DWIDTH 9 0
BBX 10 7 -1 -1
BITMAP
166666A666
0000357671
0177607016
0610707016
061069A271
0381176000
0000300000
ENDCHAR
STARTCHAR uni0924094D0915094D0935
ENCODING -1
SWIDTH 1282 0
DWIDTH 12 0
BBX 13 6 -1 0
BITMAP
166666A6666A40
00003576874600
01776070440600
06107070440700
06107790187800
03810060000600
ENDCHAR
STARTCHAR uni0924094D0915094D0937
ENCODING -1
SWIDTH 943 0
DWIDTH 8 0
BBX 10 6 -1 0
BITMAP
1666387084
0000525160
0176798680
0610702060
0600579160
0380005160
ENDCHAR
STARTCHAR uni0924094D0916094D0930
ENCODING -1
SWIDTH 1008 0
DWIDTH 9 0
BBX 11 7 -1 -1
BITMAP
166669768810
000005273400
017726523400
0610A6423400
06004306A400
038006173400
000000130000
ENDCHAR
STARTCHAR uni0924094D0924094D092F
ENCODING -1
SWIDTH 888 0
DWIDTH 8 0
BBX 10 6 -1 0
BITMAP
1666697981
0000024420
0060671420
0060600520
0070176820
0083000420
ENDCHAR
STARTCHAR uni0924094D0924094D0935
ENCODING -1
SWIDTH 788 0
DWIDTH 7 0
BBX 9 6 -1 0
BITMAP
1666668910
0000263400
0597802400
0070703400
0060478400
0083002400
ENDCHAR
STARTCHAR uni0924094D0928094D092F
ENCODING -1
SWIDTH 1098 0
DWIDTH 10 0
BBX 11 6 -1 0
BITMAP
1666666A7960
000000042610
027666870610
061050600710
060000276910
038000000510
ENDCHAR
STARTCHAR uni0924094D092A094D0930
ENCODING -1
SWIDTH 763 0
DWIDTH 7 0
BBX 8 6 -1 0
BITMAP
1666A6A6
01777061
05107071
060058B1
06100761
02716161
ENDCHAR
STARTCHAR uni0924094D092A094D0932
ENCODING -1
SWIDTH 1219 0
DWIDTH 11 0
BBX 12 6 -1 0
BITMAP
1666A6666698
000070173692
017770505252
061070606142
061057A03042
038100382042
ENDCHAR
STARTCHAR uni0924094D092E094D092F
ENCODING -1
SWIDTH 1096 0
DWIDTH 10 0
BBX 11 6 -1 0
BITMAP
1666A66A7A60
000070042600
0120A6710600
061060600700
061000176900
038100000600
ENDCHAR
STARTCHAR uni0924094D0930094D092F
ENCODING -1
SWIDTH 848 0
DWIDTH 8 0
BBX 9 6 -1 0
BITMAP
16666B6A40
0176160600
0610960600
0201800700
0017366800
0270000600
ENDCHAR
STARTCHAR uni0924094D0938094D092F
ENCODING -1
SWIDTH 1234 0
DWIDTH 11 0
BBX 13 6 -1 0
BITMAP
16666A76888910
00000610162400
01773604712400
0610997A203400
06003401868400
03800710002400
ENDCHAR
STARTCHAR uni0924094D0938094D0935
ENCODING -1
SWIDTH 1155 0
DWIDTH 10 0
BBX 12 6 -1 0
BITMAP
16666A7666A3
000006107360
017736051060
0610997A1070
060034027770
038007100060
ENDCHAR
STARTCHAR uni0926094D0917094D0930
ENCODING -1
SWIDTH 493 0
DWIDTH 4 0
BBX 6 8 -1 -2
BITMAP
1666A3
017760
052000
052060
019790
007080
036670
003220
ENDCHAR
STARTCHAR uni0926094D092C094D0930
ENCODING -1
SWIDTH 483 0
DWIDTH 4 0
BBX 6 8 -1 -2
BITMAP
1666A3
017760
052000
052050
01C680
045660
017960
002800
ENDCHAR
STARTCHAR uni0926094D092F094D092D
ENCODING -1
SWIDTH 607 0
DWIDTH 5 0
BBX 7 8 -1 -2
BITMAP
166A6A30
00670700
02400700
01940700
0176A800
04554700
02480700
00040300
ENDCHAR
STARTCHAR uni0926094D092F094D0930
ENCODING -1
SWIDTH 595 0
DWIDTH 5 0
BBX 7 7 -1 -1
BITMAP
166A6A30
01770700
04200700
01A30700
04200700
02868700
00053000
ENDCHAR
STARTCHAR uni0927094D0928094D092F
ENCODING -1
SWIDTH 1138 0
DWIDTH 10 0
BBX 12 6 -1 0
BITMAP
18926667A6A2
042000006060
029346783060
052070340160
017680066660
000000000060
ENDCHAR
STARTCHAR uni0928094D0915094D0938
ENCODING -1
SWIDTH 1384 0
DWIDTH 12 0
BBX 14 6 -1 0
BITMAP
166666A667A6A3
00007487416070
04684070615070
06034070697780
00007780070070
00000060034060
ENDCHAR
STARTCHAR uni0928094D0924094D092F
ENCODING -1
SWIDTH 1073 0
DWIDTH 10 0
BBX 11 6 -1 0
BITMAP
1666666A6A50
000000060700
046796850700
060340700800
000330476900
000182000600
ENDCHAR
STARTCHAR uni0928094D0924094D0930
ENCODING -1
SWIDTH 732 0
DWIDTH 7 0
BBX 8 6 -1 0
BITMAP
166666A4
00000060
04774180
06032080
00000780
00018160
ENDCHAR
STARTCHAR uni0928094D0924094D0938
ENCODING -1
SWIDTH 1134 0
DWIDTH 10 0
BBX 12 6 -1 0
BITMAP
166666697792
000067342160
047830551160
060430897760
020430250160
000182061160
ENDCHAR
STARTCHAR uni0928094D0925094D092F
ENCODING -1
SWIDTH 1168 0
DWIDTH 11 0
BBX 12 6 -1 0
BITMAP
16628826A6A4
000044207070
046777085070
060340070080
000067767780
000000000060
ENDCHAR
STARTCHAR uni0928094D0925094D0935
ENCODING -1
SWIDTH 1089 0
DWIDTH 10 0
BBX 11 6 -1 0
BITMAP
166288266A50
000034256600
046777070600
060340070700
000066767A00
000000000600
ENDCHAR
STARTCHAR uni0928094D0926094D0930
ENCODING -1
SWIDTH 734 0
DWIDTH 7 0
BBX 8 6 -1 0
BITMAP
166666A4
00006770
04675000
05035030
000079A0
00001760
ENDCHAR
STARTCHAR uni0928094D0926094D0935
ENCODING -1
SWIDTH 732 0
DWIDTH 7 0
BBX 8 7 -1 -1
BITMAP
166666A4
00006770
04674000
05034050
0000A6A0
00016070
00007750
ENDCHAR
STARTCHAR uni0928094D0927094D092F
ENCODING -1
SWIDTH 1097 0
DWIDTH 10 0
BBX 11 6 -1 0
BITMAP
1668916A7A60
000520042610
0468A3670610
050520600710
000420796910
000076400610
ENDCHAR
STARTCHAR uni0928094D0927094D0930
ENCODING -1
SWIDTH 783 0
DWIDTH 7 0
BBX 9 6 -1 0
BITMAP
1668918810
0005203300
0468A33300
0505204300
000178A300
0000263300
ENDCHAR
STARTCHAR uni0928094D0927094D0935
ENCODING -1
SWIDTH 1036 0
DWIDTH 9 0
BBX 11 6 -1 0
BITMAP
166891666A30
000520172600
0468A3610600
050520610700
000420786700
000076400600
ENDCHAR
STARTCHAR uni0928094D0928094D092F
ENCODING -1
SWIDTH 1071 0
DWIDTH 10 0
BBX 11 6 -1 0
BITMAP
1666666A6A40
000000060700
046786860700
050230700800
000000476900
000000000600
ENDCHAR
STARTCHAR uni0928094D092A094D0930
ENCODING -1
SWIDTH 737 0
DWIDTH 7 0
BBX 8 6 -1 0
BITMAP
166896A4
00024070
05685070
03007990
00001670
00007060
ENDCHAR
STARTCHAR uni0928094D092B094D0930
ENCODING -1
SWIDTH 975 0
DWIDTH 9 0
BBX 10 6 -1 0
BITMAP
166896A665
0002408770
0468508043
0400699043
0000267470
0000706000
ENDCHAR
STARTCHAR uni0928094D092D094D092F
ENCODING -1
SWIDTH 1071 0
DWIDTH 10 0
BBX 11 6 -1 0
BITMAP
1668336B6A40
000250060700
046796610700
050250700800
000000366900
000000000600
ENDCHAR
STARTCHAR uni0928094D092D094D0935
ENCODING -1
SWIDTH 995 0
DWIDTH 9 0
BBX 10 6 -1 0
BITMAP
1668336697
0002505752
0467968042
0402407052
0000004792
0000000042
ENDCHAR
STARTCHAR uni0928094D092E094D092F
ENCODING -1
SWIDTH 1071 0
DWIDTH 10 0
BBX 11 6 -1 0
BITMAP
1667966B6A40
000250060700
046796610700
050250700800
000000366900
000000000600
ENDCHAR
STARTCHAR uni0928094D0938094D091F
ENCODING -1
SWIDTH 1113 0
DWIDTH 10 0
BBX 12 6 -1 0
BITMAP
16666A666971
000007026800
037607050000
0603A8780000
020070070060
000016067740
ENDCHAR
STARTCHAR uni0928094D0938094D092E094D092F
ENCODING -1
SWIDTH 1453 0
DWIDTH 13 0
BBX 15 6 -1 0
BITMAP
16666A6A66988810
0000070700153400
0466060704713400
0604986A6A204400
0000700102868400
0000250000003400
ENDCHAR
STARTCHAR uni0928094D0938094D092F
ENCODING -1
SWIDTH 1194 0
DWIDTH 11 0
BBX 12 6 -1 0
BITMAP
16666A66B6A5
000007007060
046606076060
060498790070
000070057690
000025000060
ENDCHAR
STARTCHAR uni092A094D0924094D092F
ENCODING -1
SWIDTH 1119 0
DWIDTH 10 0
BBX 12 6 -1 0
BITMAP
198666698881
043000015340
043047881340
023070510440
001180176840
000075000340
ENDCHAR
STARTCHAR uni092C094D091C094D092F
ENCODING -1
SWIDTH 1235 0
DWIDTH 11 0
BBX 13 6 -1 0
BITMAP
16666666887910
01730000162400
06802878712400
07440075203400
06161071767400
01778720002400
ENDCHAR
STARTCHAR uni092C094D0927094D0935
ENCODING -1
SWIDTH 1097 0
DWIDTH 10 0
BBX 11 6 -1 0
BITMAP
1666A5166960
017370056610
066177070610
070580070710
0612800C7A10
017627710510
ENDCHAR
STARTCHAR uni092C094D092D094D0930
ENCODING -1
SWIDTH 764 0
DWIDTH 7 0
BBX 8 6 -1 0
BITMAP
166662A6
01737061
064196A1
061471B1
01772761
00005361
ENDCHAR
STARTCHAR uni092C094D0932094D092F
ENCODING -1
SWIDTH 480 0
DWIDTH 4 0
BBX 13 6 -1 0
BITMAP
166666666A7A60
01734757452600
06617070870600
06167030700700
01766000276900
00003600000600
ENDCHAR
STARTCHAR uni092D094D0930094D092F
ENCODING -1
SWIDTH 830 0
DWIDTH 7 0
BBX 9 6 -1 0
BITMAP
18147A6A30
0420060700
0486510700
0425700700
0025466700
0070000600
ENDCHAR
STARTCHAR uni092E094D092A094D0930
ENCODING -1
SWIDTH 765 0
DWIDTH 7 0
BBX 8 6 -1 0
BITMAP
1976A697
04206061
04867061
032058B1
00000761
00006161
ENDCHAR
STARTCHAR uni092E094D092C094D092F
ENCODING -1
SWIDTH 1124 0
DWIDTH 10 0
BBX 12 6 -1 0
BITMAP
197666689791
042066015240
0486A4420240
042063A20340
000056566740
000000000240
ENDCHAR
STARTCHAR uni092E094D092C094D0930
ENCODING -1
SWIDTH 768 0
DWIDTH 7 0
BBX 8 6 -1 0
BITMAP
19766697
04206651
04868551
042071A1
000048A1
00002651
ENDCHAR
STARTCHAR uni092E094D092D094D092F
ENCODING -1
SWIDTH 1101 0
DWIDTH 10 0
BBX 11 6 -1 0
BITMAP
1976526A7970
042070042510
0486A6710510
042060600610
000000176910
000000000510
ENDCHAR
STARTCHAR uni092E094D092D094D0930
ENCODING -1
SWIDTH 759 0
DWIDTH 7 0
BBX 8 6 -1 0
BITMAP
197652A6
04207060
0476A6A0
042061C0
00000770
00005260
ENDCHAR
STARTCHAR uni092E094D092D094D0935
ENCODING -1
SWIDTH 1028 0
DWIDTH 9 0
BBX 11 6 -1 0
BITMAP
197652666A20
042070372600
0486A6A00600
042060701600
000000276600
000000000600
ENDCHAR
STARTCHAR uni0932094D0915094D092F
ENCODING -1
SWIDTH 1534 0
DWIDTH 14 0
BBX 15 6 -1 0
BITMAP
16666666A66A6A60
0075646360051700
0524362096860700
0514252080700800
0510017770376A00
0283000060000600
ENDCHAR
STARTCHAR uni0932094D0925094D092F
ENCODING -1
SWIDTH 1397 0
DWIDTH 13 0
BBX 14 6 -1 0
BITMAP
1666628826B6A4
00745614206060
05243577051060
05132340070070
05100066656680
02830000000060
ENDCHAR
STARTCHAR uni0932094D0926094D0930
ENCODING -1
SWIDTH 933 0
DWIDTH 8 0
BBX 10 6 -1 0
BITMAP
16666666A3
0076667760
0525362000
0513252030
0510017980
0283003560
ENDCHAR
STARTCHAR uni0932094D0932094D092F
ENCODING -1
SWIDTH 1476 0
DWIDTH 13 0
BBX 15 6 -1 0
BITMAP
16666666667A6A20
0076677667070700
0524352434930700
0512151212501700
0510051000666700
0283018300000600
ENDCHAR
STARTCHAR uni0932094D0935094D0921
ENCODING -1
SWIDTH 1247 0
DWIDTH 11 0
BBX 13 6 -1 0
BITMAP
16666666666A20
00766673177400
05253520520000
05132520377400
05100176700700
02830000566600
ENDCHAR
STARTCHAR uni0937094D0915094D0930
ENCODING -1
SWIDTH 1042 0
DWIDTH 9 0
BBX 11 7 -1 -1
BITMAP
199666796630
047127397400
043660260700
0231C0250700
001168A57400
000007350000
000003000000
ENDCHAR
STARTCHAR uni0937094D091F094D092F
ENCODING -1
SWIDTH 997 0
DWIDTH 9 0
BBX 10 6 -1 0
BITMAP
19B6A66698
0445867342
01A6700742
0510028352
0610607682
0276700042
ENDCHAR
STARTCHAR uni0937094D091F094D0930
ENCODING -1
SWIDTH 493 0
DWIDTH 4 0
BBX 6 8 -1 -2
BITMAP
19B6A3
044570
01A670
051000
061060
027670
007630
002020
ENDCHAR
STARTCHAR uni0937094D091F094D0935
ENCODING -1
SWIDTH 493 0
DWIDTH 4 0
BBX 6 8 -1 -2
BITMAP
19A6A3
047360
043680
01A760
051040
029690
044070
016630
ENDCHAR
STARTCHAR uni0937094D0920094D092F
ENCODING -1
SWIDTH 1006 0
DWIDTH 9 0
BBX 10 6 0 0
BITMAP
8EFE666881
4FFE663340
2EFA007340
3748183440
5106066840
2767000330
ENDCHAR
STARTCHAR uni0937094D0920094D0930
ENCODING -1
SWIDTH 512 0
DWIDTH 5 0
BBX 5 8 0 -2
BITMAP
8EFE40
4FFD00
1EF900
352800
510700
286800
077300
030400
ENDCHAR
STARTCHAR uni0937094D0923094D092F
ENCODING -1
SWIDTH 1273 0
DWIDTH 11 0
BBX 13 6 -1 0
BITMAP
19A6A6A67A6A30
04716060060700
04367060840700
0231B050600800
00003110577800
00000000000600
ENDCHAR
STARTCHAR uni0937094D092A094D0930
ENCODING -1
SWIDTH 798 0
DWIDTH 7 0
BBX 9 6 -1 0
BITMAP
19A6A67920
0463601500
0433A02500
017756A500
0000063500
0000341500
ENDCHAR
STARTCHAR uni0937094D092E094D092F
ENCODING -1
SWIDTH 1121 0
DWIDTH 10 0
BBX 12 6 -1 0
BITMAP
19A6A6698891
047460015340
0437B6810340
0230B0420440
001130066840
000000000240
ENDCHAR
STARTCHAR uni0938094D0915094D0930
ENCODING -1
SWIDTH 1084 0
DWIDTH 10 0
BBX 11 7 -1 -1
BITMAP
1697666A6650
005206487700
006124070430
069784070430
035018A84700
006103660000
000004000000
ENDCHAR
STARTCHAR uni0938094D0915094D0935
ENCODING -1
SWIDTH 1369 0
DWIDTH 12 0
BBX 14 6 -1 0
BITMAP
1697666A6666A3
00520648777270
00612407061070
06978407061070
03501878028770
00610006000060
ENDCHAR
STARTCHAR uni0938094D0924094D092F
ENCODING -1
SWIDTH 1185 0
DWIDTH 11 0
BBX 12 6 -1 0
BITMAP
16976666B6A5
005200006070
006105786070
069784070080
035034037690
006119200060
ENDCHAR
STARTCHAR uni0938094D0924094D0930
ENCODING -1
SWIDTH 818 0
DWIDTH 7 0
BBX 9 6 -1 0
BITMAP
1697666A30
0052000600
0061277700
0697800700
0350006700
0061271600
ENDCHAR
STARTCHAR uni0938094D0924094D0935
ENCODING -1
SWIDTH 1126 0
DWIDTH 10 0
BBX 12 6 -1 0
BITMAP
169766666791
005200016350
006106680250
069784070350
035033037750
006118200250
ENDCHAR
STARTCHAR uni0938094D0925094D092F
ENCODING -1
SWIDTH 1303 0
DWIDTH 12 0
BBX 13 6 -1 0
BITMAP
169727826B6A50
00520434060700
00611871760700
06978600700800
02500776577900
00610000000600
ENDCHAR
STARTCHAR uni0938094D092A094D0930
ENCODING -1
SWIDTH 850 0
DWIDTH 8 0
BBX 9 6 -1 0
BITMAP
1697796A50
0051240700
0797750700
0530069A00
0070016700
0062070600
ENDCHAR
STARTCHAR uni0938094D092E094D092F
ENCODING -1
SWIDTH 1189 0
DWIDTH 11 0
BBX 12 6 -1 0
BITMAP
16977966A6A5
005225007070
006125076070
069779790080
035001057690
006100000060
ENDCHAR
STARTCHAR uni093F.a01
ENCODING -1
SWIDTH 231 0
DWIDTH 2 0
BBX 5 8 0 0
BITMAP
197830
340030
891000
340000
340000
340000
340000
240000
ENDCHAR
STARTCHAR uni093F.a04
ENCODING -1
SWIDTH 231 0
DWIDTH 2 0
BBX 6 8 0 0
BITMAP
197776
340003
891000
340000
340000
340000
340000
240000
ENDCHAR
STARTCHAR uni093F.a05
ENCODING -1
SWIDTH 231 0
DWIDTH 2 0
BBX 7 8 0 0
BITMAP
19777900
34000310
89100000
34000000
34000000
34000000
34000000
24000000
ENDCHAR
STARTCHAR uni093F.a06
ENCODING -1
SWIDTH 231 0
DWIDTH 2 0
BBX 7 8 0 0
BITMAP
19777750
34000030
89100000
34000000
34000000
34000000
34000000
24000000
ENDCHAR
STARTCHAR uni093F.a07
ENCODING -1
SWIDTH 231 0
DWIDTH 2 0
BBX 7 8 0 0
BITMAP
19777780
34000030
89100000
34000000
34000000
34000000
34000000
24000000
ENDCHAR
STARTCHAR uni093F.a08
ENCODING -1
SWIDTH 231 0
DWIDTH 2 0
BBX 8 8 0 0
BITMAP
19777783
34000003
89100000
34000000
34000000
34000000
34000000
24000000
ENDCHAR
STARTCHAR uni093F.a09
ENCODING -1
SWIDTH 231 0
DWIDTH 2 0
BBX 8 8 0 0
BITMAP
19777777
34000003
89100000
34000000
34000000
34000000
34000000
24000000
ENDCHAR
STARTCHAR uni093F.a10
ENCODING -1
SWIDTH 231 0
DWIDTH 2 0
BBX 9 8 0 0
BITMAP
1977777910
3400000210
8910000000
3400000000
3400000000
3400000000
3400000000
2400000000
ENDCHAR
STARTCHAR uni093F.a11
ENCODING -1
SWIDTH 231 0
DWIDTH 2 0
BBX 9 8 0 0
BITMAP
1977777760
3400000030
8910000000
3400000000
3400000000
3400000000
3400000000
2400000000
ENDCHAR
STARTCHAR uni093F.a12
ENCODING -1
SWIDTH 231 0
DWIDTH 2 0
BBX 9 8 0 0
BITMAP
1977777790
3400000030
8910000000
3400000000
3400000000
3400000000
3400000000
2400000000
ENDCHAR
STARTCHAR uni093F.a13
ENCODING -1
SWIDTH 231 0
DWIDTH 2 0
BBX 10 8 0 0
BITMAP
1977777774
3400000003
8910000000
3400000000
3400000000
3400000000
3400000000
2400000000
ENDCHAR
STARTCHAR uni093F.a14
ENCODING -1
SWIDTH 231 0
DWIDTH 2 0
BBX 10 8 0 0
BITMAP
1977777778
3400000003
8910000000
3400000000
3400000000
3400000000
3400000000
2400000000
ENDCHAR
STARTCHAR uni093F.a15
ENCODING -1
SWIDTH 231 0
DWIDTH 2 0
BBX 11 8 0 0
BITMAP
197777777820
340000000120
891000000000
340000000000
340000000000
340000000000
340000000000
240000000000
ENDCHAR
STARTCHAR uni093F.a16
ENCODING -1
SWIDTH 231 0
DWIDTH 2 0
BBX 11 8 0 0
BITMAP
197777777770
340000000030
891000000000
340000000000
340000000000
340000000000
340000000000
240000000000
ENDCHAR
STARTCHAR uni093F.a17
ENCODING -1
SWIDTH 231 0
DWIDTH 2 0
BBX 12 8 0 0
BITMAP
197777777791
340000000021
891000000000
340000000000
340000000000
340000000000
340000000000
240000000000
ENDCHAR
STARTCHAR uni093F.a18
ENCODING -1
SWIDTH 231 0
DWIDTH 2 0
BBX 12 8 0 0
BITMAP
197777777775
340000000003
891000000000
340000000000
340000000000
340000000000
340000000000
240000000000
ENDCHAR
STARTCHAR uni093F.a19
ENCODING -1
SWIDTH 231 0
DWIDTH 2 0
BBX 12 8 0 0
BITMAP
197777777778
340000000003
891000000000
340000000000
340000000000
340000000000
340000000000
240000000000
ENDCHAR
STARTCHAR uni093F.a20
ENCODING -1
SWIDTH 231 0
DWIDTH 2 0
BBX 13 8 0 0
BITMAP
19777777777840
34000000000030
89100000000000
34000000000000
34000000000000
34000000000000
34000000000000
24000000000000
ENDCHAR
STARTCHAR uni093F.a21
ENCODING -1
SWIDTH 231 0
DWIDTH 2 0
BBX 13 8 0 0
BITMAP
19777777777770
34000000000030
89100000000000
34000000000000
34000000000000
34000000000000
34000000000000
24000000000000
ENDCHAR
STARTCHAR uni093F.a22
ENCODING -1
SWIDTH 231 0
DWIDTH 2 0
BBX 14 8 0 0
BITMAP
19777777777782
34000000000012
89100000000000
34000000000000
34000000000000
34000000000000
34000000000000
24000000000000
ENDCHAR
STARTCHAR uni093F.a23
ENCODING -1
SWIDTH 231 0
DWIDTH 2 0
BBX 14 8 0 0
BITMAP
19777777777776
34000000000003
89100000000000
34000000000000
34000000000000
34000000000000
34000000000000
24000000000000
ENDCHAR
STARTCHAR uni093F.a24
ENCODING -1
SWIDTH 231 0
DWIDTH 2 0
BBX 15 8 0 0
BITMAP
1977777777777900
3400000000000210
8910000000000000
3400000000000000
3400000000000000
3400000000000000
3400000000000000
2400000000000000
ENDCHAR
STARTCHAR uni093F.a25
ENCODING -1
SWIDTH 231 0
DWIDTH 2 0
BBX 15 8 0 0
BITMAP
1977777777777750
3400000000000030
8910000000000000
3400000000000000
3400000000000000
3400000000000000
3400000000000000
2400000000000000
ENDCHAR
STARTCHAR uni093F.a26
ENCODING -1
SWIDTH 231 0
DWIDTH 2 0
BBX 15 8 0 0
BITMAP
1977777777777780
3400000000000030
8910000000000000
3400000000000000
3400000000000000
3400000000000000
3400000000000000
2400000000000000
ENDCHAR
STARTCHAR uni093F.a32
ENCODING -1
SWIDTH 231 0
DWIDTH 2 0
BBX 19 8 0 0
BITMAP
19777777777777777910
34000000000000000210
89100000000000000000
34000000000000000000
34000000000000000000
34000000000000000000
34000000000000000000
24000000000000000000
ENDCHAR
STARTCHAR uni093E0901
ENCODING -1
SWIDTH 231 0
DWIDTH 2 0
BBX 4 8 -1 0
BITMAP
2123
2772
0891
0340
0340
0340
0340
0240
ENDCHAR
STARTCHAR dvNG_GA
ENCODING -1
SWIDTH 562 0
DWIDTH 5 0
BBX 7 9 -1 -3
BITMAP
1666A610
01768000
04200300
01767000
02004300
02779100
00707000
04507000
00006000
ENDCHAR
STARTCHAR dvNG_MA
ENCODING -1
SWIDTH 728 0
DWIDTH 7 0
BBX 8 8 -1 -2
BITMAP
1666A6A4
02765070
02764070
01007070
05106070
0276B680
00042070
00000060
ENDCHAR
STARTCHAR dvNY_CA
ENCODING -1
SWIDTH 963 0
DWIDTH 9 0
BBX 10 6 -1 0
BITMAP
16666666A5
0372000070
0006188370
0009561080
0474027790
0000000060
ENDCHAR
STARTCHAR dvTT_GA
ENCODING -1
SWIDTH 510 0
DWIDTH 5 0
BBX 6 8 -1 -2
BITMAP
1666A5
017660
051010
052052
019790
007070
045070
000060
ENDCHAR
STARTCHAR dvTTH_TTHA
ENCODING -1
SWIDTH 511 0
DWIDTH 5 0
BBX 6 9 -1 -3
BITMAP
1666A4
017760
052070
062070
017780
005750
053070
061070
017750
ENDCHAR
STARTCHAR dvDD_GA
ENCODING -1
SWIDTH 541 0
DWIDTH 5 0
BBX 6 9 -1 -3
BITMAP
1666A6
017670
042000
017670
020043
027791
007070
045070
000060
ENDCHAR
STARTCHAR dvDDH_DDHA
ENCODING -1
SWIDTH 487 0
DWIDTH 4 0
BBX 6 8 -1 -2
BITMAP
1666A3
017650
052560
052370
01A650
052330
052460
017660
ENDCHAR
STARTCHAR dvSHA_MatraVocalicR
ENCODING -1
SWIDTH 558 0
DWIDTH 5 0
BBX 6 8 0 -2
BITMAP
378381
527430
197430
546930
000430
000730
006100
003772
ENDCHAR
STARTCHAR dvT_KH_NA
ENCODING -1
SWIDTH 1341 0
DWIDTH 12 0
BBX 14 6 -1 0
BITMAP
16666976666881
00000527600340
01202652466840
0600A642490340
06004307720340
03800610000330
ENDCHAR
STARTCHAR dvT_S_NA
ENCODING -1
SWIDTH 1169 0
DWIDTH 11 0
BBX 12 6 -1 0
BITMAP
16666A7666A4
000006100060
012026007680
060099792060
060034011060
038007100060
ENDCHAR
ENDFONT
